<svg width="50" height="50" viewBox="0 0 50 50" fill="none"
  xmlns="http://www.w3.org/2000/svg">
  <g clip-path="url(#clip0)">
    <path d="M48.6514 21.7476C48.6503 21.7464 48.6492 21.7453 48.648 21.7442L28.252 1.34888C27.3826 0.479126 26.2267 0 24.9973 0C23.7678 0 22.6119 0.478745 21.7422 1.3485L1.35683 21.7335C1.34997 21.7403 1.3431 21.7476 1.33623 21.7545C-0.449045 23.55 -0.445994 26.4633 1.34501 28.2543C2.16326 29.073 3.24396 29.5471 4.39943 29.5967C4.44636 29.6013 4.49366 29.6036 4.54134 29.6036H5.35425V44.6133C5.35425 47.5834 7.77086 50 10.7417 50H18.7213C19.53 50 20.1862 49.3443 20.1862 48.5352V36.7676C20.1862 35.4122 21.2886 34.3098 22.644 34.3098H27.3506C28.7059 34.3098 29.8084 35.4122 29.8084 36.7676V48.5352C29.8084 49.3443 30.4641 50 31.2732 50H39.2528C42.2237 50 44.6403 47.5834 44.6403 44.6133V29.6036H45.3941C46.6232 29.6036 47.779 29.1248 48.6492 28.2551C50.4421 26.461 50.4428 23.5428 48.6514 21.7476Z" fill="#0E4542"/>
  </g>
  <defs>
    <clipPath id="clip0">
      <rect width="50" height="50" fill="white"/>
    </clipPath>
  </defs>
</svg>
