<svg width="64" height="64" viewBox="0 0 64 64" fill="none" xmlns="http://www.w3.org/2000/svg">
<g clip-path="url(#clip0)">
<path d="M63.4507 46.3817C62.5477 45.4787 61.5853 44.6621 60.5693 43.931C58.4048 46.4309 55.8633 48.532 52.9978 50.1861C48.5593 52.7493 43.5112 54.1176 38.3884 54.15C41.1087 55.247 44.0414 55.8225 47.0629 55.8225C53.2534 55.8225 59.0735 53.4117 63.4508 49.0344C63.8025 48.6827 64.0001 48.2059 64.0001 47.7086C64 47.2114 63.8023 46.7335 63.4507 46.3817Z" fill="#0E4542"/>
<path d="M3.43062 43.931C2.41462 44.6622 1.45225 45.4789 0.54925 46.3817C0.197625 46.7335 0 47.2114 0 47.7086C0 48.2059 0.197625 48.6827 0.54925 49.0344C4.92663 53.4117 10.7466 55.8225 16.9371 55.8225C19.9586 55.8225 22.8914 55.247 25.6116 54.15C20.4885 54.1176 15.4408 52.7493 11.0017 50.1859C8.1365 48.532 5.595 46.4309 3.43062 43.931Z" fill="#0E4542"/>
<path d="M12.8768 46.9385C15.9939 48.7385 19.6178 49.9455 23.4814 50.2953C16.8053 46.6001 13.1972 41.47 11.4988 38.5284C9.63104 35.2936 8.36867 31.7888 7.74092 28.1008C5.8758 28.1808 4.01904 28.4593 2.21254 28.9394C1.38754 29.1364 0.77417 29.879 0.77417 30.7643C0.77417 30.9283 0.79567 31.0915 0.83817 31.2499C2.75317 38.3926 7.42892 43.7936 12.8768 46.9385Z" fill="#0E4542"/>
<path d="M40.5186 50.2952C44.3821 49.9454 48.0061 48.7385 51.1232 46.9385C56.5711 43.7936 61.2468 38.3926 63.1619 31.25C63.2044 31.0916 63.2259 30.9284 63.2259 30.7644C63.2259 29.8791 62.6126 29.1365 61.7876 28.9395C59.9811 28.4594 58.1243 28.1808 56.2592 28.1009C55.6314 31.7889 54.3691 35.2937 52.5013 38.5285C50.8028 41.4701 47.1989 46.5977 40.5186 50.2952Z" fill="#0E4542"/>
<path d="M23.4127 45.8685C21.5181 42.8081 18.5757 36.9335 18.5757 28.8806C18.5757 24.7999 19.3311 20.8305 20.8188 17.0645C18.7696 15.8956 16.5723 14.9866 14.2847 14.3739C13.2842 14.1061 12.2566 14.6994 11.9884 15.6995C9.94192 23.3343 11.3853 30.8324 14.7464 36.6534C16.7871 40.1878 19.7176 43.4173 23.4127 45.8685Z" fill="#0E4542"/>
<path d="M40.5854 45.8696C44.2814 43.4183 47.2126 40.1883 49.2534 36.6534C52.6146 30.8323 54.0579 23.3343 52.0114 15.6995C51.7433 14.6994 50.7157 14.106 49.7152 14.3739C47.4272 14.9866 45.2298 15.8959 43.1803 17.065C44.6678 20.8308 45.4232 24.8 45.4232 28.8806C45.4233 36.9404 42.4757 42.8166 40.5854 45.8696Z" fill="#0E4542"/>
<path d="M33.3258 8.72662C32.9742 8.37499 32.4962 8.17737 31.9989 8.17737C31.5017 8.17737 31.0248 8.37499 30.6732 8.72662C25.7621 13.6377 22.3257 20.7272 22.3257 28.8805C22.3257 37.0375 25.7659 44.1272 30.6732 49.0344C31.0248 49.386 31.5028 49.5836 32.0001 49.5836C32.4973 49.5836 32.9742 49.386 33.3258 49.0344C38.2318 44.1285 41.6733 37.0394 41.6733 28.8805C41.6734 20.7235 38.2344 13.635 33.3258 8.72662Z" fill="#0E4542"/>
</g>
<defs>
<clipPath id="clip0">
<rect width="64" height="64" fill="white"/>
</clipPath>
</defs>
</svg>
