<svg width="639" height="590" viewBox="0 0 639 590" fill="none" xmlns="http://www.w3.org/2000/svg">
<path d="M72.7002 573.683C72.7002 574.571 72.5342 575.362 72.2021 576.056C71.8799 576.749 71.4258 577.34 70.8398 577.828C70.2637 578.307 69.5801 578.668 68.7891 578.912C68.0078 579.156 67.1631 579.278 66.2549 579.278C65.6201 579.278 65.0293 579.225 64.4824 579.117C63.9453 579.01 63.4619 578.878 63.0322 578.722C62.6123 578.565 62.2559 578.404 61.9629 578.238C61.6797 578.072 61.4795 577.931 61.3623 577.813C61.2549 577.696 61.1719 577.55 61.1133 577.374C61.0645 577.188 61.04 576.944 61.04 576.642C61.04 576.427 61.0498 576.251 61.0693 576.114C61.0889 575.968 61.1182 575.851 61.1572 575.763C61.1963 575.675 61.2451 575.616 61.3037 575.587C61.3623 575.548 61.4307 575.528 61.5088 575.528C61.6455 575.528 61.8359 575.611 62.0801 575.777C62.334 575.943 62.6562 576.124 63.0469 576.319C63.4375 576.515 63.9062 576.7 64.4531 576.876C65.0098 577.042 65.6494 577.125 66.3721 577.125C66.9189 577.125 67.417 577.052 67.8662 576.905C68.3252 576.759 68.7158 576.554 69.0381 576.29C69.3701 576.017 69.624 575.685 69.7998 575.294C69.9756 574.903 70.0635 574.459 70.0635 573.961C70.0635 573.424 69.9414 572.965 69.6973 572.584C69.4531 572.203 69.1309 571.871 68.7305 571.588C68.3301 571.295 67.8711 571.031 67.3535 570.797C66.8457 570.553 66.3232 570.309 65.7861 570.064C65.249 569.811 64.7266 569.532 64.2188 569.229C63.7109 568.927 63.2568 568.57 62.8564 568.16C62.4561 567.75 62.1289 567.271 61.875 566.725C61.6309 566.168 61.5088 565.504 61.5088 564.732C61.5088 563.941 61.6504 563.238 61.9336 562.623C62.2266 561.998 62.627 561.476 63.1348 561.056C63.6523 560.636 64.2627 560.318 64.9658 560.104C65.6787 559.879 66.4453 559.767 67.2656 559.767C67.6855 559.767 68.1055 559.806 68.5254 559.884C68.9551 559.952 69.3555 560.05 69.7266 560.177C70.1074 560.294 70.4443 560.431 70.7373 560.587C71.0303 560.733 71.2207 560.855 71.3086 560.953C71.4062 561.041 71.4697 561.114 71.499 561.173C71.5283 561.222 71.5527 561.29 71.5723 561.378C71.5918 561.456 71.6064 561.554 71.6162 561.671C71.626 561.788 71.6309 561.939 71.6309 562.125C71.6309 562.301 71.6211 562.457 71.6016 562.594C71.5918 562.73 71.5723 562.848 71.543 562.945C71.5137 563.033 71.4697 563.102 71.4111 563.15C71.3623 563.189 71.3037 563.209 71.2354 563.209C71.1279 563.209 70.957 563.141 70.7227 563.004C70.498 562.867 70.2197 562.716 69.8877 562.55C69.5557 562.374 69.1602 562.218 68.7012 562.081C68.252 561.935 67.7441 561.861 67.1777 561.861C66.6504 561.861 66.1914 561.935 65.8008 562.081C65.4102 562.218 65.0879 562.403 64.834 562.638C64.5801 562.872 64.3896 563.15 64.2627 563.473C64.1357 563.795 64.0723 564.137 64.0723 564.498C64.0723 565.025 64.1943 565.479 64.4385 565.86C64.6826 566.241 65.0049 566.578 65.4053 566.871C65.8154 567.164 66.2793 567.433 66.7969 567.677C67.3145 567.921 67.8418 568.17 68.3789 568.424C68.916 568.668 69.4434 568.941 69.9609 569.244C70.4785 569.537 70.9375 569.889 71.3379 570.299C71.748 570.699 72.0752 571.178 72.3193 571.734C72.5732 572.281 72.7002 572.931 72.7002 573.683ZM87.334 578.634C87.334 578.712 87.3145 578.78 87.2754 578.839C87.2461 578.888 87.1875 578.932 87.0996 578.971C87.0117 579.01 86.8945 579.039 86.748 579.059C86.6113 579.078 86.4404 579.088 86.2354 579.088C86.0107 579.088 85.8252 579.078 85.6787 579.059C85.542 579.039 85.4297 579.01 85.3418 578.971C85.2637 578.932 85.21 578.888 85.1807 578.839C85.1514 578.78 85.1367 578.712 85.1367 578.634V576.891C84.3848 577.721 83.6426 578.326 82.9102 578.707C82.1777 579.088 81.4355 579.278 80.6836 579.278C79.8047 579.278 79.0625 579.132 78.457 578.839C77.8613 578.546 77.3779 578.15 77.0068 577.652C76.6357 577.145 76.3672 576.559 76.2012 575.895C76.0449 575.221 75.9668 574.405 75.9668 573.448V565.45C75.9668 565.372 75.9814 565.309 76.0107 565.26C76.0498 565.201 76.1182 565.152 76.2158 565.113C76.3135 565.064 76.4404 565.035 76.5967 565.025C76.7529 565.006 76.9482 564.996 77.1826 564.996C77.417 564.996 77.6123 565.006 77.7686 565.025C77.9248 565.035 78.0469 565.064 78.1348 565.113C78.2324 565.152 78.3008 565.201 78.3398 565.26C78.3789 565.309 78.3984 565.372 78.3984 565.45V573.126C78.3984 573.897 78.4521 574.518 78.5596 574.986C78.6768 575.445 78.8477 575.841 79.0723 576.173C79.3066 576.495 79.5996 576.749 79.9512 576.935C80.3027 577.11 80.7129 577.198 81.1816 577.198C81.7871 577.198 82.3877 576.983 82.9834 576.554C83.5889 576.124 84.2285 575.494 84.9023 574.664V565.45C84.9023 565.372 84.917 565.309 84.9463 565.26C84.9854 565.201 85.0537 565.152 85.1514 565.113C85.249 565.064 85.3711 565.035 85.5176 565.025C85.6738 565.006 85.874 564.996 86.1182 564.996C86.3525 564.996 86.5479 565.006 86.7041 565.025C86.8604 565.035 86.9824 565.064 87.0703 565.113C87.1582 565.152 87.2217 565.201 87.2607 565.26C87.3096 565.309 87.334 565.372 87.334 565.45V578.634ZM103.096 578.634C103.096 578.712 103.076 578.78 103.037 578.839C103.008 578.897 102.949 578.946 102.861 578.985C102.783 579.015 102.676 579.039 102.539 579.059C102.402 579.078 102.236 579.088 102.041 579.088C101.836 579.088 101.665 579.078 101.528 579.059C101.392 579.039 101.279 579.015 101.191 578.985C101.104 578.946 101.04 578.897 101.001 578.839C100.962 578.78 100.942 578.712 100.942 578.634V576.891C100.249 577.643 99.5264 578.229 98.7744 578.648C98.0322 579.068 97.2168 579.278 96.3281 579.278C95.3613 579.278 94.5361 579.093 93.8525 578.722C93.1689 578.341 92.6123 577.833 92.1826 577.198C91.7627 576.554 91.4551 575.802 91.2598 574.942C91.0645 574.073 90.9668 573.16 90.9668 572.203C90.9668 571.07 91.0889 570.05 91.333 569.142C91.5771 568.224 91.9385 567.442 92.417 566.798C92.8955 566.153 93.4863 565.66 94.1895 565.318C94.9023 564.967 95.7227 564.791 96.6504 564.791C97.4219 564.791 98.125 564.962 98.7598 565.304C99.4043 565.636 100.039 566.129 100.664 566.783V559.122C100.664 559.054 100.679 558.99 100.708 558.932C100.747 558.863 100.815 558.814 100.913 558.785C101.011 558.746 101.133 558.717 101.279 558.697C101.436 558.668 101.631 558.653 101.865 558.653C102.109 558.653 102.31 558.668 102.466 558.697C102.622 558.717 102.744 558.746 102.832 558.785C102.92 558.814 102.983 558.863 103.022 558.932C103.071 558.99 103.096 559.054 103.096 559.122V578.634ZM100.664 569.361C100.01 568.551 99.375 567.936 98.7598 567.516C98.1543 567.086 97.5195 566.871 96.8555 566.871C96.2402 566.871 95.7178 567.018 95.2881 567.311C94.8584 567.604 94.5068 567.989 94.2334 568.468C93.9697 568.946 93.7744 569.488 93.6475 570.094C93.5303 570.699 93.4717 571.314 93.4717 571.939C93.4717 572.604 93.5205 573.253 93.6182 573.888C93.7256 574.522 93.9062 575.089 94.1602 575.587C94.4141 576.075 94.751 576.471 95.1709 576.773C95.5908 577.066 96.1182 577.213 96.7529 577.213C97.0752 577.213 97.3828 577.169 97.6758 577.081C97.9785 576.993 98.2861 576.847 98.5986 576.642C98.9111 576.437 99.2383 576.173 99.5801 575.851C99.9219 575.519 100.283 575.113 100.664 574.635V569.361ZM117.495 578.648C117.495 578.766 117.456 578.854 117.378 578.912C117.3 578.971 117.192 579.015 117.056 579.044C116.919 579.073 116.719 579.088 116.455 579.088C116.201 579.088 115.996 579.073 115.84 579.044C115.693 579.015 115.586 578.971 115.518 578.912C115.449 578.854 115.415 578.766 115.415 578.648V577.33C114.839 577.945 114.194 578.424 113.481 578.766C112.778 579.107 112.031 579.278 111.24 579.278C110.547 579.278 109.917 579.186 109.351 579C108.794 578.824 108.315 578.565 107.915 578.224C107.524 577.882 107.217 577.462 106.992 576.964C106.777 576.466 106.67 575.899 106.67 575.265C106.67 574.522 106.821 573.878 107.124 573.331C107.427 572.784 107.861 572.33 108.428 571.969C108.994 571.607 109.688 571.339 110.508 571.163C111.328 570.978 112.251 570.885 113.276 570.885H115.093V569.859C115.093 569.352 115.039 568.902 114.932 568.512C114.824 568.121 114.648 567.799 114.404 567.545C114.17 567.281 113.862 567.086 113.481 566.959C113.101 566.822 112.632 566.754 112.075 566.754C111.479 566.754 110.942 566.827 110.464 566.974C109.995 567.11 109.58 567.267 109.219 567.442C108.867 567.608 108.569 567.765 108.325 567.911C108.091 568.048 107.915 568.116 107.798 568.116C107.72 568.116 107.651 568.097 107.593 568.058C107.534 568.019 107.48 567.96 107.432 567.882C107.393 567.804 107.363 567.706 107.344 567.589C107.324 567.462 107.314 567.325 107.314 567.179C107.314 566.935 107.329 566.744 107.358 566.607C107.397 566.461 107.48 566.324 107.607 566.197C107.744 566.07 107.974 565.924 108.296 565.758C108.618 565.582 108.989 565.426 109.409 565.289C109.829 565.143 110.288 565.025 110.786 564.938C111.284 564.84 111.787 564.791 112.295 564.791C113.242 564.791 114.048 564.898 114.712 565.113C115.376 565.328 115.913 565.646 116.323 566.065C116.733 566.476 117.031 566.988 117.217 567.604C117.402 568.219 117.495 568.937 117.495 569.757V578.648ZM115.093 572.628H113.027C112.363 572.628 111.787 572.687 111.299 572.804C110.811 572.911 110.405 573.077 110.083 573.302C109.761 573.517 109.521 573.78 109.365 574.093C109.219 574.396 109.146 574.747 109.146 575.147C109.146 575.831 109.36 576.378 109.79 576.788C110.229 577.188 110.84 577.389 111.621 577.389C112.256 577.389 112.842 577.228 113.379 576.905C113.926 576.583 114.497 576.09 115.093 575.426V572.628ZM133.301 578.634C133.301 578.712 133.281 578.78 133.242 578.839C133.203 578.888 133.14 578.932 133.052 578.971C132.964 579.01 132.842 579.039 132.686 579.059C132.529 579.078 132.334 579.088 132.1 579.088C131.855 579.088 131.655 579.078 131.499 579.059C131.343 579.039 131.221 579.01 131.133 578.971C131.045 578.932 130.981 578.888 130.942 578.839C130.903 578.78 130.884 578.712 130.884 578.634V570.914C130.884 570.162 130.825 569.557 130.708 569.098C130.591 568.639 130.42 568.243 130.195 567.911C129.971 567.579 129.678 567.325 129.316 567.149C128.965 566.974 128.555 566.886 128.086 566.886C127.48 566.886 126.875 567.101 126.27 567.53C125.664 567.96 125.029 568.59 124.365 569.42V578.634C124.365 578.712 124.346 578.78 124.307 578.839C124.268 578.888 124.204 578.932 124.116 578.971C124.028 579.01 123.906 579.039 123.75 579.059C123.594 579.078 123.394 579.088 123.149 579.088C122.915 579.088 122.72 579.078 122.563 579.059C122.407 579.039 122.28 579.01 122.183 578.971C122.095 578.932 122.031 578.888 121.992 578.839C121.963 578.78 121.948 578.712 121.948 578.634V559.063C121.948 558.985 121.963 558.917 121.992 558.858C122.031 558.8 122.095 558.751 122.183 558.712C122.28 558.673 122.407 558.644 122.563 558.624C122.72 558.604 122.915 558.595 123.149 558.595C123.394 558.595 123.594 558.604 123.75 558.624C123.906 558.644 124.028 558.673 124.116 558.712C124.204 558.751 124.268 558.8 124.307 558.858C124.346 558.917 124.365 558.985 124.365 559.063V566.959C125.059 566.227 125.757 565.685 126.46 565.333C127.163 564.972 127.871 564.791 128.584 564.791C129.463 564.791 130.2 564.942 130.796 565.245C131.401 565.538 131.89 565.934 132.261 566.432C132.632 566.93 132.896 567.516 133.052 568.189C133.218 568.854 133.301 569.659 133.301 570.606V578.634ZM164.062 578.634C164.062 578.712 164.043 578.78 164.004 578.839C163.965 578.888 163.901 578.932 163.813 578.971C163.726 579.01 163.604 579.039 163.447 579.059C163.291 579.078 163.096 579.088 162.861 579.088C162.617 579.088 162.417 579.078 162.261 579.059C162.104 579.039 161.978 579.01 161.88 578.971C161.792 578.932 161.729 578.888 161.689 578.839C161.65 578.78 161.631 578.712 161.631 578.634V570.621C161.631 570.064 161.582 569.557 161.484 569.098C161.387 568.639 161.23 568.243 161.016 567.911C160.801 567.579 160.527 567.325 160.195 567.149C159.863 566.974 159.473 566.886 159.023 566.886C158.467 566.886 157.905 567.101 157.339 567.53C156.782 567.96 156.167 568.59 155.493 569.42V578.634C155.493 578.712 155.474 578.78 155.435 578.839C155.396 578.888 155.327 578.932 155.229 578.971C155.142 579.01 155.02 579.039 154.863 579.059C154.707 579.078 154.512 579.088 154.277 579.088C154.053 579.088 153.857 579.078 153.691 579.059C153.535 579.039 153.408 579.01 153.311 578.971C153.223 578.932 153.159 578.888 153.12 578.839C153.091 578.78 153.076 578.712 153.076 578.634V570.621C153.076 570.064 153.022 569.557 152.915 569.098C152.808 568.639 152.646 568.243 152.432 567.911C152.217 567.579 151.943 567.325 151.611 567.149C151.289 566.974 150.903 566.886 150.454 566.886C149.897 566.886 149.336 567.101 148.77 567.53C148.203 567.96 147.588 568.59 146.924 569.42V578.634C146.924 578.712 146.904 578.78 146.865 578.839C146.826 578.888 146.763 578.932 146.675 578.971C146.587 579.01 146.465 579.039 146.309 579.059C146.152 579.078 145.952 579.088 145.708 579.088C145.474 579.088 145.278 579.078 145.122 579.059C144.966 579.039 144.839 579.01 144.741 578.971C144.653 578.932 144.59 578.888 144.551 578.839C144.521 578.78 144.507 578.712 144.507 578.634V565.45C144.507 565.372 144.521 565.309 144.551 565.26C144.58 565.201 144.639 565.152 144.727 565.113C144.814 565.064 144.927 565.035 145.063 565.025C145.2 565.006 145.381 564.996 145.605 564.996C145.82 564.996 145.996 565.006 146.133 565.025C146.279 565.035 146.392 565.064 146.47 565.113C146.548 565.152 146.602 565.201 146.631 565.26C146.67 565.309 146.689 565.372 146.689 565.45V567.193C147.432 566.363 148.149 565.758 148.843 565.377C149.546 564.986 150.254 564.791 150.967 564.791C151.514 564.791 152.002 564.854 152.432 564.981C152.871 565.108 153.257 565.289 153.589 565.523C153.921 565.748 154.204 566.021 154.438 566.344C154.673 566.656 154.868 567.008 155.024 567.398C155.464 566.92 155.879 566.515 156.27 566.183C156.67 565.851 157.051 565.582 157.412 565.377C157.783 565.172 158.14 565.025 158.481 564.938C158.833 564.84 159.185 564.791 159.536 564.791C160.386 564.791 161.099 564.942 161.675 565.245C162.251 565.538 162.715 565.934 163.066 566.432C163.428 566.93 163.682 567.516 163.828 568.189C163.984 568.854 164.062 569.557 164.062 570.299V578.634ZM179.722 571.471C179.722 571.852 179.624 572.125 179.429 572.291C179.243 572.447 179.028 572.525 178.784 572.525H170.142C170.142 573.258 170.215 573.917 170.361 574.503C170.508 575.089 170.752 575.592 171.094 576.012C171.436 576.432 171.88 576.754 172.427 576.979C172.974 577.203 173.643 577.315 174.434 577.315C175.059 577.315 175.615 577.267 176.104 577.169C176.592 577.062 177.012 576.944 177.363 576.817C177.725 576.69 178.018 576.578 178.242 576.48C178.477 576.373 178.652 576.319 178.77 576.319C178.838 576.319 178.896 576.339 178.945 576.378C179.004 576.407 179.048 576.456 179.077 576.524C179.106 576.593 179.126 576.69 179.136 576.817C179.155 576.935 179.165 577.081 179.165 577.257C179.165 577.384 179.16 577.496 179.15 577.594C179.141 577.682 179.126 577.765 179.106 577.843C179.097 577.911 179.072 577.975 179.033 578.033C179.004 578.092 178.96 578.15 178.901 578.209C178.853 578.258 178.696 578.346 178.433 578.473C178.169 578.59 177.827 578.707 177.407 578.824C176.987 578.941 176.499 579.044 175.942 579.132C175.396 579.229 174.81 579.278 174.185 579.278C173.101 579.278 172.148 579.127 171.328 578.824C170.518 578.521 169.834 578.072 169.277 577.477C168.721 576.881 168.301 576.134 168.018 575.235C167.734 574.337 167.593 573.292 167.593 572.101C167.593 570.968 167.739 569.952 168.032 569.054C168.325 568.146 168.745 567.379 169.292 566.754C169.849 566.119 170.518 565.636 171.299 565.304C172.08 564.962 172.954 564.791 173.921 564.791C174.956 564.791 175.835 564.957 176.558 565.289C177.29 565.621 177.891 566.07 178.359 566.637C178.828 567.193 179.17 567.853 179.385 568.614C179.609 569.366 179.722 570.172 179.722 571.031V571.471ZM177.29 570.753C177.319 569.483 177.036 568.487 176.44 567.765C175.854 567.042 174.98 566.681 173.818 566.681C173.223 566.681 172.7 566.793 172.251 567.018C171.802 567.242 171.426 567.54 171.123 567.911C170.82 568.282 170.586 568.717 170.42 569.215C170.254 569.703 170.161 570.216 170.142 570.753H177.29ZM194.766 578.634C194.766 578.712 194.746 578.78 194.707 578.839C194.668 578.888 194.604 578.932 194.517 578.971C194.429 579.01 194.307 579.039 194.15 579.059C193.994 579.078 193.799 579.088 193.564 579.088C193.32 579.088 193.12 579.078 192.964 579.059C192.808 579.039 192.686 579.01 192.598 578.971C192.51 578.932 192.446 578.888 192.407 578.839C192.368 578.78 192.349 578.712 192.349 578.634V570.914C192.349 570.162 192.29 569.557 192.173 569.098C192.056 568.639 191.885 568.243 191.66 567.911C191.436 567.579 191.143 567.325 190.781 567.149C190.43 566.974 190.02 566.886 189.551 566.886C188.945 566.886 188.34 567.101 187.734 567.53C187.129 567.96 186.494 568.59 185.83 569.42V578.634C185.83 578.712 185.811 578.78 185.771 578.839C185.732 578.888 185.669 578.932 185.581 578.971C185.493 579.01 185.371 579.039 185.215 579.059C185.059 579.078 184.858 579.088 184.614 579.088C184.38 579.088 184.185 579.078 184.028 579.059C183.872 579.039 183.745 579.01 183.647 578.971C183.56 578.932 183.496 578.888 183.457 578.839C183.428 578.78 183.413 578.712 183.413 578.634V565.45C183.413 565.372 183.428 565.309 183.457 565.26C183.486 565.201 183.545 565.152 183.633 565.113C183.721 565.064 183.833 565.035 183.97 565.025C184.106 565.006 184.287 564.996 184.512 564.996C184.727 564.996 184.902 565.006 185.039 565.025C185.186 565.035 185.298 565.064 185.376 565.113C185.454 565.152 185.508 565.201 185.537 565.26C185.576 565.309 185.596 565.372 185.596 565.45V567.193C186.338 566.363 187.075 565.758 187.808 565.377C188.55 564.986 189.297 564.791 190.049 564.791C190.928 564.791 191.665 564.942 192.261 565.245C192.866 565.538 193.354 565.934 193.726 566.432C194.097 566.93 194.36 567.516 194.517 568.189C194.683 568.854 194.766 569.654 194.766 570.592V578.634ZM204.624 579L202.866 583.849C202.808 584.005 202.656 584.122 202.412 584.2C202.178 584.288 201.816 584.332 201.328 584.332C201.074 584.332 200.869 584.317 200.713 584.288C200.557 584.269 200.435 584.229 200.347 584.171C200.269 584.112 200.225 584.034 200.215 583.937C200.205 583.839 200.229 583.722 200.288 583.585L202.104 579C202.017 578.961 201.934 578.897 201.855 578.81C201.777 578.722 201.724 578.629 201.694 578.531L196.992 565.934C196.914 565.729 196.875 565.567 196.875 565.45C196.875 565.333 196.914 565.24 196.992 565.172C197.07 565.104 197.197 565.06 197.373 565.04C197.549 565.011 197.783 564.996 198.076 564.996C198.369 564.996 198.599 565.006 198.765 565.025C198.931 565.035 199.062 565.06 199.16 565.099C199.258 565.138 199.326 565.196 199.365 565.274C199.414 565.343 199.463 565.44 199.512 565.567L203.276 576.144H203.32L206.953 565.509C207.012 565.323 207.08 565.206 207.158 565.157C207.246 565.099 207.373 565.06 207.539 565.04C207.705 565.011 207.944 564.996 208.257 564.996C208.53 564.996 208.755 565.011 208.931 565.04C209.106 565.06 209.233 565.104 209.312 565.172C209.399 565.24 209.443 565.333 209.443 565.45C209.443 565.567 209.414 565.714 209.355 565.89L204.624 579ZM223.081 571.471C223.081 571.852 222.983 572.125 222.788 572.291C222.603 572.447 222.388 572.525 222.144 572.525H213.501C213.501 573.258 213.574 573.917 213.721 574.503C213.867 575.089 214.111 575.592 214.453 576.012C214.795 576.432 215.239 576.754 215.786 576.979C216.333 577.203 217.002 577.315 217.793 577.315C218.418 577.315 218.975 577.267 219.463 577.169C219.951 577.062 220.371 576.944 220.723 576.817C221.084 576.69 221.377 576.578 221.602 576.48C221.836 576.373 222.012 576.319 222.129 576.319C222.197 576.319 222.256 576.339 222.305 576.378C222.363 576.407 222.407 576.456 222.437 576.524C222.466 576.593 222.485 576.69 222.495 576.817C222.515 576.935 222.524 577.081 222.524 577.257C222.524 577.384 222.52 577.496 222.51 577.594C222.5 577.682 222.485 577.765 222.466 577.843C222.456 577.911 222.432 577.975 222.393 578.033C222.363 578.092 222.319 578.15 222.261 578.209C222.212 578.258 222.056 578.346 221.792 578.473C221.528 578.59 221.187 578.707 220.767 578.824C220.347 578.941 219.858 579.044 219.302 579.132C218.755 579.229 218.169 579.278 217.544 579.278C216.46 579.278 215.508 579.127 214.688 578.824C213.877 578.521 213.193 578.072 212.637 577.477C212.08 576.881 211.66 576.134 211.377 575.235C211.094 574.337 210.952 573.292 210.952 572.101C210.952 570.968 211.099 569.952 211.392 569.054C211.685 568.146 212.104 567.379 212.651 566.754C213.208 566.119 213.877 565.636 214.658 565.304C215.439 564.962 216.313 564.791 217.28 564.791C218.315 564.791 219.194 564.957 219.917 565.289C220.649 565.621 221.25 566.07 221.719 566.637C222.188 567.193 222.529 567.853 222.744 568.614C222.969 569.366 223.081 570.172 223.081 571.031V571.471ZM220.649 570.753C220.679 569.483 220.396 568.487 219.8 567.765C219.214 567.042 218.34 566.681 217.178 566.681C216.582 566.681 216.06 566.793 215.61 567.018C215.161 567.242 214.785 567.54 214.482 567.911C214.18 568.282 213.945 568.717 213.779 569.215C213.613 569.703 213.521 570.216 213.501 570.753H220.649ZM229.189 578.634C229.189 578.712 229.17 578.78 229.131 578.839C229.092 578.888 229.028 578.932 228.94 578.971C228.853 579.01 228.73 579.039 228.574 579.059C228.418 579.078 228.218 579.088 227.974 579.088C227.739 579.088 227.544 579.078 227.388 579.059C227.231 579.039 227.104 579.01 227.007 578.971C226.919 578.932 226.855 578.888 226.816 578.839C226.787 578.78 226.772 578.712 226.772 578.634V559.063C226.772 558.985 226.787 558.917 226.816 558.858C226.855 558.8 226.919 558.751 227.007 558.712C227.104 558.673 227.231 558.644 227.388 558.624C227.544 558.604 227.739 558.595 227.974 558.595C228.218 558.595 228.418 558.604 228.574 558.624C228.73 558.644 228.853 558.673 228.94 558.712C229.028 558.751 229.092 558.8 229.131 558.858C229.17 558.917 229.189 558.985 229.189 559.063V578.634ZM244.907 571.471C244.907 571.852 244.81 572.125 244.614 572.291C244.429 572.447 244.214 572.525 243.97 572.525H235.327C235.327 573.258 235.4 573.917 235.547 574.503C235.693 575.089 235.938 575.592 236.279 576.012C236.621 576.432 237.065 576.754 237.612 576.979C238.159 577.203 238.828 577.315 239.619 577.315C240.244 577.315 240.801 577.267 241.289 577.169C241.777 577.062 242.197 576.944 242.549 576.817C242.91 576.69 243.203 576.578 243.428 576.48C243.662 576.373 243.838 576.319 243.955 576.319C244.023 576.319 244.082 576.339 244.131 576.378C244.189 576.407 244.233 576.456 244.263 576.524C244.292 576.593 244.312 576.69 244.321 576.817C244.341 576.935 244.351 577.081 244.351 577.257C244.351 577.384 244.346 577.496 244.336 577.594C244.326 577.682 244.312 577.765 244.292 577.843C244.282 577.911 244.258 577.975 244.219 578.033C244.189 578.092 244.146 578.15 244.087 578.209C244.038 578.258 243.882 578.346 243.618 578.473C243.354 578.59 243.013 578.707 242.593 578.824C242.173 578.941 241.685 579.044 241.128 579.132C240.581 579.229 239.995 579.278 239.37 579.278C238.286 579.278 237.334 579.127 236.514 578.824C235.703 578.521 235.02 578.072 234.463 577.477C233.906 576.881 233.486 576.134 233.203 575.235C232.92 574.337 232.778 573.292 232.778 572.101C232.778 570.968 232.925 569.952 233.218 569.054C233.511 568.146 233.931 567.379 234.478 566.754C235.034 566.119 235.703 565.636 236.484 565.304C237.266 564.962 238.14 564.791 239.106 564.791C240.142 564.791 241.021 564.957 241.743 565.289C242.476 565.621 243.076 566.07 243.545 566.637C244.014 567.193 244.355 567.853 244.57 568.614C244.795 569.366 244.907 570.172 244.907 571.031V571.471ZM242.476 570.753C242.505 569.483 242.222 568.487 241.626 567.765C241.04 567.042 240.166 566.681 239.004 566.681C238.408 566.681 237.886 566.793 237.437 567.018C236.987 567.242 236.611 567.54 236.309 567.911C236.006 568.282 235.771 568.717 235.605 569.215C235.439 569.703 235.347 570.216 235.327 570.753H242.476ZM256.875 575.045C256.875 575.719 256.748 576.319 256.494 576.847C256.25 577.374 255.898 577.818 255.439 578.18C254.98 578.541 254.434 578.814 253.799 579C253.164 579.186 252.466 579.278 251.704 579.278C251.235 579.278 250.786 579.239 250.356 579.161C249.937 579.093 249.556 579.005 249.214 578.897C248.882 578.78 248.599 578.663 248.364 578.546C248.13 578.419 247.959 578.307 247.852 578.209C247.744 578.111 247.666 577.975 247.617 577.799C247.568 577.623 247.544 577.384 247.544 577.081C247.544 576.896 247.554 576.739 247.573 576.612C247.593 576.485 247.617 576.383 247.646 576.305C247.676 576.227 247.715 576.173 247.764 576.144C247.822 576.104 247.886 576.085 247.954 576.085C248.062 576.085 248.218 576.153 248.423 576.29C248.638 576.417 248.896 576.559 249.199 576.715C249.512 576.871 249.878 577.018 250.298 577.154C250.718 577.281 251.201 577.345 251.748 577.345C252.158 577.345 252.529 577.301 252.861 577.213C253.193 577.125 253.481 576.998 253.726 576.832C253.97 576.656 254.155 576.437 254.282 576.173C254.419 575.909 254.487 575.597 254.487 575.235C254.487 574.864 254.39 574.552 254.194 574.298C254.009 574.044 253.76 573.819 253.447 573.624C253.135 573.429 252.783 573.258 252.393 573.111C252.002 572.955 251.597 572.794 251.177 572.628C250.767 572.462 250.361 572.276 249.961 572.071C249.57 571.856 249.219 571.598 248.906 571.295C248.594 570.992 248.34 570.631 248.145 570.211C247.959 569.791 247.866 569.288 247.866 568.702C247.866 568.185 247.964 567.691 248.159 567.223C248.364 566.744 248.667 566.329 249.067 565.978C249.468 565.616 249.966 565.328 250.562 565.113C251.167 564.898 251.87 564.791 252.671 564.791C253.022 564.791 253.374 564.82 253.726 564.879C254.077 564.938 254.395 565.011 254.678 565.099C254.961 565.187 255.2 565.284 255.396 565.392C255.601 565.489 255.752 565.577 255.85 565.655C255.957 565.733 256.025 565.802 256.055 565.86C256.094 565.919 256.118 565.987 256.128 566.065C256.147 566.134 256.162 566.222 256.172 566.329C256.191 566.437 256.201 566.568 256.201 566.725C256.201 566.891 256.191 567.037 256.172 567.164C256.162 567.281 256.138 567.379 256.099 567.457C256.069 567.535 256.03 567.594 255.981 567.633C255.933 567.662 255.879 567.677 255.82 567.677C255.732 567.677 255.605 567.623 255.439 567.516C255.273 567.408 255.059 567.296 254.795 567.179C254.531 567.052 254.219 566.935 253.857 566.827C253.506 566.72 253.101 566.666 252.642 566.666C252.231 566.666 251.87 566.715 251.558 566.812C251.245 566.9 250.986 567.032 250.781 567.208C250.586 567.374 250.435 567.574 250.327 567.809C250.229 568.043 250.181 568.297 250.181 568.57C250.181 568.951 250.278 569.273 250.474 569.537C250.669 569.791 250.923 570.016 251.235 570.211C251.548 570.406 251.904 570.582 252.305 570.738C252.705 570.895 253.11 571.056 253.521 571.222C253.94 571.388 254.351 571.573 254.751 571.778C255.161 571.983 255.522 572.232 255.835 572.525C256.147 572.818 256.396 573.17 256.582 573.58C256.777 573.99 256.875 574.479 256.875 575.045ZM270.278 578.648C270.278 578.766 270.239 578.854 270.161 578.912C270.083 578.971 269.976 579.015 269.839 579.044C269.702 579.073 269.502 579.088 269.238 579.088C268.984 579.088 268.779 579.073 268.623 579.044C268.477 579.015 268.369 578.971 268.301 578.912C268.232 578.854 268.198 578.766 268.198 578.648V577.33C267.622 577.945 266.978 578.424 266.265 578.766C265.562 579.107 264.814 579.278 264.023 579.278C263.33 579.278 262.7 579.186 262.134 579C261.577 578.824 261.099 578.565 260.698 578.224C260.308 577.882 260 577.462 259.775 576.964C259.561 576.466 259.453 575.899 259.453 575.265C259.453 574.522 259.604 573.878 259.907 573.331C260.21 572.784 260.645 572.33 261.211 571.969C261.777 571.607 262.471 571.339 263.291 571.163C264.111 570.978 265.034 570.885 266.06 570.885H267.876V569.859C267.876 569.352 267.822 568.902 267.715 568.512C267.607 568.121 267.432 567.799 267.188 567.545C266.953 567.281 266.646 567.086 266.265 566.959C265.884 566.822 265.415 566.754 264.858 566.754C264.263 566.754 263.726 566.827 263.247 566.974C262.778 567.11 262.363 567.267 262.002 567.442C261.65 567.608 261.353 567.765 261.108 567.911C260.874 568.048 260.698 568.116 260.581 568.116C260.503 568.116 260.435 568.097 260.376 568.058C260.317 568.019 260.264 567.96 260.215 567.882C260.176 567.804 260.146 567.706 260.127 567.589C260.107 567.462 260.098 567.325 260.098 567.179C260.098 566.935 260.112 566.744 260.142 566.607C260.181 566.461 260.264 566.324 260.391 566.197C260.527 566.07 260.757 565.924 261.079 565.758C261.401 565.582 261.772 565.426 262.192 565.289C262.612 565.143 263.071 565.025 263.569 564.938C264.067 564.84 264.57 564.791 265.078 564.791C266.025 564.791 266.831 564.898 267.495 565.113C268.159 565.328 268.696 565.646 269.106 566.065C269.517 566.476 269.814 566.988 270 567.604C270.186 568.219 270.278 568.937 270.278 569.757V578.648ZM267.876 572.628H265.811C265.146 572.628 264.57 572.687 264.082 572.804C263.594 572.911 263.188 573.077 262.866 573.302C262.544 573.517 262.305 573.78 262.148 574.093C262.002 574.396 261.929 574.747 261.929 575.147C261.929 575.831 262.144 576.378 262.573 576.788C263.013 577.188 263.623 577.389 264.404 577.389C265.039 577.389 265.625 577.228 266.162 576.905C266.709 576.583 267.28 576.09 267.876 575.426V572.628ZM277.148 578.634C277.148 578.712 277.129 578.78 277.09 578.839C277.051 578.888 276.987 578.932 276.899 578.971C276.812 579.01 276.689 579.039 276.533 579.059C276.377 579.078 276.177 579.088 275.933 579.088C275.698 579.088 275.503 579.078 275.347 579.059C275.19 579.039 275.063 579.01 274.966 578.971C274.878 578.932 274.814 578.888 274.775 578.839C274.746 578.78 274.731 578.712 274.731 578.634V565.45C274.731 565.382 274.746 565.318 274.775 565.26C274.814 565.201 274.878 565.152 274.966 565.113C275.063 565.074 275.19 565.045 275.347 565.025C275.503 565.006 275.698 564.996 275.933 564.996C276.177 564.996 276.377 565.006 276.533 565.025C276.689 565.045 276.812 565.074 276.899 565.113C276.987 565.152 277.051 565.201 277.09 565.26C277.129 565.318 277.148 565.382 277.148 565.45V578.634ZM277.427 560.997C277.427 561.563 277.319 561.949 277.104 562.154C276.89 562.359 276.494 562.462 275.918 562.462C275.352 562.462 274.961 562.364 274.746 562.169C274.541 561.964 274.438 561.583 274.438 561.026C274.438 560.46 274.546 560.074 274.761 559.869C274.976 559.664 275.371 559.562 275.947 559.562C276.514 559.562 276.899 559.664 277.104 559.869C277.319 560.064 277.427 560.44 277.427 560.997ZM292.441 578.619C292.441 578.697 292.422 578.766 292.383 578.824C292.344 578.883 292.275 578.932 292.178 578.971C292.09 579.01 291.963 579.039 291.797 579.059C291.631 579.078 291.421 579.088 291.167 579.088C290.903 579.088 290.684 579.078 290.508 579.059C290.342 579.049 290.2 579.029 290.083 579C289.966 578.961 289.868 578.912 289.79 578.854C289.722 578.785 289.658 578.707 289.6 578.619L284.033 571.324V578.634C284.033 578.712 284.014 578.78 283.975 578.839C283.936 578.888 283.872 578.932 283.784 578.971C283.696 579.01 283.574 579.039 283.418 579.059C283.262 579.078 283.062 579.088 282.817 579.088C282.583 579.088 282.388 579.078 282.231 579.059C282.075 579.039 281.948 579.01 281.851 578.971C281.763 578.932 281.699 578.888 281.66 578.839C281.631 578.78 281.616 578.712 281.616 578.634V559.063C281.616 558.985 281.631 558.917 281.66 558.858C281.699 558.8 281.763 558.751 281.851 558.712C281.948 558.673 282.075 558.644 282.231 558.624C282.388 558.604 282.583 558.595 282.817 558.595C283.062 558.595 283.262 558.604 283.418 558.624C283.574 558.644 283.696 558.673 283.784 558.712C283.872 558.751 283.936 558.8 283.975 558.858C284.014 558.917 284.033 558.985 284.033 559.063V570.987L289.014 565.509C289.092 565.411 289.175 565.333 289.263 565.274C289.351 565.206 289.453 565.152 289.57 565.113C289.697 565.064 289.844 565.035 290.01 565.025C290.176 565.006 290.376 564.996 290.61 564.996C290.854 564.996 291.06 565.006 291.226 565.025C291.392 565.035 291.523 565.06 291.621 565.099C291.729 565.128 291.802 565.172 291.841 565.23C291.89 565.279 291.914 565.348 291.914 565.436C291.914 565.553 291.88 565.67 291.812 565.787C291.753 565.904 291.65 566.041 291.504 566.197L286.729 570.973L292.09 577.931C292.217 578.097 292.305 578.233 292.354 578.341C292.412 578.438 292.441 578.531 292.441 578.619ZM304.673 578.648C304.673 578.766 304.634 578.854 304.556 578.912C304.478 578.971 304.37 579.015 304.233 579.044C304.097 579.073 303.896 579.088 303.633 579.088C303.379 579.088 303.174 579.073 303.018 579.044C302.871 579.015 302.764 578.971 302.695 578.912C302.627 578.854 302.593 578.766 302.593 578.648V577.33C302.017 577.945 301.372 578.424 300.659 578.766C299.956 579.107 299.209 579.278 298.418 579.278C297.725 579.278 297.095 579.186 296.528 579C295.972 578.824 295.493 578.565 295.093 578.224C294.702 577.882 294.395 577.462 294.17 576.964C293.955 576.466 293.848 575.899 293.848 575.265C293.848 574.522 293.999 573.878 294.302 573.331C294.604 572.784 295.039 572.33 295.605 571.969C296.172 571.607 296.865 571.339 297.686 571.163C298.506 570.978 299.429 570.885 300.454 570.885H302.271V569.859C302.271 569.352 302.217 568.902 302.109 568.512C302.002 568.121 301.826 567.799 301.582 567.545C301.348 567.281 301.04 567.086 300.659 566.959C300.278 566.822 299.81 566.754 299.253 566.754C298.657 566.754 298.12 566.827 297.642 566.974C297.173 567.11 296.758 567.267 296.396 567.442C296.045 567.608 295.747 567.765 295.503 567.911C295.269 568.048 295.093 568.116 294.976 568.116C294.897 568.116 294.829 568.097 294.771 568.058C294.712 568.019 294.658 567.96 294.609 567.882C294.57 567.804 294.541 567.706 294.521 567.589C294.502 567.462 294.492 567.325 294.492 567.179C294.492 566.935 294.507 566.744 294.536 566.607C294.575 566.461 294.658 566.324 294.785 566.197C294.922 566.07 295.151 565.924 295.474 565.758C295.796 565.582 296.167 565.426 296.587 565.289C297.007 565.143 297.466 565.025 297.964 564.938C298.462 564.84 298.965 564.791 299.473 564.791C300.42 564.791 301.226 564.898 301.89 565.113C302.554 565.328 303.091 565.646 303.501 566.065C303.911 566.476 304.209 566.988 304.395 567.604C304.58 568.219 304.673 568.937 304.673 569.757V578.648ZM302.271 572.628H300.205C299.541 572.628 298.965 572.687 298.477 572.804C297.988 572.911 297.583 573.077 297.261 573.302C296.938 573.517 296.699 573.78 296.543 574.093C296.396 574.396 296.323 574.747 296.323 575.147C296.323 575.831 296.538 576.378 296.968 576.788C297.407 577.188 298.018 577.389 298.799 577.389C299.434 577.389 300.02 577.228 300.557 576.905C301.104 576.583 301.675 576.09 302.271 575.426V572.628ZM320.479 578.634C320.479 578.712 320.459 578.78 320.42 578.839C320.381 578.888 320.317 578.932 320.229 578.971C320.142 579.01 320.02 579.039 319.863 579.059C319.707 579.078 319.512 579.088 319.277 579.088C319.033 579.088 318.833 579.078 318.677 579.059C318.521 579.039 318.398 579.01 318.311 578.971C318.223 578.932 318.159 578.888 318.12 578.839C318.081 578.78 318.062 578.712 318.062 578.634V570.914C318.062 570.162 318.003 569.557 317.886 569.098C317.769 568.639 317.598 568.243 317.373 567.911C317.148 567.579 316.855 567.325 316.494 567.149C316.143 566.974 315.732 566.886 315.264 566.886C314.658 566.886 314.053 567.101 313.447 567.53C312.842 567.96 312.207 568.59 311.543 569.42V578.634C311.543 578.712 311.523 578.78 311.484 578.839C311.445 578.888 311.382 578.932 311.294 578.971C311.206 579.01 311.084 579.039 310.928 579.059C310.771 579.078 310.571 579.088 310.327 579.088C310.093 579.088 309.897 579.078 309.741 579.059C309.585 579.039 309.458 579.01 309.36 578.971C309.272 578.932 309.209 578.888 309.17 578.839C309.141 578.78 309.126 578.712 309.126 578.634V565.45C309.126 565.372 309.141 565.309 309.17 565.26C309.199 565.201 309.258 565.152 309.346 565.113C309.434 565.064 309.546 565.035 309.683 565.025C309.819 565.006 310 564.996 310.225 564.996C310.439 564.996 310.615 565.006 310.752 565.025C310.898 565.035 311.011 565.064 311.089 565.113C311.167 565.152 311.221 565.201 311.25 565.26C311.289 565.309 311.309 565.372 311.309 565.45V567.193C312.051 566.363 312.788 565.758 313.521 565.377C314.263 564.986 315.01 564.791 315.762 564.791C316.641 564.791 317.378 564.942 317.974 565.245C318.579 565.538 319.067 565.934 319.438 566.432C319.81 566.93 320.073 567.516 320.229 568.189C320.396 568.854 320.479 569.654 320.479 570.592V578.634ZM342.51 578.619C342.51 578.697 342.49 578.766 342.451 578.824C342.412 578.883 342.344 578.932 342.246 578.971C342.158 579.01 342.031 579.039 341.865 579.059C341.699 579.078 341.489 579.088 341.235 579.088C340.972 579.088 340.752 579.078 340.576 579.059C340.41 579.049 340.269 579.029 340.151 579C340.034 578.961 339.937 578.912 339.858 578.854C339.79 578.785 339.727 578.707 339.668 578.619L334.102 571.324V578.634C334.102 578.712 334.082 578.78 334.043 578.839C334.004 578.888 333.94 578.932 333.853 578.971C333.765 579.01 333.643 579.039 333.486 579.059C333.33 579.078 333.13 579.088 332.886 579.088C332.651 579.088 332.456 579.078 332.3 579.059C332.144 579.039 332.017 579.01 331.919 578.971C331.831 578.932 331.768 578.888 331.729 578.839C331.699 578.78 331.685 578.712 331.685 578.634V559.063C331.685 558.985 331.699 558.917 331.729 558.858C331.768 558.8 331.831 558.751 331.919 558.712C332.017 558.673 332.144 558.644 332.3 558.624C332.456 558.604 332.651 558.595 332.886 558.595C333.13 558.595 333.33 558.604 333.486 558.624C333.643 558.644 333.765 558.673 333.853 558.712C333.94 558.751 334.004 558.8 334.043 558.858C334.082 558.917 334.102 558.985 334.102 559.063V570.987L339.082 565.509C339.16 565.411 339.243 565.333 339.331 565.274C339.419 565.206 339.521 565.152 339.639 565.113C339.766 565.064 339.912 565.035 340.078 565.025C340.244 565.006 340.444 564.996 340.679 564.996C340.923 564.996 341.128 565.006 341.294 565.025C341.46 565.035 341.592 565.06 341.689 565.099C341.797 565.128 341.87 565.172 341.909 565.23C341.958 565.279 341.982 565.348 341.982 565.436C341.982 565.553 341.948 565.67 341.88 565.787C341.821 565.904 341.719 566.041 341.572 566.197L336.797 570.973L342.158 577.931C342.285 578.097 342.373 578.233 342.422 578.341C342.48 578.438 342.51 578.531 342.51 578.619ZM356.25 578.634C356.25 578.712 356.23 578.78 356.191 578.839C356.162 578.888 356.104 578.932 356.016 578.971C355.928 579.01 355.811 579.039 355.664 579.059C355.527 579.078 355.356 579.088 355.151 579.088C354.927 579.088 354.741 579.078 354.595 579.059C354.458 579.039 354.346 579.01 354.258 578.971C354.18 578.932 354.126 578.888 354.097 578.839C354.067 578.78 354.053 578.712 354.053 578.634V576.891C353.301 577.721 352.559 578.326 351.826 578.707C351.094 579.088 350.352 579.278 349.6 579.278C348.721 579.278 347.979 579.132 347.373 578.839C346.777 578.546 346.294 578.15 345.923 577.652C345.552 577.145 345.283 576.559 345.117 575.895C344.961 575.221 344.883 574.405 344.883 573.448V565.45C344.883 565.372 344.897 565.309 344.927 565.26C344.966 565.201 345.034 565.152 345.132 565.113C345.229 565.064 345.356 565.035 345.513 565.025C345.669 565.006 345.864 564.996 346.099 564.996C346.333 564.996 346.528 565.006 346.685 565.025C346.841 565.035 346.963 565.064 347.051 565.113C347.148 565.152 347.217 565.201 347.256 565.26C347.295 565.309 347.314 565.372 347.314 565.45V573.126C347.314 573.897 347.368 574.518 347.476 574.986C347.593 575.445 347.764 575.841 347.988 576.173C348.223 576.495 348.516 576.749 348.867 576.935C349.219 577.11 349.629 577.198 350.098 577.198C350.703 577.198 351.304 576.983 351.899 576.554C352.505 576.124 353.145 575.494 353.818 574.664V565.45C353.818 565.372 353.833 565.309 353.862 565.26C353.901 565.201 353.97 565.152 354.067 565.113C354.165 565.064 354.287 565.035 354.434 565.025C354.59 565.006 354.79 564.996 355.034 564.996C355.269 564.996 355.464 565.006 355.62 565.025C355.776 565.035 355.898 565.064 355.986 565.113C356.074 565.152 356.138 565.201 356.177 565.26C356.226 565.309 356.25 565.372 356.25 565.45V578.634ZM363.135 578.634C363.135 578.712 363.115 578.78 363.076 578.839C363.037 578.888 362.974 578.932 362.886 578.971C362.798 579.01 362.676 579.039 362.52 579.059C362.363 579.078 362.163 579.088 361.919 579.088C361.685 579.088 361.489 579.078 361.333 579.059C361.177 579.039 361.05 579.01 360.952 578.971C360.864 578.932 360.801 578.888 360.762 578.839C360.732 578.78 360.718 578.712 360.718 578.634V565.45C360.718 565.382 360.732 565.318 360.762 565.26C360.801 565.201 360.864 565.152 360.952 565.113C361.05 565.074 361.177 565.045 361.333 565.025C361.489 565.006 361.685 564.996 361.919 564.996C362.163 564.996 362.363 565.006 362.52 565.025C362.676 565.045 362.798 565.074 362.886 565.113C362.974 565.152 363.037 565.201 363.076 565.26C363.115 565.318 363.135 565.382 363.135 565.45V578.634ZM363.413 560.997C363.413 561.563 363.306 561.949 363.091 562.154C362.876 562.359 362.48 562.462 361.904 562.462C361.338 562.462 360.947 562.364 360.732 562.169C360.527 561.964 360.425 561.583 360.425 561.026C360.425 560.46 360.532 560.074 360.747 559.869C360.962 559.664 361.357 559.562 361.934 559.562C362.5 559.562 362.886 559.664 363.091 559.869C363.306 560.064 363.413 560.44 363.413 560.997ZM375.879 575.045C375.879 575.719 375.752 576.319 375.498 576.847C375.254 577.374 374.902 577.818 374.443 578.18C373.984 578.541 373.438 578.814 372.803 579C372.168 579.186 371.47 579.278 370.708 579.278C370.239 579.278 369.79 579.239 369.36 579.161C368.94 579.093 368.56 579.005 368.218 578.897C367.886 578.78 367.603 578.663 367.368 578.546C367.134 578.419 366.963 578.307 366.855 578.209C366.748 578.111 366.67 577.975 366.621 577.799C366.572 577.623 366.548 577.384 366.548 577.081C366.548 576.896 366.558 576.739 366.577 576.612C366.597 576.485 366.621 576.383 366.65 576.305C366.68 576.227 366.719 576.173 366.768 576.144C366.826 576.104 366.89 576.085 366.958 576.085C367.065 576.085 367.222 576.153 367.427 576.29C367.642 576.417 367.9 576.559 368.203 576.715C368.516 576.871 368.882 577.018 369.302 577.154C369.722 577.281 370.205 577.345 370.752 577.345C371.162 577.345 371.533 577.301 371.865 577.213C372.197 577.125 372.485 576.998 372.729 576.832C372.974 576.656 373.159 576.437 373.286 576.173C373.423 575.909 373.491 575.597 373.491 575.235C373.491 574.864 373.394 574.552 373.198 574.298C373.013 574.044 372.764 573.819 372.451 573.624C372.139 573.429 371.787 573.258 371.396 573.111C371.006 572.955 370.601 572.794 370.181 572.628C369.771 572.462 369.365 572.276 368.965 572.071C368.574 571.856 368.223 571.598 367.91 571.295C367.598 570.992 367.344 570.631 367.148 570.211C366.963 569.791 366.87 569.288 366.87 568.702C366.87 568.185 366.968 567.691 367.163 567.223C367.368 566.744 367.671 566.329 368.071 565.978C368.472 565.616 368.97 565.328 369.565 565.113C370.171 564.898 370.874 564.791 371.675 564.791C372.026 564.791 372.378 564.82 372.729 564.879C373.081 564.938 373.398 565.011 373.682 565.099C373.965 565.187 374.204 565.284 374.399 565.392C374.604 565.489 374.756 565.577 374.854 565.655C374.961 565.733 375.029 565.802 375.059 565.86C375.098 565.919 375.122 565.987 375.132 566.065C375.151 566.134 375.166 566.222 375.176 566.329C375.195 566.437 375.205 566.568 375.205 566.725C375.205 566.891 375.195 567.037 375.176 567.164C375.166 567.281 375.142 567.379 375.103 567.457C375.073 567.535 375.034 567.594 374.985 567.633C374.937 567.662 374.883 567.677 374.824 567.677C374.736 567.677 374.609 567.623 374.443 567.516C374.277 567.408 374.062 567.296 373.799 567.179C373.535 567.052 373.223 566.935 372.861 566.827C372.51 566.72 372.104 566.666 371.646 566.666C371.235 566.666 370.874 566.715 370.562 566.812C370.249 566.9 369.99 567.032 369.785 567.208C369.59 567.374 369.438 567.574 369.331 567.809C369.233 568.043 369.185 568.297 369.185 568.57C369.185 568.951 369.282 569.273 369.478 569.537C369.673 569.791 369.927 570.016 370.239 570.211C370.552 570.406 370.908 570.582 371.309 570.738C371.709 570.895 372.114 571.056 372.524 571.222C372.944 571.388 373.354 571.573 373.755 571.778C374.165 571.983 374.526 572.232 374.839 572.525C375.151 572.818 375.4 573.17 375.586 573.58C375.781 573.99 375.879 574.479 375.879 575.045ZM388.564 578.634C388.564 578.712 388.545 578.78 388.506 578.839C388.467 578.888 388.403 578.932 388.315 578.971C388.228 579.01 388.105 579.039 387.949 579.059C387.793 579.078 387.593 579.088 387.349 579.088C387.114 579.088 386.919 579.078 386.763 579.059C386.606 579.039 386.479 579.01 386.382 578.971C386.294 578.932 386.23 578.888 386.191 578.839C386.162 578.78 386.147 578.712 386.147 578.634V565.45C386.147 565.382 386.162 565.318 386.191 565.26C386.23 565.201 386.294 565.152 386.382 565.113C386.479 565.074 386.606 565.045 386.763 565.025C386.919 565.006 387.114 564.996 387.349 564.996C387.593 564.996 387.793 565.006 387.949 565.025C388.105 565.045 388.228 565.074 388.315 565.113C388.403 565.152 388.467 565.201 388.506 565.26C388.545 565.318 388.564 565.382 388.564 565.45V578.634ZM388.843 560.997C388.843 561.563 388.735 561.949 388.521 562.154C388.306 562.359 387.91 562.462 387.334 562.462C386.768 562.462 386.377 562.364 386.162 562.169C385.957 561.964 385.854 561.583 385.854 561.026C385.854 560.46 385.962 560.074 386.177 559.869C386.392 559.664 386.787 559.562 387.363 559.562C387.93 559.562 388.315 559.664 388.521 559.869C388.735 560.064 388.843 560.44 388.843 560.997ZM404.385 578.634C404.385 578.712 404.365 578.78 404.326 578.839C404.287 578.888 404.224 578.932 404.136 578.971C404.048 579.01 403.926 579.039 403.77 579.059C403.613 579.078 403.418 579.088 403.184 579.088C402.939 579.088 402.739 579.078 402.583 579.059C402.427 579.039 402.305 579.01 402.217 578.971C402.129 578.932 402.065 578.888 402.026 578.839C401.987 578.78 401.968 578.712 401.968 578.634V570.914C401.968 570.162 401.909 569.557 401.792 569.098C401.675 568.639 401.504 568.243 401.279 567.911C401.055 567.579 400.762 567.325 400.4 567.149C400.049 566.974 399.639 566.886 399.17 566.886C398.564 566.886 397.959 567.101 397.354 567.53C396.748 567.96 396.113 568.59 395.449 569.42V578.634C395.449 578.712 395.43 578.78 395.391 578.839C395.352 578.888 395.288 578.932 395.2 578.971C395.112 579.01 394.99 579.039 394.834 579.059C394.678 579.078 394.478 579.088 394.233 579.088C393.999 579.088 393.804 579.078 393.647 579.059C393.491 579.039 393.364 579.01 393.267 578.971C393.179 578.932 393.115 578.888 393.076 578.839C393.047 578.78 393.032 578.712 393.032 578.634V565.45C393.032 565.372 393.047 565.309 393.076 565.26C393.105 565.201 393.164 565.152 393.252 565.113C393.34 565.064 393.452 565.035 393.589 565.025C393.726 565.006 393.906 564.996 394.131 564.996C394.346 564.996 394.521 565.006 394.658 565.025C394.805 565.035 394.917 565.064 394.995 565.113C395.073 565.152 395.127 565.201 395.156 565.26C395.195 565.309 395.215 565.372 395.215 565.45V567.193C395.957 566.363 396.694 565.758 397.427 565.377C398.169 564.986 398.916 564.791 399.668 564.791C400.547 564.791 401.284 564.942 401.88 565.245C402.485 565.538 402.974 565.934 403.345 566.432C403.716 566.93 403.979 567.516 404.136 568.189C404.302 568.854 404.385 569.654 404.385 570.592V578.634ZM411.211 578.634C411.211 578.712 411.191 578.78 411.152 578.839C411.113 578.888 411.05 578.932 410.962 578.971C410.874 579.01 410.752 579.039 410.596 579.059C410.439 579.078 410.239 579.088 409.995 579.088C409.761 579.088 409.565 579.078 409.409 579.059C409.253 579.039 409.126 579.01 409.028 578.971C408.94 578.932 408.877 578.888 408.838 578.839C408.809 578.78 408.794 578.712 408.794 578.634V565.45C408.794 565.382 408.809 565.318 408.838 565.26C408.877 565.201 408.94 565.152 409.028 565.113C409.126 565.074 409.253 565.045 409.409 565.025C409.565 565.006 409.761 564.996 409.995 564.996C410.239 564.996 410.439 565.006 410.596 565.025C410.752 565.045 410.874 565.074 410.962 565.113C411.05 565.152 411.113 565.201 411.152 565.26C411.191 565.318 411.211 565.382 411.211 565.45V578.634ZM411.489 560.997C411.489 561.563 411.382 561.949 411.167 562.154C410.952 562.359 410.557 562.462 409.98 562.462C409.414 562.462 409.023 562.364 408.809 562.169C408.604 561.964 408.501 561.583 408.501 561.026C408.501 560.46 408.608 560.074 408.823 559.869C409.038 559.664 409.434 559.562 410.01 559.562C410.576 559.562 410.962 559.664 411.167 559.869C411.382 560.064 411.489 560.44 411.489 560.997ZM433.77 578.634C433.77 578.712 433.75 578.78 433.711 578.839C433.682 578.897 433.623 578.946 433.535 578.985C433.457 579.015 433.35 579.039 433.213 579.059C433.076 579.078 432.91 579.088 432.715 579.088C432.51 579.088 432.339 579.078 432.202 579.059C432.065 579.039 431.953 579.015 431.865 578.985C431.777 578.946 431.714 578.897 431.675 578.839C431.636 578.78 431.616 578.712 431.616 578.634V576.891C430.923 577.643 430.2 578.229 429.448 578.648C428.706 579.068 427.891 579.278 427.002 579.278C426.035 579.278 425.21 579.093 424.526 578.722C423.843 578.341 423.286 577.833 422.856 577.198C422.437 576.554 422.129 575.802 421.934 574.942C421.738 574.073 421.641 573.16 421.641 572.203C421.641 571.07 421.763 570.05 422.007 569.142C422.251 568.224 422.612 567.442 423.091 566.798C423.569 566.153 424.16 565.66 424.863 565.318C425.576 564.967 426.396 564.791 427.324 564.791C428.096 564.791 428.799 564.962 429.434 565.304C430.078 565.636 430.713 566.129 431.338 566.783V559.122C431.338 559.054 431.353 558.99 431.382 558.932C431.421 558.863 431.489 558.814 431.587 558.785C431.685 558.746 431.807 558.717 431.953 558.697C432.109 558.668 432.305 558.653 432.539 558.653C432.783 558.653 432.983 558.668 433.14 558.697C433.296 558.717 433.418 558.746 433.506 558.785C433.594 558.814 433.657 558.863 433.696 558.932C433.745 558.99 433.77 559.054 433.77 559.122V578.634ZM431.338 569.361C430.684 568.551 430.049 567.936 429.434 567.516C428.828 567.086 428.193 566.871 427.529 566.871C426.914 566.871 426.392 567.018 425.962 567.311C425.532 567.604 425.181 567.989 424.907 568.468C424.644 568.946 424.448 569.488 424.321 570.094C424.204 570.699 424.146 571.314 424.146 571.939C424.146 572.604 424.194 573.253 424.292 573.888C424.399 574.522 424.58 575.089 424.834 575.587C425.088 576.075 425.425 576.471 425.845 576.773C426.265 577.066 426.792 577.213 427.427 577.213C427.749 577.213 428.057 577.169 428.35 577.081C428.652 576.993 428.96 576.847 429.272 576.642C429.585 576.437 429.912 576.173 430.254 575.851C430.596 575.519 430.957 575.113 431.338 574.635V569.361ZM449.487 571.471C449.487 571.852 449.39 572.125 449.194 572.291C449.009 572.447 448.794 572.525 448.55 572.525H439.907C439.907 573.258 439.98 573.917 440.127 574.503C440.273 575.089 440.518 575.592 440.859 576.012C441.201 576.432 441.646 576.754 442.192 576.979C442.739 577.203 443.408 577.315 444.199 577.315C444.824 577.315 445.381 577.267 445.869 577.169C446.357 577.062 446.777 576.944 447.129 576.817C447.49 576.69 447.783 576.578 448.008 576.48C448.242 576.373 448.418 576.319 448.535 576.319C448.604 576.319 448.662 576.339 448.711 576.378C448.77 576.407 448.813 576.456 448.843 576.524C448.872 576.593 448.892 576.69 448.901 576.817C448.921 576.935 448.931 577.081 448.931 577.257C448.931 577.384 448.926 577.496 448.916 577.594C448.906 577.682 448.892 577.765 448.872 577.843C448.862 577.911 448.838 577.975 448.799 578.033C448.77 578.092 448.726 578.15 448.667 578.209C448.618 578.258 448.462 578.346 448.198 578.473C447.935 578.59 447.593 578.707 447.173 578.824C446.753 578.941 446.265 579.044 445.708 579.132C445.161 579.229 444.575 579.278 443.95 579.278C442.866 579.278 441.914 579.127 441.094 578.824C440.283 578.521 439.6 578.072 439.043 577.477C438.486 576.881 438.066 576.134 437.783 575.235C437.5 574.337 437.358 573.292 437.358 572.101C437.358 570.968 437.505 569.952 437.798 569.054C438.091 568.146 438.511 567.379 439.058 566.754C439.614 566.119 440.283 565.636 441.064 565.304C441.846 564.962 442.72 564.791 443.687 564.791C444.722 564.791 445.601 564.957 446.323 565.289C447.056 565.621 447.656 566.07 448.125 566.637C448.594 567.193 448.936 567.853 449.15 568.614C449.375 569.366 449.487 570.172 449.487 571.031V571.471ZM447.056 570.753C447.085 569.483 446.802 568.487 446.206 567.765C445.62 567.042 444.746 566.681 443.584 566.681C442.988 566.681 442.466 566.793 442.017 567.018C441.567 567.242 441.191 567.54 440.889 567.911C440.586 568.282 440.352 568.717 440.186 569.215C440.02 569.703 439.927 570.216 439.907 570.753H447.056ZM464.531 578.634C464.531 578.712 464.512 578.78 464.473 578.839C464.434 578.888 464.37 578.932 464.282 578.971C464.194 579.01 464.072 579.039 463.916 579.059C463.76 579.078 463.564 579.088 463.33 579.088C463.086 579.088 462.886 579.078 462.729 579.059C462.573 579.039 462.451 579.01 462.363 578.971C462.275 578.932 462.212 578.888 462.173 578.839C462.134 578.78 462.114 578.712 462.114 578.634V570.914C462.114 570.162 462.056 569.557 461.938 569.098C461.821 568.639 461.65 568.243 461.426 567.911C461.201 567.579 460.908 567.325 460.547 567.149C460.195 566.974 459.785 566.886 459.316 566.886C458.711 566.886 458.105 567.101 457.5 567.53C456.895 567.96 456.26 568.59 455.596 569.42V578.634C455.596 578.712 455.576 578.78 455.537 578.839C455.498 578.888 455.435 578.932 455.347 578.971C455.259 579.01 455.137 579.039 454.98 579.059C454.824 579.078 454.624 579.088 454.38 579.088C454.146 579.088 453.95 579.078 453.794 579.059C453.638 579.039 453.511 579.01 453.413 578.971C453.325 578.932 453.262 578.888 453.223 578.839C453.193 578.78 453.179 578.712 453.179 578.634V565.45C453.179 565.372 453.193 565.309 453.223 565.26C453.252 565.201 453.311 565.152 453.398 565.113C453.486 565.064 453.599 565.035 453.735 565.025C453.872 565.006 454.053 564.996 454.277 564.996C454.492 564.996 454.668 565.006 454.805 565.025C454.951 565.035 455.063 565.064 455.142 565.113C455.22 565.152 455.273 565.201 455.303 565.26C455.342 565.309 455.361 565.372 455.361 565.45V567.193C456.104 566.363 456.841 565.758 457.573 565.377C458.315 564.986 459.062 564.791 459.814 564.791C460.693 564.791 461.431 564.942 462.026 565.245C462.632 565.538 463.12 565.934 463.491 566.432C463.862 566.93 464.126 567.516 464.282 568.189C464.448 568.854 464.531 569.654 464.531 570.592V578.634ZM479.956 566.051C479.956 566.393 479.907 566.642 479.81 566.798C479.722 566.944 479.604 567.018 479.458 567.018H477.568C477.91 567.369 478.149 567.76 478.286 568.189C478.423 568.609 478.491 569.049 478.491 569.508C478.491 570.27 478.369 570.943 478.125 571.529C477.881 572.115 477.529 572.613 477.07 573.023C476.621 573.424 476.084 573.731 475.459 573.946C474.834 574.161 474.141 574.269 473.379 574.269C472.842 574.269 472.329 574.2 471.841 574.063C471.362 573.917 470.991 573.736 470.728 573.521C470.552 573.697 470.405 573.897 470.288 574.122C470.181 574.347 470.127 574.605 470.127 574.898C470.127 575.24 470.283 575.523 470.596 575.748C470.918 575.973 471.343 576.095 471.87 576.114L475.312 576.261C475.967 576.28 476.567 576.373 477.114 576.539C477.661 576.695 478.135 576.925 478.535 577.228C478.936 577.521 479.248 577.887 479.473 578.326C479.697 578.756 479.81 579.259 479.81 579.835C479.81 580.44 479.683 581.017 479.429 581.563C479.175 582.11 478.784 582.589 478.257 582.999C477.739 583.419 477.075 583.746 476.265 583.98C475.454 584.225 474.497 584.347 473.394 584.347C472.329 584.347 471.421 584.254 470.669 584.068C469.927 583.893 469.316 583.648 468.838 583.336C468.359 583.023 468.013 582.647 467.798 582.208C467.583 581.778 467.476 581.31 467.476 580.802C467.476 580.479 467.515 580.167 467.593 579.864C467.671 579.562 467.788 579.273 467.944 579C468.11 578.727 468.311 578.468 468.545 578.224C468.789 577.97 469.067 577.721 469.38 577.477C468.901 577.232 468.545 576.925 468.311 576.554C468.086 576.183 467.974 575.782 467.974 575.353C467.974 574.757 468.096 574.225 468.34 573.756C468.584 573.287 468.887 572.867 469.248 572.496C468.945 572.135 468.706 571.729 468.53 571.28C468.354 570.821 468.267 570.27 468.267 569.625C468.267 568.873 468.394 568.199 468.647 567.604C468.901 567.008 469.253 566.505 469.702 566.095C470.151 565.685 470.688 565.372 471.313 565.157C471.948 564.933 472.637 564.82 473.379 564.82C473.779 564.82 474.15 564.845 474.492 564.894C474.844 564.933 475.171 564.991 475.474 565.069H479.458C479.624 565.069 479.746 565.152 479.824 565.318C479.912 565.475 479.956 565.719 479.956 566.051ZM476.177 569.522C476.177 568.624 475.928 567.926 475.43 567.428C474.941 566.92 474.243 566.666 473.335 566.666C472.866 566.666 472.456 566.744 472.104 566.9C471.763 567.057 471.475 567.271 471.24 567.545C471.016 567.818 470.845 568.136 470.728 568.497C470.62 568.849 470.566 569.22 470.566 569.61C470.566 570.479 470.811 571.163 471.299 571.661C471.797 572.159 472.49 572.408 473.379 572.408C473.857 572.408 474.272 572.335 474.624 572.188C474.976 572.032 475.264 571.822 475.488 571.559C475.723 571.285 475.894 570.973 476.001 570.621C476.118 570.27 476.177 569.903 476.177 569.522ZM477.393 579.967C477.393 579.4 477.158 578.966 476.689 578.663C476.23 578.351 475.605 578.185 474.814 578.165L471.401 578.048C471.089 578.292 470.83 578.526 470.625 578.751C470.43 578.966 470.273 579.171 470.156 579.366C470.039 579.571 469.956 579.771 469.907 579.967C469.868 580.162 469.849 580.362 469.849 580.567C469.849 581.202 470.171 581.681 470.815 582.003C471.46 582.335 472.358 582.501 473.511 582.501C474.243 582.501 474.854 582.428 475.342 582.281C475.84 582.145 476.24 581.959 476.543 581.725C476.846 581.49 477.061 581.222 477.188 580.919C477.324 580.616 477.393 580.299 477.393 579.967ZM492.437 578.648C492.437 578.766 492.397 578.854 492.319 578.912C492.241 578.971 492.134 579.015 491.997 579.044C491.86 579.073 491.66 579.088 491.396 579.088C491.143 579.088 490.938 579.073 490.781 579.044C490.635 579.015 490.527 578.971 490.459 578.912C490.391 578.854 490.356 578.766 490.356 578.648V577.33C489.78 577.945 489.136 578.424 488.423 578.766C487.72 579.107 486.973 579.278 486.182 579.278C485.488 579.278 484.858 579.186 484.292 579C483.735 578.824 483.257 578.565 482.856 578.224C482.466 577.882 482.158 577.462 481.934 576.964C481.719 576.466 481.611 575.899 481.611 575.265C481.611 574.522 481.763 573.878 482.065 573.331C482.368 572.784 482.803 572.33 483.369 571.969C483.936 571.607 484.629 571.339 485.449 571.163C486.27 570.978 487.192 570.885 488.218 570.885H490.034V569.859C490.034 569.352 489.98 568.902 489.873 568.512C489.766 568.121 489.59 567.799 489.346 567.545C489.111 567.281 488.804 567.086 488.423 566.959C488.042 566.822 487.573 566.754 487.017 566.754C486.421 566.754 485.884 566.827 485.405 566.974C484.937 567.11 484.521 567.267 484.16 567.442C483.809 567.608 483.511 567.765 483.267 567.911C483.032 568.048 482.856 568.116 482.739 568.116C482.661 568.116 482.593 568.097 482.534 568.058C482.476 568.019 482.422 567.96 482.373 567.882C482.334 567.804 482.305 567.706 482.285 567.589C482.266 567.462 482.256 567.325 482.256 567.179C482.256 566.935 482.271 566.744 482.3 566.607C482.339 566.461 482.422 566.324 482.549 566.197C482.686 566.07 482.915 565.924 483.237 565.758C483.56 565.582 483.931 565.426 484.351 565.289C484.771 565.143 485.229 565.025 485.728 564.938C486.226 564.84 486.729 564.791 487.236 564.791C488.184 564.791 488.989 564.898 489.653 565.113C490.317 565.328 490.854 565.646 491.265 566.065C491.675 566.476 491.973 566.988 492.158 567.604C492.344 568.219 492.437 568.937 492.437 569.757V578.648ZM490.034 572.628H487.969C487.305 572.628 486.729 572.687 486.24 572.804C485.752 572.911 485.347 573.077 485.024 573.302C484.702 573.517 484.463 573.78 484.307 574.093C484.16 574.396 484.087 574.747 484.087 575.147C484.087 575.831 484.302 576.378 484.731 576.788C485.171 577.188 485.781 577.389 486.562 577.389C487.197 577.389 487.783 577.228 488.32 576.905C488.867 576.583 489.438 576.09 490.034 575.426V572.628ZM508.242 578.634C508.242 578.712 508.223 578.78 508.184 578.839C508.145 578.888 508.081 578.932 507.993 578.971C507.905 579.01 507.783 579.039 507.627 579.059C507.471 579.078 507.275 579.088 507.041 579.088C506.797 579.088 506.597 579.078 506.44 579.059C506.284 579.039 506.162 579.01 506.074 578.971C505.986 578.932 505.923 578.888 505.884 578.839C505.845 578.78 505.825 578.712 505.825 578.634V570.914C505.825 570.162 505.767 569.557 505.649 569.098C505.532 568.639 505.361 568.243 505.137 567.911C504.912 567.579 504.619 567.325 504.258 567.149C503.906 566.974 503.496 566.886 503.027 566.886C502.422 566.886 501.816 567.101 501.211 567.53C500.605 567.96 499.971 568.59 499.307 569.42V578.634C499.307 578.712 499.287 578.78 499.248 578.839C499.209 578.888 499.146 578.932 499.058 578.971C498.97 579.01 498.848 579.039 498.691 579.059C498.535 579.078 498.335 579.088 498.091 579.088C497.856 579.088 497.661 579.078 497.505 579.059C497.349 579.039 497.222 579.01 497.124 578.971C497.036 578.932 496.973 578.888 496.934 578.839C496.904 578.78 496.89 578.712 496.89 578.634V565.45C496.89 565.372 496.904 565.309 496.934 565.26C496.963 565.201 497.021 565.152 497.109 565.113C497.197 565.064 497.31 565.035 497.446 565.025C497.583 565.006 497.764 564.996 497.988 564.996C498.203 564.996 498.379 565.006 498.516 565.025C498.662 565.035 498.774 565.064 498.853 565.113C498.931 565.152 498.984 565.201 499.014 565.26C499.053 565.309 499.072 565.372 499.072 565.45V567.193C499.814 566.363 500.552 565.758 501.284 565.377C502.026 564.986 502.773 564.791 503.525 564.791C504.404 564.791 505.142 564.942 505.737 565.245C506.343 565.538 506.831 565.934 507.202 566.432C507.573 566.93 507.837 567.516 507.993 568.189C508.159 568.854 508.242 569.654 508.242 570.592V578.634ZM531.577 571.866C531.577 573.009 531.45 574.039 531.196 574.957C530.952 575.865 530.586 576.642 530.098 577.286C529.619 577.931 529.028 578.424 528.325 578.766C527.622 579.107 526.816 579.278 525.908 579.278C525.488 579.278 525.098 579.234 524.736 579.146C524.385 579.068 524.038 578.937 523.696 578.751C523.354 578.565 523.013 578.331 522.671 578.048C522.329 577.765 521.968 577.423 521.587 577.022V578.634C521.587 578.712 521.567 578.78 521.528 578.839C521.489 578.897 521.426 578.946 521.338 578.985C521.25 579.015 521.138 579.039 521.001 579.059C520.874 579.078 520.708 579.088 520.503 579.088C520.308 579.088 520.142 579.078 520.005 579.059C519.868 579.039 519.756 579.015 519.668 578.985C519.58 578.946 519.521 578.897 519.492 578.839C519.463 578.78 519.448 578.712 519.448 578.634V559.063C519.448 558.985 519.463 558.917 519.492 558.858C519.531 558.8 519.595 558.751 519.683 558.712C519.78 558.673 519.907 558.644 520.063 558.624C520.22 558.604 520.415 558.595 520.649 558.595C520.894 558.595 521.094 558.604 521.25 558.624C521.406 558.644 521.528 558.673 521.616 558.712C521.704 558.751 521.768 558.8 521.807 558.858C521.846 558.917 521.865 558.985 521.865 559.063V566.959C522.256 566.559 522.632 566.222 522.993 565.948C523.364 565.675 523.726 565.455 524.077 565.289C524.429 565.113 524.78 564.986 525.132 564.908C525.483 564.83 525.854 564.791 526.245 564.791C527.202 564.791 528.018 564.981 528.691 565.362C529.375 565.743 529.927 566.256 530.347 566.9C530.776 567.535 531.089 568.282 531.284 569.142C531.479 570.001 531.577 570.909 531.577 571.866ZM529.028 572.145C529.028 571.471 528.975 570.816 528.867 570.182C528.77 569.547 528.594 568.985 528.34 568.497C528.086 568.009 527.749 567.618 527.329 567.325C526.909 567.022 526.387 566.871 525.762 566.871C525.449 566.871 525.142 566.915 524.839 567.003C524.536 567.091 524.229 567.237 523.916 567.442C523.604 567.647 523.276 567.911 522.935 568.233C522.603 568.556 522.246 568.961 521.865 569.449V574.708C522.529 575.519 523.164 576.139 523.77 576.568C524.375 576.988 525.005 577.198 525.659 577.198C526.265 577.198 526.782 577.052 527.212 576.759C527.642 576.466 527.988 576.08 528.252 575.602C528.525 575.113 528.721 574.571 528.838 573.976C528.965 573.37 529.028 572.76 529.028 572.145ZM545.142 578.648C545.142 578.766 545.103 578.854 545.024 578.912C544.946 578.971 544.839 579.015 544.702 579.044C544.565 579.073 544.365 579.088 544.102 579.088C543.848 579.088 543.643 579.073 543.486 579.044C543.34 579.015 543.232 578.971 543.164 578.912C543.096 578.854 543.062 578.766 543.062 578.648V577.33C542.485 577.945 541.841 578.424 541.128 578.766C540.425 579.107 539.678 579.278 538.887 579.278C538.193 579.278 537.563 579.186 536.997 579C536.44 578.824 535.962 578.565 535.562 578.224C535.171 577.882 534.863 577.462 534.639 576.964C534.424 576.466 534.316 575.899 534.316 575.265C534.316 574.522 534.468 573.878 534.771 573.331C535.073 572.784 535.508 572.33 536.074 571.969C536.641 571.607 537.334 571.339 538.154 571.163C538.975 570.978 539.897 570.885 540.923 570.885H542.739V569.859C542.739 569.352 542.686 568.902 542.578 568.512C542.471 568.121 542.295 567.799 542.051 567.545C541.816 567.281 541.509 567.086 541.128 566.959C540.747 566.822 540.278 566.754 539.722 566.754C539.126 566.754 538.589 566.827 538.11 566.974C537.642 567.11 537.227 567.267 536.865 567.442C536.514 567.608 536.216 567.765 535.972 567.911C535.737 568.048 535.562 568.116 535.444 568.116C535.366 568.116 535.298 568.097 535.239 568.058C535.181 568.019 535.127 567.96 535.078 567.882C535.039 567.804 535.01 567.706 534.99 567.589C534.971 567.462 534.961 567.325 534.961 567.179C534.961 566.935 534.976 566.744 535.005 566.607C535.044 566.461 535.127 566.324 535.254 566.197C535.391 566.07 535.62 565.924 535.942 565.758C536.265 565.582 536.636 565.426 537.056 565.289C537.476 565.143 537.935 565.025 538.433 564.938C538.931 564.84 539.434 564.791 539.941 564.791C540.889 564.791 541.694 564.898 542.358 565.113C543.022 565.328 543.56 565.646 543.97 566.065C544.38 566.476 544.678 566.988 544.863 567.604C545.049 568.219 545.142 568.937 545.142 569.757V578.648ZM542.739 572.628H540.674C540.01 572.628 539.434 572.687 538.945 572.804C538.457 572.911 538.052 573.077 537.729 573.302C537.407 573.517 537.168 573.78 537.012 574.093C536.865 574.396 536.792 574.747 536.792 575.147C536.792 575.831 537.007 576.378 537.437 576.788C537.876 577.188 538.486 577.389 539.268 577.389C539.902 577.389 540.488 577.228 541.025 576.905C541.572 576.583 542.144 576.09 542.739 575.426V572.628ZM552.012 578.634C552.012 578.712 551.992 578.78 551.953 578.839C551.914 578.888 551.851 578.932 551.763 578.971C551.675 579.01 551.553 579.039 551.396 579.059C551.24 579.078 551.04 579.088 550.796 579.088C550.562 579.088 550.366 579.078 550.21 579.059C550.054 579.039 549.927 579.01 549.829 578.971C549.741 578.932 549.678 578.888 549.639 578.839C549.609 578.78 549.595 578.712 549.595 578.634V565.45C549.595 565.382 549.609 565.318 549.639 565.26C549.678 565.201 549.741 565.152 549.829 565.113C549.927 565.074 550.054 565.045 550.21 565.025C550.366 565.006 550.562 564.996 550.796 564.996C551.04 564.996 551.24 565.006 551.396 565.025C551.553 565.045 551.675 565.074 551.763 565.113C551.851 565.152 551.914 565.201 551.953 565.26C551.992 565.318 552.012 565.382 552.012 565.45V578.634ZM552.29 560.997C552.29 561.563 552.183 561.949 551.968 562.154C551.753 562.359 551.357 562.462 550.781 562.462C550.215 562.462 549.824 562.364 549.609 562.169C549.404 561.964 549.302 561.583 549.302 561.026C549.302 560.46 549.409 560.074 549.624 559.869C549.839 559.664 550.234 559.562 550.811 559.562C551.377 559.562 551.763 559.664 551.968 559.869C552.183 560.064 552.29 560.44 552.29 560.997ZM567.305 578.619C567.305 578.697 567.285 578.766 567.246 578.824C567.207 578.883 567.139 578.932 567.041 578.971C566.953 579.01 566.826 579.039 566.66 579.059C566.494 579.078 566.284 579.088 566.03 579.088C565.767 579.088 565.547 579.078 565.371 579.059C565.205 579.049 565.063 579.029 564.946 579C564.829 578.961 564.731 578.912 564.653 578.854C564.585 578.785 564.521 578.707 564.463 578.619L558.896 571.324V578.634C558.896 578.712 558.877 578.78 558.838 578.839C558.799 578.888 558.735 578.932 558.647 578.971C558.56 579.01 558.438 579.039 558.281 579.059C558.125 579.078 557.925 579.088 557.681 579.088C557.446 579.088 557.251 579.078 557.095 579.059C556.938 579.039 556.812 579.01 556.714 578.971C556.626 578.932 556.562 578.888 556.523 578.839C556.494 578.78 556.479 578.712 556.479 578.634V559.063C556.479 558.985 556.494 558.917 556.523 558.858C556.562 558.8 556.626 558.751 556.714 558.712C556.812 558.673 556.938 558.644 557.095 558.624C557.251 558.604 557.446 558.595 557.681 558.595C557.925 558.595 558.125 558.604 558.281 558.624C558.438 558.644 558.56 558.673 558.647 558.712C558.735 558.751 558.799 558.8 558.838 558.858C558.877 558.917 558.896 558.985 558.896 559.063V570.987L563.877 565.509C563.955 565.411 564.038 565.333 564.126 565.274C564.214 565.206 564.316 565.152 564.434 565.113C564.561 565.064 564.707 565.035 564.873 565.025C565.039 565.006 565.239 564.996 565.474 564.996C565.718 564.996 565.923 565.006 566.089 565.025C566.255 565.035 566.387 565.06 566.484 565.099C566.592 565.128 566.665 565.172 566.704 565.23C566.753 565.279 566.777 565.348 566.777 565.436C566.777 565.553 566.743 565.67 566.675 565.787C566.616 565.904 566.514 566.041 566.367 566.197L561.592 570.973L566.953 577.931C567.08 578.097 567.168 578.233 567.217 578.341C567.275 578.438 567.305 578.531 567.305 578.619ZM573.252 577.403C573.252 578.097 573.135 578.561 572.9 578.795C572.676 579.02 572.261 579.132 571.655 579.132C571.069 579.132 570.664 579.02 570.439 578.795C570.215 578.57 570.103 578.121 570.103 577.447C570.103 576.754 570.215 576.295 570.439 576.07C570.674 575.836 571.094 575.719 571.699 575.719C572.285 575.719 572.69 575.831 572.915 576.056C573.14 576.28 573.252 576.729 573.252 577.403Z" fill="#0E4542"/>
<g filter="url(#filter0_f)">
<rect x="60" y="60" width="519" height="102" rx="30" fill="#DEFFDD"/>
</g>
<path d="M267.52 356H261.1V323.72H257.38V318.56C259.74 318.44 261.46 317.52 262.54 315.8H267.52V356ZM288.846 356.72C284.126 356.72 280.486 354.94 277.926 351.38C275.406 347.78 274.146 342.62 274.146 335.9C274.146 329.34 275.406 324.24 277.926 320.6C280.486 316.96 284.126 315.14 288.846 315.14C293.646 315.14 297.286 316.96 299.766 320.6C302.286 324.24 303.546 329.34 303.546 335.9C303.546 342.62 302.286 347.78 299.766 351.38C297.286 354.94 293.646 356.72 288.846 356.72ZM288.846 321.5C286.046 321.5 284.006 322.84 282.726 325.52C281.446 328.16 280.786 331.58 280.746 335.78C280.746 340.5 281.366 344.08 282.606 346.52C283.886 348.96 285.966 350.16 288.846 350.12C291.886 350.04 293.986 348.78 295.146 346.34C296.306 343.9 296.926 340.38 297.006 335.78C296.926 331.3 296.246 327.84 294.966 325.4C293.726 322.96 291.686 321.66 288.846 321.5ZM322.772 356.72C318.052 356.72 314.412 354.94 311.852 351.38C309.332 347.78 308.072 342.62 308.072 335.9C308.072 329.34 309.332 324.24 311.852 320.6C314.412 316.96 318.052 315.14 322.772 315.14C327.572 315.14 331.212 316.96 333.692 320.6C336.212 324.24 337.472 329.34 337.472 335.9C337.472 342.62 336.212 347.78 333.692 351.38C331.212 354.94 327.572 356.72 322.772 356.72ZM322.772 321.5C319.972 321.5 317.932 322.84 316.652 325.52C315.372 328.16 314.712 331.58 314.672 335.78C314.672 340.5 315.292 344.08 316.532 346.52C317.812 348.96 319.892 350.16 322.772 350.12C325.812 350.04 327.912 348.78 329.072 346.34C330.232 343.9 330.852 340.38 330.932 335.78C330.852 331.3 330.172 327.84 328.892 325.4C327.652 322.96 325.612 321.66 322.772 321.5ZM381.11 350.12H378.95C378.99 349.12 378.63 348.26 377.87 347.54C377.15 346.82 376.27 346.46 375.23 346.46C374.19 346.46 373.29 346.82 372.53 347.54C371.81 348.22 371.45 349.08 371.45 350.12C371.45 351.12 371.81 352 372.53 352.76C373.29 353.48 374.19 353.84 375.23 353.84C376.27 353.84 377.15 353.48 377.87 352.76C378.63 352 378.99 351.12 378.95 350.12H381.11C381.11 351.72 380.53 353.1 379.37 354.26C378.21 355.42 376.83 356 375.23 356C373.63 356 372.25 355.42 371.09 354.26C369.97 353.1 369.41 351.72 369.41 350.12C369.41 348.48 369.97 347.1 371.09 345.98C372.21 344.86 373.59 344.3 375.23 344.3C376.79 344.3 378.15 344.88 379.31 346.04C380.51 347.16 381.11 348.52 381.11 350.12ZM369.05 321.62H366.89C366.93 320.62 366.57 319.76 365.81 319.04C365.09 318.32 364.21 317.96 363.17 317.96C362.13 317.96 361.23 318.32 360.47 319.04C359.75 319.72 359.39 320.58 359.39 321.62C359.39 322.62 359.75 323.5 360.47 324.26C361.23 324.98 362.13 325.34 363.17 325.34C364.21 325.34 365.09 324.98 365.81 324.26C366.57 323.5 366.93 322.62 366.89 321.62H369.05C369.05 323.22 368.47 324.6 367.31 325.76C366.15 326.92 364.77 327.5 363.17 327.5C361.57 327.5 360.19 326.92 359.03 325.76C357.91 324.6 357.35 323.22 357.35 321.62C357.35 319.98 357.91 318.6 359.03 317.48C360.15 316.36 361.53 315.8 363.17 315.8C364.73 315.8 366.09 316.38 367.25 317.54C368.45 318.66 369.05 320.02 369.05 321.62ZM382.13 315.8L359.15 356H356.51L379.55 315.8H382.13Z" fill="#274B49"/>
<circle cx="318" cy="332" r="109" stroke="#EB9B6A" stroke-width="20"/>
<path d="M318 256.973C339.539 256.973 357 239.524 357 217.999C357 196.474 339.539 179.025 318 179.025C296.461 179.025 279 196.474 279 217.999C279 239.524 296.461 256.973 318 256.973Z" fill="#EB9B6A"/>
<path d="M314.873 238.731L296.433 224.366L301.676 217.637L313 226.458L331.688 199.491L338.701 204.349L314.873 238.731Z" fill="white"/>
<path d="M222.795 100.69C221.835 98.92 220.35 98.02 218.34 97.99C217.17 97.99 216.195 98.35 215.415 99.07C214.635 99.79 214.26 100.645 214.29 101.635C214.29 102.355 214.635 103 215.325 103.57C216.045 104.14 217.17 104.545 218.7 104.785C222.33 105.415 224.955 106.645 226.575 108.475C228.225 110.275 229.05 112.345 229.05 114.685C229.05 117.265 228.075 119.56 226.125 121.57C224.175 123.55 221.745 124.54 218.835 124.54C214.215 124.48 210.78 122.14 208.53 117.52L213.075 115.225C214.485 118.135 216.435 119.59 218.925 119.59C220.365 119.62 221.61 119.125 222.66 118.105C223.71 117.055 224.235 115.84 224.235 114.46C224.265 113.53 223.86 112.615 223.02 111.715C222.18 110.785 220.695 110.125 218.565 109.735C215.685 109.315 213.48 108.445 211.95 107.125C210.42 105.775 209.655 104.17 209.655 102.31C209.595 100.09 210.375 98.05 211.995 96.19C213.615 94.3 215.76 93.355 218.43 93.355C222.18 93.445 224.97 95.215 226.8 98.665L222.795 100.69ZM250.308 115H237.348C237.348 116.41 237.723 117.58 238.473 118.51C239.223 119.41 240.198 119.845 241.398 119.815C243.078 119.875 244.368 119.14 245.268 117.61L249.543 119.365C248.043 122.725 245.358 124.45 241.488 124.54C238.758 124.54 236.553 123.535 234.873 121.525C233.223 119.515 232.398 116.635 232.398 112.885C232.398 109.795 233.193 107.125 234.783 104.875C236.403 102.595 238.638 101.455 241.488 101.455C244.158 101.455 246.288 102.505 247.878 104.605C249.498 106.705 250.308 110.17 250.308 115ZM245.493 110.59C245.523 109.33 245.163 108.235 244.413 107.305C243.693 106.375 242.718 105.91 241.488 105.91C240.168 105.88 239.118 106.375 238.338 107.395C237.558 108.385 237.198 109.45 237.258 110.59H245.493ZM259.92 124H255.06V95.785L259.92 93.355V124ZM282.155 124H277.52V123.28C276.35 124.12 275.045 124.555 273.605 124.585C271.205 124.555 269.21 123.88 267.62 122.56C266.06 121.21 265.28 119.26 265.28 116.71C265.28 114.52 266 112.69 267.44 111.22C268.91 109.72 270.89 108.985 273.38 109.015C274.76 109.015 276.05 109.18 277.25 109.51C277.31 107.32 276.2 106.12 273.92 105.91C271.97 105.85 270.215 106.39 268.655 107.53L266.27 103.885C268.43 102.355 270.935 101.545 273.785 101.455C276.125 101.455 278.09 102.13 279.68 103.48C281.3 104.8 282.125 106.735 282.155 109.285V124ZM277.115 118.915V113.965C275.795 113.605 274.475 113.425 273.155 113.425C272.105 113.425 271.235 113.77 270.545 114.46C269.855 115.15 269.525 115.93 269.555 116.8C269.555 117.7 269.9 118.555 270.59 119.365C271.31 120.175 272.27 120.58 273.47 120.58C274.76 120.58 275.975 120.025 277.115 118.915ZM316.743 124H312.018V109.735C312.048 108.865 311.673 108.01 310.893 107.17C310.143 106.3 309.213 105.88 308.103 105.91C307.023 105.91 306.138 106.3 305.448 107.08C304.788 107.86 304.473 108.745 304.503 109.735V124H299.418V109.735C299.448 108.805 299.088 107.935 298.338 107.125C297.588 106.285 296.658 105.88 295.548 105.91C294.558 105.94 293.703 106.345 292.983 107.125C292.293 107.875 291.933 108.745 291.903 109.735V124H286.953V101.635H291.813V102.985C293.163 101.905 294.753 101.365 296.583 101.365C299.073 101.365 301.023 102.4 302.433 104.47C303.873 102.43 305.868 101.41 308.418 101.41C310.608 101.41 312.528 102.25 314.178 103.93C315.858 105.61 316.713 107.575 316.743 109.825V124ZM338.405 124H333.77V123.28C332.6 124.12 331.295 124.555 329.855 124.585C327.455 124.555 325.46 123.88 323.87 122.56C322.31 121.21 321.53 119.26 321.53 116.71C321.53 114.52 322.25 112.69 323.69 111.22C325.16 109.72 327.14 108.985 329.63 109.015C331.01 109.015 332.3 109.18 333.5 109.51C333.56 107.32 332.45 106.12 330.17 105.91C328.22 105.85 326.465 106.39 324.905 107.53L322.52 103.885C324.68 102.355 327.185 101.545 330.035 101.455C332.375 101.455 334.34 102.13 335.93 103.48C337.55 104.8 338.375 106.735 338.405 109.285V124ZM333.365 118.915V113.965C332.045 113.605 330.725 113.425 329.405 113.425C328.355 113.425 327.485 113.77 326.795 114.46C326.105 115.15 325.775 115.93 325.805 116.8C325.805 117.7 326.15 118.555 326.84 119.365C327.56 120.175 328.52 120.58 329.72 120.58C331.01 120.58 332.225 120.025 333.365 118.915ZM359.763 124H355.128V123.28C353.958 124.12 352.653 124.555 351.213 124.585C348.813 124.555 346.818 123.88 345.228 122.56C343.668 121.21 342.888 119.26 342.888 116.71C342.888 114.52 343.608 112.69 345.048 111.22C346.518 109.72 348.498 108.985 350.988 109.015C352.368 109.015 353.658 109.18 354.858 109.51C354.918 107.32 353.808 106.12 351.528 105.91C349.578 105.85 347.823 106.39 346.263 107.53L343.878 103.885C346.038 102.355 348.543 101.545 351.393 101.455C353.733 101.455 355.698 102.13 357.288 103.48C358.908 104.8 359.733 106.735 359.763 109.285V124ZM354.723 118.915V113.965C353.403 113.605 352.083 113.425 350.763 113.425C349.713 113.425 348.843 113.77 348.153 114.46C347.463 115.15 347.133 115.93 347.163 116.8C347.163 117.7 347.508 118.555 348.198 119.365C348.918 120.175 349.878 120.58 351.078 120.58C352.368 120.58 353.583 120.025 354.723 118.915ZM381.12 124H376.485V123.28C375.315 124.12 374.01 124.555 372.57 124.585C370.17 124.555 368.175 123.88 366.585 122.56C365.025 121.21 364.245 119.26 364.245 116.71C364.245 114.52 364.965 112.69 366.405 111.22C367.875 109.72 369.855 108.985 372.345 109.015C373.725 109.015 375.015 109.18 376.215 109.51C376.275 107.32 375.165 106.12 372.885 105.91C370.935 105.85 369.18 106.39 367.62 107.53L365.235 103.885C367.395 102.355 369.9 101.545 372.75 101.455C375.09 101.455 377.055 102.13 378.645 103.48C380.265 104.8 381.09 106.735 381.12 109.285V124ZM376.08 118.915V113.965C374.76 113.605 373.44 113.425 372.12 113.425C371.07 113.425 370.2 113.77 369.51 114.46C368.82 115.15 368.49 115.93 368.52 116.8C368.52 117.7 368.865 118.555 369.555 119.365C370.275 120.175 371.235 120.58 372.435 120.58C373.725 120.58 374.94 120.025 376.08 118.915ZM402.478 124H397.843V123.28C396.673 124.12 395.368 124.555 393.928 124.585C391.528 124.555 389.533 123.88 387.943 122.56C386.383 121.21 385.603 119.26 385.603 116.71C385.603 114.52 386.323 112.69 387.763 111.22C389.233 109.72 391.213 108.985 393.703 109.015C395.083 109.015 396.373 109.18 397.573 109.51C397.633 107.32 396.523 106.12 394.243 105.91C392.293 105.85 390.538 106.39 388.978 107.53L386.593 103.885C388.753 102.355 391.258 101.545 394.108 101.455C396.448 101.455 398.413 102.13 400.003 103.48C401.623 104.8 402.448 106.735 402.478 109.285V124ZM397.438 118.915V113.965C396.118 113.605 394.798 113.425 393.478 113.425C392.428 113.425 391.558 113.77 390.868 114.46C390.178 115.15 389.848 115.93 389.878 116.8C389.878 117.7 390.223 118.555 390.913 119.365C391.633 120.175 392.593 120.58 393.793 120.58C395.083 120.58 396.298 120.025 397.438 118.915ZM417.355 119.185L416.05 123.955C415.3 124.345 414.43 124.54 413.44 124.54C412.3 124.54 411.265 124.015 410.335 122.965C409.405 121.915 408.94 120.505 408.94 118.735V106.45H405.745V101.995H408.94V95.65L413.575 93.355V101.995H417.4V106.36H413.575V118.195C413.575 119.395 414.025 120.025 414.925 120.085C415.675 120.115 416.485 119.815 417.355 119.185ZM436.911 93.85V104.38L436.011 116.215H432.906L432.051 104.38V93.85H436.911ZM436.911 121.84C436.911 122.47 436.656 123.04 436.146 123.55C435.666 124.03 435.111 124.27 434.481 124.27C433.851 124.27 433.281 124.03 432.771 123.55C432.291 123.04 432.051 122.47 432.051 121.84C432.051 121.21 432.291 120.655 432.771 120.175C433.281 119.665 433.851 119.41 434.481 119.41C435.111 119.41 435.666 119.665 436.146 120.175C436.656 120.655 436.911 121.21 436.911 121.84Z" fill="#0E4542"/>
<path d="M230.48 514H225.56L218.8 501.32L216 504.8V514H211.76V487.2H216V497.84L224.44 487.2H229.88L221.64 497.64L230.48 514ZM249.188 514H245.068V513.36C244.028 514.107 242.868 514.493 241.588 514.52C239.454 514.493 237.681 513.893 236.268 512.72C234.881 511.52 234.188 509.787 234.188 507.52C234.188 505.573 234.828 503.947 236.108 502.64C237.414 501.307 239.174 500.653 241.388 500.68C242.614 500.68 243.761 500.827 244.828 501.12C244.881 499.173 243.894 498.107 241.868 497.92C240.134 497.867 238.574 498.347 237.188 499.36L235.068 496.12C236.988 494.76 239.214 494.04 241.748 493.96C243.828 493.96 245.574 494.56 246.988 495.76C248.428 496.933 249.161 498.653 249.188 500.92V514ZM244.708 509.48V505.08C243.534 504.76 242.361 504.6 241.188 504.6C240.254 504.6 239.481 504.907 238.868 505.52C238.254 506.133 237.961 506.827 237.988 507.6C237.988 508.4 238.294 509.16 238.908 509.88C239.548 510.6 240.401 510.96 241.468 510.96C242.614 510.96 243.694 510.467 244.708 509.48ZM279.932 514H275.732V501.32C275.759 500.547 275.425 499.787 274.732 499.04C274.065 498.267 273.239 497.893 272.252 497.92C271.292 497.92 270.505 498.267 269.892 498.96C269.305 499.653 269.025 500.44 269.052 501.32V514H264.532V501.32C264.559 500.493 264.239 499.72 263.572 499C262.905 498.253 262.079 497.893 261.092 497.92C260.212 497.947 259.452 498.307 258.812 499C258.199 499.667 257.879 500.44 257.852 501.32V514H253.452V494.12H257.772V495.32C258.972 494.36 260.385 493.88 262.012 493.88C264.225 493.88 265.959 494.8 267.212 496.64C268.492 494.827 270.265 493.92 272.532 493.92C274.479 493.92 276.185 494.667 277.652 496.16C279.145 497.653 279.905 499.4 279.932 501.4V514ZM299.468 514H295.308V513C294.134 513.987 292.574 514.48 290.628 514.48C288.361 514.48 286.668 513.707 285.548 512.16C284.428 510.613 283.868 508.813 283.868 506.76V494.44H287.988V506.68C287.934 507.693 288.268 508.613 288.988 509.44C289.708 510.24 290.614 510.613 291.708 510.56C292.854 510.56 293.721 510.227 294.308 509.56C294.921 508.893 295.228 507.933 295.228 506.68V494.44H299.468V514ZM331.607 514H327.367V502.36H317.607V514H313.367V487.2H317.607V498.04H327.367V487.2H331.607V514ZM351.035 506H339.515C339.515 507.253 339.848 508.293 340.515 509.12C341.181 509.92 342.048 510.307 343.115 510.28C344.608 510.333 345.755 509.68 346.555 508.32L350.355 509.88C349.021 512.867 346.635 514.4 343.195 514.48C340.768 514.48 338.808 513.587 337.315 511.8C335.848 510.013 335.115 507.453 335.115 504.12C335.115 501.373 335.821 499 337.235 497C338.675 494.973 340.661 493.96 343.195 493.96C345.568 493.96 347.461 494.893 348.875 496.76C350.315 498.627 351.035 501.707 351.035 506ZM346.755 502.08C346.781 500.96 346.461 499.987 345.795 499.16C345.155 498.333 344.288 497.92 343.195 497.92C342.021 497.893 341.088 498.333 340.395 499.24C339.701 500.12 339.381 501.067 339.435 502.08H346.755ZM362.619 514.48C361.232 514.48 359.979 514.093 358.859 513.32V514H354.619V488.88L358.859 486.76V495.36C359.712 494.453 360.939 493.987 362.539 493.96C367.926 494.067 370.619 497.587 370.619 504.52C370.619 511.16 367.952 514.48 362.619 514.48ZM366.459 504.48C366.459 500.373 365.152 498.24 362.539 498.08C360.912 498.08 359.712 498.733 358.939 500.04V508.84C359.926 510.12 361.166 510.747 362.659 510.72C365.166 510.693 366.432 508.613 366.459 504.48ZM389.734 514H385.614V513.36C384.574 514.107 383.414 514.493 382.134 514.52C380.001 514.493 378.228 513.893 376.814 512.72C375.428 511.52 374.734 509.787 374.734 507.52C374.734 505.573 375.374 503.947 376.654 502.64C377.961 501.307 379.721 500.653 381.934 500.68C383.161 500.68 384.308 500.827 385.374 501.12C385.428 499.173 384.441 498.107 382.414 497.92C380.681 497.867 379.121 498.347 377.734 499.36L375.614 496.12C377.534 494.76 379.761 494.04 382.294 493.96C384.374 493.96 386.121 494.56 387.534 495.76C388.974 496.933 389.708 498.653 389.734 500.92V514ZM385.254 509.48V505.08C384.081 504.76 382.908 504.6 381.734 504.6C380.801 504.6 380.028 504.907 379.414 505.52C378.801 506.133 378.508 506.827 378.534 507.6C378.534 508.4 378.841 509.16 379.454 509.88C380.094 510.6 380.948 510.96 382.014 510.96C383.161 510.96 384.241 510.467 385.254 509.48ZM402.959 509.72L401.799 513.96C401.132 514.307 400.359 514.48 399.479 514.48C398.465 514.48 397.545 514.013 396.719 513.08C395.892 512.147 395.479 510.893 395.479 509.32V498.4H392.639V494.44H395.479V488.8L399.599 486.76V494.44H402.999V498.32H399.599V508.84C399.599 509.907 399.999 510.467 400.799 510.52C401.465 510.547 402.185 510.28 402.959 509.72ZM420.342 496.12C420.342 496.733 420.128 497.253 419.702 497.68C419.275 498.08 418.768 498.28 418.182 498.28C417.622 498.28 417.115 498.067 416.662 497.64C416.235 497.187 416.022 496.68 416.022 496.12C416.022 495.56 416.235 495.067 416.662 494.64C417.115 494.187 417.622 493.96 418.182 493.96C418.742 493.96 419.235 494.187 419.662 494.64C420.115 495.067 420.342 495.56 420.342 496.12ZM420.342 512.12C420.342 512.733 420.128 513.253 419.702 513.68C419.275 514.08 418.768 514.28 418.182 514.28C417.622 514.28 417.115 514.067 416.662 513.64C416.235 513.187 416.022 512.68 416.022 512.12C416.022 511.56 416.235 511.067 416.662 510.64C417.115 510.187 417.622 509.96 418.182 509.96C418.742 509.96 419.235 510.187 419.662 510.64C420.115 511.067 420.342 511.56 420.342 512.12ZM423.985 517.08C425.051 515.293 425.798 513.92 426.225 512.96C427.798 509.36 428.585 505.64 428.585 501.8C428.585 497.48 427.865 493.787 426.425 490.72C425.811 489.52 424.998 488.107 423.985 486.48H427.465C430.531 490.8 432.065 495.867 432.065 501.68C432.065 507.627 430.531 512.76 427.465 517.08H423.985Z" fill="#0E4542"/>
<defs>
<filter id="filter0_f" x="0" y="0" width="639" height="222" filterUnits="userSpaceOnUse" color-interpolation-filters="sRGB">
<feFlood flood-opacity="0" result="BackgroundImageFix"/>
<feBlend mode="normal" in="SourceGraphic" in2="BackgroundImageFix" result="shape"/>
<feGaussianBlur stdDeviation="30" result="effect1_foregroundBlur"/>
</filter>
</defs>
</svg>
