<svg width="639" height="598" viewBox="0 0 639 598" fill="none" xmlns="http://www.w3.org/2000/svg">
<path d="M73.7002 581.683C73.7002 582.571 73.5342 583.362 73.2021 584.056C72.8799 584.749 72.4258 585.34 71.8398 585.828C71.2637 586.307 70.5801 586.668 69.7891 586.912C69.0078 587.156 68.1631 587.278 67.2549 587.278C66.6201 587.278 66.0293 587.225 65.4824 587.117C64.9453 587.01 64.4619 586.878 64.0322 586.722C63.6123 586.565 63.2559 586.404 62.9629 586.238C62.6797 586.072 62.4795 585.931 62.3623 585.813C62.2549 585.696 62.1719 585.55 62.1133 585.374C62.0645 585.188 62.04 584.944 62.04 584.642C62.04 584.427 62.0498 584.251 62.0693 584.114C62.0889 583.968 62.1182 583.851 62.1572 583.763C62.1963 583.675 62.2451 583.616 62.3037 583.587C62.3623 583.548 62.4307 583.528 62.5088 583.528C62.6455 583.528 62.8359 583.611 63.0801 583.777C63.334 583.943 63.6562 584.124 64.0469 584.319C64.4375 584.515 64.9062 584.7 65.4531 584.876C66.0098 585.042 66.6494 585.125 67.3721 585.125C67.9189 585.125 68.417 585.052 68.8662 584.905C69.3252 584.759 69.7158 584.554 70.0381 584.29C70.3701 584.017 70.624 583.685 70.7998 583.294C70.9756 582.903 71.0635 582.459 71.0635 581.961C71.0635 581.424 70.9414 580.965 70.6973 580.584C70.4531 580.203 70.1309 579.871 69.7305 579.588C69.3301 579.295 68.8711 579.031 68.3535 578.797C67.8457 578.553 67.3232 578.309 66.7861 578.064C66.249 577.811 65.7266 577.532 65.2188 577.229C64.7109 576.927 64.2568 576.57 63.8564 576.16C63.4561 575.75 63.1289 575.271 62.875 574.725C62.6309 574.168 62.5088 573.504 62.5088 572.732C62.5088 571.941 62.6504 571.238 62.9336 570.623C63.2266 569.998 63.627 569.476 64.1348 569.056C64.6523 568.636 65.2627 568.318 65.9658 568.104C66.6787 567.879 67.4453 567.767 68.2656 567.767C68.6855 567.767 69.1055 567.806 69.5254 567.884C69.9551 567.952 70.3555 568.05 70.7266 568.177C71.1074 568.294 71.4443 568.431 71.7373 568.587C72.0303 568.733 72.2207 568.855 72.3086 568.953C72.4062 569.041 72.4697 569.114 72.499 569.173C72.5283 569.222 72.5527 569.29 72.5723 569.378C72.5918 569.456 72.6064 569.554 72.6162 569.671C72.626 569.788 72.6309 569.939 72.6309 570.125C72.6309 570.301 72.6211 570.457 72.6016 570.594C72.5918 570.73 72.5723 570.848 72.543 570.945C72.5137 571.033 72.4697 571.102 72.4111 571.15C72.3623 571.189 72.3037 571.209 72.2354 571.209C72.1279 571.209 71.957 571.141 71.7227 571.004C71.498 570.867 71.2197 570.716 70.8877 570.55C70.5557 570.374 70.1602 570.218 69.7012 570.081C69.252 569.935 68.7441 569.861 68.1777 569.861C67.6504 569.861 67.1914 569.935 66.8008 570.081C66.4102 570.218 66.0879 570.403 65.834 570.638C65.5801 570.872 65.3896 571.15 65.2627 571.473C65.1357 571.795 65.0723 572.137 65.0723 572.498C65.0723 573.025 65.1943 573.479 65.4385 573.86C65.6826 574.241 66.0049 574.578 66.4053 574.871C66.8154 575.164 67.2793 575.433 67.7969 575.677C68.3145 575.921 68.8418 576.17 69.3789 576.424C69.916 576.668 70.4434 576.941 70.9609 577.244C71.4785 577.537 71.9375 577.889 72.3379 578.299C72.748 578.699 73.0752 579.178 73.3193 579.734C73.5732 580.281 73.7002 580.931 73.7002 581.683ZM88.334 586.634C88.334 586.712 88.3145 586.78 88.2754 586.839C88.2461 586.888 88.1875 586.932 88.0996 586.971C88.0117 587.01 87.8945 587.039 87.748 587.059C87.6113 587.078 87.4404 587.088 87.2354 587.088C87.0107 587.088 86.8252 587.078 86.6787 587.059C86.542 587.039 86.4297 587.01 86.3418 586.971C86.2637 586.932 86.21 586.888 86.1807 586.839C86.1514 586.78 86.1367 586.712 86.1367 586.634V584.891C85.3848 585.721 84.6426 586.326 83.9102 586.707C83.1777 587.088 82.4355 587.278 81.6836 587.278C80.8047 587.278 80.0625 587.132 79.457 586.839C78.8613 586.546 78.3779 586.15 78.0068 585.652C77.6357 585.145 77.3672 584.559 77.2012 583.895C77.0449 583.221 76.9668 582.405 76.9668 581.448V573.45C76.9668 573.372 76.9814 573.309 77.0107 573.26C77.0498 573.201 77.1182 573.152 77.2158 573.113C77.3135 573.064 77.4404 573.035 77.5967 573.025C77.7529 573.006 77.9482 572.996 78.1826 572.996C78.417 572.996 78.6123 573.006 78.7686 573.025C78.9248 573.035 79.0469 573.064 79.1348 573.113C79.2324 573.152 79.3008 573.201 79.3398 573.26C79.3789 573.309 79.3984 573.372 79.3984 573.45V581.126C79.3984 581.897 79.4521 582.518 79.5596 582.986C79.6768 583.445 79.8477 583.841 80.0723 584.173C80.3066 584.495 80.5996 584.749 80.9512 584.935C81.3027 585.11 81.7129 585.198 82.1816 585.198C82.7871 585.198 83.3877 584.983 83.9834 584.554C84.5889 584.124 85.2285 583.494 85.9023 582.664V573.45C85.9023 573.372 85.917 573.309 85.9463 573.26C85.9854 573.201 86.0537 573.152 86.1514 573.113C86.249 573.064 86.3711 573.035 86.5176 573.025C86.6738 573.006 86.874 572.996 87.1182 572.996C87.3525 572.996 87.5479 573.006 87.7041 573.025C87.8604 573.035 87.9824 573.064 88.0703 573.113C88.1582 573.152 88.2217 573.201 88.2607 573.26C88.3096 573.309 88.334 573.372 88.334 573.45V586.634ZM104.096 586.634C104.096 586.712 104.076 586.78 104.037 586.839C104.008 586.897 103.949 586.946 103.861 586.985C103.783 587.015 103.676 587.039 103.539 587.059C103.402 587.078 103.236 587.088 103.041 587.088C102.836 587.088 102.665 587.078 102.528 587.059C102.392 587.039 102.279 587.015 102.191 586.985C102.104 586.946 102.04 586.897 102.001 586.839C101.962 586.78 101.942 586.712 101.942 586.634V584.891C101.249 585.643 100.526 586.229 99.7744 586.648C99.0322 587.068 98.2168 587.278 97.3281 587.278C96.3613 587.278 95.5361 587.093 94.8525 586.722C94.1689 586.341 93.6123 585.833 93.1826 585.198C92.7627 584.554 92.4551 583.802 92.2598 582.942C92.0645 582.073 91.9668 581.16 91.9668 580.203C91.9668 579.07 92.0889 578.05 92.333 577.142C92.5771 576.224 92.9385 575.442 93.417 574.798C93.8955 574.153 94.4863 573.66 95.1895 573.318C95.9023 572.967 96.7227 572.791 97.6504 572.791C98.4219 572.791 99.125 572.962 99.7598 573.304C100.404 573.636 101.039 574.129 101.664 574.783V567.122C101.664 567.054 101.679 566.99 101.708 566.932C101.747 566.863 101.815 566.814 101.913 566.785C102.011 566.746 102.133 566.717 102.279 566.697C102.436 566.668 102.631 566.653 102.865 566.653C103.109 566.653 103.31 566.668 103.466 566.697C103.622 566.717 103.744 566.746 103.832 566.785C103.92 566.814 103.983 566.863 104.022 566.932C104.071 566.99 104.096 567.054 104.096 567.122V586.634ZM101.664 577.361C101.01 576.551 100.375 575.936 99.7598 575.516C99.1543 575.086 98.5195 574.871 97.8555 574.871C97.2402 574.871 96.7178 575.018 96.2881 575.311C95.8584 575.604 95.5068 575.989 95.2334 576.468C94.9697 576.946 94.7744 577.488 94.6475 578.094C94.5303 578.699 94.4717 579.314 94.4717 579.939C94.4717 580.604 94.5205 581.253 94.6182 581.888C94.7256 582.522 94.9062 583.089 95.1602 583.587C95.4141 584.075 95.751 584.471 96.1709 584.773C96.5908 585.066 97.1182 585.213 97.7529 585.213C98.0752 585.213 98.3828 585.169 98.6758 585.081C98.9785 584.993 99.2861 584.847 99.5986 584.642C99.9111 584.437 100.238 584.173 100.58 583.851C100.922 583.519 101.283 583.113 101.664 582.635V577.361ZM118.495 586.648C118.495 586.766 118.456 586.854 118.378 586.912C118.3 586.971 118.192 587.015 118.056 587.044C117.919 587.073 117.719 587.088 117.455 587.088C117.201 587.088 116.996 587.073 116.84 587.044C116.693 587.015 116.586 586.971 116.518 586.912C116.449 586.854 116.415 586.766 116.415 586.648V585.33C115.839 585.945 115.194 586.424 114.481 586.766C113.778 587.107 113.031 587.278 112.24 587.278C111.547 587.278 110.917 587.186 110.351 587C109.794 586.824 109.315 586.565 108.915 586.224C108.524 585.882 108.217 585.462 107.992 584.964C107.777 584.466 107.67 583.899 107.67 583.265C107.67 582.522 107.821 581.878 108.124 581.331C108.427 580.784 108.861 580.33 109.428 579.969C109.994 579.607 110.688 579.339 111.508 579.163C112.328 578.978 113.251 578.885 114.276 578.885H116.093V577.859C116.093 577.352 116.039 576.902 115.932 576.512C115.824 576.121 115.648 575.799 115.404 575.545C115.17 575.281 114.862 575.086 114.481 574.959C114.101 574.822 113.632 574.754 113.075 574.754C112.479 574.754 111.942 574.827 111.464 574.974C110.995 575.11 110.58 575.267 110.219 575.442C109.867 575.608 109.569 575.765 109.325 575.911C109.091 576.048 108.915 576.116 108.798 576.116C108.72 576.116 108.651 576.097 108.593 576.058C108.534 576.019 108.48 575.96 108.432 575.882C108.393 575.804 108.363 575.706 108.344 575.589C108.324 575.462 108.314 575.325 108.314 575.179C108.314 574.935 108.329 574.744 108.358 574.607C108.397 574.461 108.48 574.324 108.607 574.197C108.744 574.07 108.974 573.924 109.296 573.758C109.618 573.582 109.989 573.426 110.409 573.289C110.829 573.143 111.288 573.025 111.786 572.938C112.284 572.84 112.787 572.791 113.295 572.791C114.242 572.791 115.048 572.898 115.712 573.113C116.376 573.328 116.913 573.646 117.323 574.065C117.733 574.476 118.031 574.988 118.217 575.604C118.402 576.219 118.495 576.937 118.495 577.757V586.648ZM116.093 580.628H114.027C113.363 580.628 112.787 580.687 112.299 580.804C111.811 580.911 111.405 581.077 111.083 581.302C110.761 581.517 110.521 581.78 110.365 582.093C110.219 582.396 110.146 582.747 110.146 583.147C110.146 583.831 110.36 584.378 110.79 584.788C111.229 585.188 111.84 585.389 112.621 585.389C113.256 585.389 113.842 585.228 114.379 584.905C114.926 584.583 115.497 584.09 116.093 583.426V580.628ZM134.301 586.634C134.301 586.712 134.281 586.78 134.242 586.839C134.203 586.888 134.14 586.932 134.052 586.971C133.964 587.01 133.842 587.039 133.686 587.059C133.529 587.078 133.334 587.088 133.1 587.088C132.855 587.088 132.655 587.078 132.499 587.059C132.343 587.039 132.221 587.01 132.133 586.971C132.045 586.932 131.981 586.888 131.942 586.839C131.903 586.78 131.884 586.712 131.884 586.634V578.914C131.884 578.162 131.825 577.557 131.708 577.098C131.591 576.639 131.42 576.243 131.195 575.911C130.971 575.579 130.678 575.325 130.316 575.149C129.965 574.974 129.555 574.886 129.086 574.886C128.48 574.886 127.875 575.101 127.27 575.53C126.664 575.96 126.029 576.59 125.365 577.42V586.634C125.365 586.712 125.346 586.78 125.307 586.839C125.268 586.888 125.204 586.932 125.116 586.971C125.028 587.01 124.906 587.039 124.75 587.059C124.594 587.078 124.394 587.088 124.149 587.088C123.915 587.088 123.72 587.078 123.563 587.059C123.407 587.039 123.28 587.01 123.183 586.971C123.095 586.932 123.031 586.888 122.992 586.839C122.963 586.78 122.948 586.712 122.948 586.634V567.063C122.948 566.985 122.963 566.917 122.992 566.858C123.031 566.8 123.095 566.751 123.183 566.712C123.28 566.673 123.407 566.644 123.563 566.624C123.72 566.604 123.915 566.595 124.149 566.595C124.394 566.595 124.594 566.604 124.75 566.624C124.906 566.644 125.028 566.673 125.116 566.712C125.204 566.751 125.268 566.8 125.307 566.858C125.346 566.917 125.365 566.985 125.365 567.063V574.959C126.059 574.227 126.757 573.685 127.46 573.333C128.163 572.972 128.871 572.791 129.584 572.791C130.463 572.791 131.2 572.942 131.796 573.245C132.401 573.538 132.89 573.934 133.261 574.432C133.632 574.93 133.896 575.516 134.052 576.189C134.218 576.854 134.301 577.659 134.301 578.606V586.634ZM165.062 586.634C165.062 586.712 165.043 586.78 165.004 586.839C164.965 586.888 164.901 586.932 164.813 586.971C164.726 587.01 164.604 587.039 164.447 587.059C164.291 587.078 164.096 587.088 163.861 587.088C163.617 587.088 163.417 587.078 163.261 587.059C163.104 587.039 162.978 587.01 162.88 586.971C162.792 586.932 162.729 586.888 162.689 586.839C162.65 586.78 162.631 586.712 162.631 586.634V578.621C162.631 578.064 162.582 577.557 162.484 577.098C162.387 576.639 162.23 576.243 162.016 575.911C161.801 575.579 161.527 575.325 161.195 575.149C160.863 574.974 160.473 574.886 160.023 574.886C159.467 574.886 158.905 575.101 158.339 575.53C157.782 575.96 157.167 576.59 156.493 577.42V586.634C156.493 586.712 156.474 586.78 156.435 586.839C156.396 586.888 156.327 586.932 156.229 586.971C156.142 587.01 156.02 587.039 155.863 587.059C155.707 587.078 155.512 587.088 155.277 587.088C155.053 587.088 154.857 587.078 154.691 587.059C154.535 587.039 154.408 587.01 154.311 586.971C154.223 586.932 154.159 586.888 154.12 586.839C154.091 586.78 154.076 586.712 154.076 586.634V578.621C154.076 578.064 154.022 577.557 153.915 577.098C153.808 576.639 153.646 576.243 153.432 575.911C153.217 575.579 152.943 575.325 152.611 575.149C152.289 574.974 151.903 574.886 151.454 574.886C150.897 574.886 150.336 575.101 149.77 575.53C149.203 575.96 148.588 576.59 147.924 577.42V586.634C147.924 586.712 147.904 586.78 147.865 586.839C147.826 586.888 147.763 586.932 147.675 586.971C147.587 587.01 147.465 587.039 147.309 587.059C147.152 587.078 146.952 587.088 146.708 587.088C146.474 587.088 146.278 587.078 146.122 587.059C145.966 587.039 145.839 587.01 145.741 586.971C145.653 586.932 145.59 586.888 145.551 586.839C145.521 586.78 145.507 586.712 145.507 586.634V573.45C145.507 573.372 145.521 573.309 145.551 573.26C145.58 573.201 145.639 573.152 145.727 573.113C145.814 573.064 145.927 573.035 146.063 573.025C146.2 573.006 146.381 572.996 146.605 572.996C146.82 572.996 146.996 573.006 147.133 573.025C147.279 573.035 147.392 573.064 147.47 573.113C147.548 573.152 147.602 573.201 147.631 573.26C147.67 573.309 147.689 573.372 147.689 573.45V575.193C148.432 574.363 149.149 573.758 149.843 573.377C150.546 572.986 151.254 572.791 151.967 572.791C152.514 572.791 153.002 572.854 153.432 572.981C153.871 573.108 154.257 573.289 154.589 573.523C154.921 573.748 155.204 574.021 155.438 574.344C155.673 574.656 155.868 575.008 156.024 575.398C156.464 574.92 156.879 574.515 157.27 574.183C157.67 573.851 158.051 573.582 158.412 573.377C158.783 573.172 159.14 573.025 159.481 572.938C159.833 572.84 160.185 572.791 160.536 572.791C161.386 572.791 162.099 572.942 162.675 573.245C163.251 573.538 163.715 573.934 164.066 574.432C164.428 574.93 164.682 575.516 164.828 576.189C164.984 576.854 165.062 577.557 165.062 578.299V586.634ZM180.722 579.471C180.722 579.852 180.624 580.125 180.429 580.291C180.243 580.447 180.028 580.525 179.784 580.525H171.142C171.142 581.258 171.215 581.917 171.361 582.503C171.508 583.089 171.752 583.592 172.094 584.012C172.436 584.432 172.88 584.754 173.427 584.979C173.974 585.203 174.643 585.315 175.434 585.315C176.059 585.315 176.615 585.267 177.104 585.169C177.592 585.062 178.012 584.944 178.363 584.817C178.725 584.69 179.018 584.578 179.242 584.48C179.477 584.373 179.652 584.319 179.77 584.319C179.838 584.319 179.896 584.339 179.945 584.378C180.004 584.407 180.048 584.456 180.077 584.524C180.106 584.593 180.126 584.69 180.136 584.817C180.155 584.935 180.165 585.081 180.165 585.257C180.165 585.384 180.16 585.496 180.15 585.594C180.141 585.682 180.126 585.765 180.106 585.843C180.097 585.911 180.072 585.975 180.033 586.033C180.004 586.092 179.96 586.15 179.901 586.209C179.853 586.258 179.696 586.346 179.433 586.473C179.169 586.59 178.827 586.707 178.407 586.824C177.987 586.941 177.499 587.044 176.942 587.132C176.396 587.229 175.81 587.278 175.185 587.278C174.101 587.278 173.148 587.127 172.328 586.824C171.518 586.521 170.834 586.072 170.277 585.477C169.721 584.881 169.301 584.134 169.018 583.235C168.734 582.337 168.593 581.292 168.593 580.101C168.593 578.968 168.739 577.952 169.032 577.054C169.325 576.146 169.745 575.379 170.292 574.754C170.849 574.119 171.518 573.636 172.299 573.304C173.08 572.962 173.954 572.791 174.921 572.791C175.956 572.791 176.835 572.957 177.558 573.289C178.29 573.621 178.891 574.07 179.359 574.637C179.828 575.193 180.17 575.853 180.385 576.614C180.609 577.366 180.722 578.172 180.722 579.031V579.471ZM178.29 578.753C178.319 577.483 178.036 576.487 177.44 575.765C176.854 575.042 175.98 574.681 174.818 574.681C174.223 574.681 173.7 574.793 173.251 575.018C172.802 575.242 172.426 575.54 172.123 575.911C171.82 576.282 171.586 576.717 171.42 577.215C171.254 577.703 171.161 578.216 171.142 578.753H178.29ZM195.766 586.634C195.766 586.712 195.746 586.78 195.707 586.839C195.668 586.888 195.604 586.932 195.517 586.971C195.429 587.01 195.307 587.039 195.15 587.059C194.994 587.078 194.799 587.088 194.564 587.088C194.32 587.088 194.12 587.078 193.964 587.059C193.808 587.039 193.686 587.01 193.598 586.971C193.51 586.932 193.446 586.888 193.407 586.839C193.368 586.78 193.349 586.712 193.349 586.634V578.914C193.349 578.162 193.29 577.557 193.173 577.098C193.056 576.639 192.885 576.243 192.66 575.911C192.436 575.579 192.143 575.325 191.781 575.149C191.43 574.974 191.02 574.886 190.551 574.886C189.945 574.886 189.34 575.101 188.734 575.53C188.129 575.96 187.494 576.59 186.83 577.42V586.634C186.83 586.712 186.811 586.78 186.771 586.839C186.732 586.888 186.669 586.932 186.581 586.971C186.493 587.01 186.371 587.039 186.215 587.059C186.059 587.078 185.858 587.088 185.614 587.088C185.38 587.088 185.185 587.078 185.028 587.059C184.872 587.039 184.745 587.01 184.647 586.971C184.56 586.932 184.496 586.888 184.457 586.839C184.428 586.78 184.413 586.712 184.413 586.634V573.45C184.413 573.372 184.428 573.309 184.457 573.26C184.486 573.201 184.545 573.152 184.633 573.113C184.721 573.064 184.833 573.035 184.97 573.025C185.106 573.006 185.287 572.996 185.512 572.996C185.727 572.996 185.902 573.006 186.039 573.025C186.186 573.035 186.298 573.064 186.376 573.113C186.454 573.152 186.508 573.201 186.537 573.26C186.576 573.309 186.596 573.372 186.596 573.45V575.193C187.338 574.363 188.075 573.758 188.808 573.377C189.55 572.986 190.297 572.791 191.049 572.791C191.928 572.791 192.665 572.942 193.261 573.245C193.866 573.538 194.354 573.934 194.726 574.432C195.097 574.93 195.36 575.516 195.517 576.189C195.683 576.854 195.766 577.654 195.766 578.592V586.634ZM205.624 587L203.866 591.849C203.808 592.005 203.656 592.122 203.412 592.2C203.178 592.288 202.816 592.332 202.328 592.332C202.074 592.332 201.869 592.317 201.713 592.288C201.557 592.269 201.435 592.229 201.347 592.171C201.269 592.112 201.225 592.034 201.215 591.937C201.205 591.839 201.229 591.722 201.288 591.585L203.104 587C203.017 586.961 202.934 586.897 202.855 586.81C202.777 586.722 202.724 586.629 202.694 586.531L197.992 573.934C197.914 573.729 197.875 573.567 197.875 573.45C197.875 573.333 197.914 573.24 197.992 573.172C198.07 573.104 198.197 573.06 198.373 573.04C198.549 573.011 198.783 572.996 199.076 572.996C199.369 572.996 199.599 573.006 199.765 573.025C199.931 573.035 200.062 573.06 200.16 573.099C200.258 573.138 200.326 573.196 200.365 573.274C200.414 573.343 200.463 573.44 200.512 573.567L204.276 584.144H204.32L207.953 573.509C208.012 573.323 208.08 573.206 208.158 573.157C208.246 573.099 208.373 573.06 208.539 573.04C208.705 573.011 208.944 572.996 209.257 572.996C209.53 572.996 209.755 573.011 209.931 573.04C210.106 573.06 210.233 573.104 210.312 573.172C210.399 573.24 210.443 573.333 210.443 573.45C210.443 573.567 210.414 573.714 210.355 573.89L205.624 587ZM224.081 579.471C224.081 579.852 223.983 580.125 223.788 580.291C223.603 580.447 223.388 580.525 223.144 580.525H214.501C214.501 581.258 214.574 581.917 214.721 582.503C214.867 583.089 215.111 583.592 215.453 584.012C215.795 584.432 216.239 584.754 216.786 584.979C217.333 585.203 218.002 585.315 218.793 585.315C219.418 585.315 219.975 585.267 220.463 585.169C220.951 585.062 221.371 584.944 221.723 584.817C222.084 584.69 222.377 584.578 222.602 584.48C222.836 584.373 223.012 584.319 223.129 584.319C223.197 584.319 223.256 584.339 223.305 584.378C223.363 584.407 223.407 584.456 223.437 584.524C223.466 584.593 223.485 584.69 223.495 584.817C223.515 584.935 223.524 585.081 223.524 585.257C223.524 585.384 223.52 585.496 223.51 585.594C223.5 585.682 223.485 585.765 223.466 585.843C223.456 585.911 223.432 585.975 223.393 586.033C223.363 586.092 223.319 586.15 223.261 586.209C223.212 586.258 223.056 586.346 222.792 586.473C222.528 586.59 222.187 586.707 221.767 586.824C221.347 586.941 220.858 587.044 220.302 587.132C219.755 587.229 219.169 587.278 218.544 587.278C217.46 587.278 216.508 587.127 215.688 586.824C214.877 586.521 214.193 586.072 213.637 585.477C213.08 584.881 212.66 584.134 212.377 583.235C212.094 582.337 211.952 581.292 211.952 580.101C211.952 578.968 212.099 577.952 212.392 577.054C212.685 576.146 213.104 575.379 213.651 574.754C214.208 574.119 214.877 573.636 215.658 573.304C216.439 572.962 217.313 572.791 218.28 572.791C219.315 572.791 220.194 572.957 220.917 573.289C221.649 573.621 222.25 574.07 222.719 574.637C223.188 575.193 223.529 575.853 223.744 576.614C223.969 577.366 224.081 578.172 224.081 579.031V579.471ZM221.649 578.753C221.679 577.483 221.396 576.487 220.8 575.765C220.214 575.042 219.34 574.681 218.178 574.681C217.582 574.681 217.06 574.793 216.61 575.018C216.161 575.242 215.785 575.54 215.482 575.911C215.18 576.282 214.945 576.717 214.779 577.215C214.613 577.703 214.521 578.216 214.501 578.753H221.649ZM230.189 586.634C230.189 586.712 230.17 586.78 230.131 586.839C230.092 586.888 230.028 586.932 229.94 586.971C229.853 587.01 229.73 587.039 229.574 587.059C229.418 587.078 229.218 587.088 228.974 587.088C228.739 587.088 228.544 587.078 228.388 587.059C228.231 587.039 228.104 587.01 228.007 586.971C227.919 586.932 227.855 586.888 227.816 586.839C227.787 586.78 227.772 586.712 227.772 586.634V567.063C227.772 566.985 227.787 566.917 227.816 566.858C227.855 566.8 227.919 566.751 228.007 566.712C228.104 566.673 228.231 566.644 228.388 566.624C228.544 566.604 228.739 566.595 228.974 566.595C229.218 566.595 229.418 566.604 229.574 566.624C229.73 566.644 229.853 566.673 229.94 566.712C230.028 566.751 230.092 566.8 230.131 566.858C230.17 566.917 230.189 566.985 230.189 567.063V586.634ZM245.907 579.471C245.907 579.852 245.81 580.125 245.614 580.291C245.429 580.447 245.214 580.525 244.97 580.525H236.327C236.327 581.258 236.4 581.917 236.547 582.503C236.693 583.089 236.938 583.592 237.279 584.012C237.621 584.432 238.065 584.754 238.612 584.979C239.159 585.203 239.828 585.315 240.619 585.315C241.244 585.315 241.801 585.267 242.289 585.169C242.777 585.062 243.197 584.944 243.549 584.817C243.91 584.69 244.203 584.578 244.428 584.48C244.662 584.373 244.838 584.319 244.955 584.319C245.023 584.319 245.082 584.339 245.131 584.378C245.189 584.407 245.233 584.456 245.263 584.524C245.292 584.593 245.312 584.69 245.321 584.817C245.341 584.935 245.351 585.081 245.351 585.257C245.351 585.384 245.346 585.496 245.336 585.594C245.326 585.682 245.312 585.765 245.292 585.843C245.282 585.911 245.258 585.975 245.219 586.033C245.189 586.092 245.146 586.15 245.087 586.209C245.038 586.258 244.882 586.346 244.618 586.473C244.354 586.59 244.013 586.707 243.593 586.824C243.173 586.941 242.685 587.044 242.128 587.132C241.581 587.229 240.995 587.278 240.37 587.278C239.286 587.278 238.334 587.127 237.514 586.824C236.703 586.521 236.02 586.072 235.463 585.477C234.906 584.881 234.486 584.134 234.203 583.235C233.92 582.337 233.778 581.292 233.778 580.101C233.778 578.968 233.925 577.952 234.218 577.054C234.511 576.146 234.931 575.379 235.478 574.754C236.034 574.119 236.703 573.636 237.484 573.304C238.266 572.962 239.14 572.791 240.106 572.791C241.142 572.791 242.021 572.957 242.743 573.289C243.476 573.621 244.076 574.07 244.545 574.637C245.014 575.193 245.355 575.853 245.57 576.614C245.795 577.366 245.907 578.172 245.907 579.031V579.471ZM243.476 578.753C243.505 577.483 243.222 576.487 242.626 575.765C242.04 575.042 241.166 574.681 240.004 574.681C239.408 574.681 238.886 574.793 238.437 575.018C237.987 575.242 237.611 575.54 237.309 575.911C237.006 576.282 236.771 576.717 236.605 577.215C236.439 577.703 236.347 578.216 236.327 578.753H243.476ZM257.875 583.045C257.875 583.719 257.748 584.319 257.494 584.847C257.25 585.374 256.898 585.818 256.439 586.18C255.98 586.541 255.434 586.814 254.799 587C254.164 587.186 253.466 587.278 252.704 587.278C252.235 587.278 251.786 587.239 251.356 587.161C250.937 587.093 250.556 587.005 250.214 586.897C249.882 586.78 249.599 586.663 249.364 586.546C249.13 586.419 248.959 586.307 248.852 586.209C248.744 586.111 248.666 585.975 248.617 585.799C248.568 585.623 248.544 585.384 248.544 585.081C248.544 584.896 248.554 584.739 248.573 584.612C248.593 584.485 248.617 584.383 248.646 584.305C248.676 584.227 248.715 584.173 248.764 584.144C248.822 584.104 248.886 584.085 248.954 584.085C249.062 584.085 249.218 584.153 249.423 584.29C249.638 584.417 249.896 584.559 250.199 584.715C250.512 584.871 250.878 585.018 251.298 585.154C251.718 585.281 252.201 585.345 252.748 585.345C253.158 585.345 253.529 585.301 253.861 585.213C254.193 585.125 254.481 584.998 254.726 584.832C254.97 584.656 255.155 584.437 255.282 584.173C255.419 583.909 255.487 583.597 255.487 583.235C255.487 582.864 255.39 582.552 255.194 582.298C255.009 582.044 254.76 581.819 254.447 581.624C254.135 581.429 253.783 581.258 253.393 581.111C253.002 580.955 252.597 580.794 252.177 580.628C251.767 580.462 251.361 580.276 250.961 580.071C250.57 579.856 250.219 579.598 249.906 579.295C249.594 578.992 249.34 578.631 249.145 578.211C248.959 577.791 248.866 577.288 248.866 576.702C248.866 576.185 248.964 575.691 249.159 575.223C249.364 574.744 249.667 574.329 250.067 573.978C250.468 573.616 250.966 573.328 251.562 573.113C252.167 572.898 252.87 572.791 253.671 572.791C254.022 572.791 254.374 572.82 254.726 572.879C255.077 572.938 255.395 573.011 255.678 573.099C255.961 573.187 256.2 573.284 256.396 573.392C256.601 573.489 256.752 573.577 256.85 573.655C256.957 573.733 257.025 573.802 257.055 573.86C257.094 573.919 257.118 573.987 257.128 574.065C257.147 574.134 257.162 574.222 257.172 574.329C257.191 574.437 257.201 574.568 257.201 574.725C257.201 574.891 257.191 575.037 257.172 575.164C257.162 575.281 257.138 575.379 257.099 575.457C257.069 575.535 257.03 575.594 256.981 575.633C256.933 575.662 256.879 575.677 256.82 575.677C256.732 575.677 256.605 575.623 256.439 575.516C256.273 575.408 256.059 575.296 255.795 575.179C255.531 575.052 255.219 574.935 254.857 574.827C254.506 574.72 254.101 574.666 253.642 574.666C253.231 574.666 252.87 574.715 252.558 574.812C252.245 574.9 251.986 575.032 251.781 575.208C251.586 575.374 251.435 575.574 251.327 575.809C251.229 576.043 251.181 576.297 251.181 576.57C251.181 576.951 251.278 577.273 251.474 577.537C251.669 577.791 251.923 578.016 252.235 578.211C252.548 578.406 252.904 578.582 253.305 578.738C253.705 578.895 254.11 579.056 254.521 579.222C254.94 579.388 255.351 579.573 255.751 579.778C256.161 579.983 256.522 580.232 256.835 580.525C257.147 580.818 257.396 581.17 257.582 581.58C257.777 581.99 257.875 582.479 257.875 583.045ZM271.278 586.648C271.278 586.766 271.239 586.854 271.161 586.912C271.083 586.971 270.976 587.015 270.839 587.044C270.702 587.073 270.502 587.088 270.238 587.088C269.984 587.088 269.779 587.073 269.623 587.044C269.477 587.015 269.369 586.971 269.301 586.912C269.232 586.854 269.198 586.766 269.198 586.648V585.33C268.622 585.945 267.978 586.424 267.265 586.766C266.562 587.107 265.814 587.278 265.023 587.278C264.33 587.278 263.7 587.186 263.134 587C262.577 586.824 262.099 586.565 261.698 586.224C261.308 585.882 261 585.462 260.775 584.964C260.561 584.466 260.453 583.899 260.453 583.265C260.453 582.522 260.604 581.878 260.907 581.331C261.21 580.784 261.645 580.33 262.211 579.969C262.777 579.607 263.471 579.339 264.291 579.163C265.111 578.978 266.034 578.885 267.06 578.885H268.876V577.859C268.876 577.352 268.822 576.902 268.715 576.512C268.607 576.121 268.432 575.799 268.188 575.545C267.953 575.281 267.646 575.086 267.265 574.959C266.884 574.822 266.415 574.754 265.858 574.754C265.263 574.754 264.726 574.827 264.247 574.974C263.778 575.11 263.363 575.267 263.002 575.442C262.65 575.608 262.353 575.765 262.108 575.911C261.874 576.048 261.698 576.116 261.581 576.116C261.503 576.116 261.435 576.097 261.376 576.058C261.317 576.019 261.264 575.96 261.215 575.882C261.176 575.804 261.146 575.706 261.127 575.589C261.107 575.462 261.098 575.325 261.098 575.179C261.098 574.935 261.112 574.744 261.142 574.607C261.181 574.461 261.264 574.324 261.391 574.197C261.527 574.07 261.757 573.924 262.079 573.758C262.401 573.582 262.772 573.426 263.192 573.289C263.612 573.143 264.071 573.025 264.569 572.938C265.067 572.84 265.57 572.791 266.078 572.791C267.025 572.791 267.831 572.898 268.495 573.113C269.159 573.328 269.696 573.646 270.106 574.065C270.517 574.476 270.814 574.988 271 575.604C271.186 576.219 271.278 576.937 271.278 577.757V586.648ZM268.876 580.628H266.811C266.146 580.628 265.57 580.687 265.082 580.804C264.594 580.911 264.188 581.077 263.866 581.302C263.544 581.517 263.305 581.78 263.148 582.093C263.002 582.396 262.929 582.747 262.929 583.147C262.929 583.831 263.144 584.378 263.573 584.788C264.013 585.188 264.623 585.389 265.404 585.389C266.039 585.389 266.625 585.228 267.162 584.905C267.709 584.583 268.28 584.09 268.876 583.426V580.628ZM278.148 586.634C278.148 586.712 278.129 586.78 278.09 586.839C278.051 586.888 277.987 586.932 277.899 586.971C277.812 587.01 277.689 587.039 277.533 587.059C277.377 587.078 277.177 587.088 276.933 587.088C276.698 587.088 276.503 587.078 276.347 587.059C276.19 587.039 276.063 587.01 275.966 586.971C275.878 586.932 275.814 586.888 275.775 586.839C275.746 586.78 275.731 586.712 275.731 586.634V573.45C275.731 573.382 275.746 573.318 275.775 573.26C275.814 573.201 275.878 573.152 275.966 573.113C276.063 573.074 276.19 573.045 276.347 573.025C276.503 573.006 276.698 572.996 276.933 572.996C277.177 572.996 277.377 573.006 277.533 573.025C277.689 573.045 277.812 573.074 277.899 573.113C277.987 573.152 278.051 573.201 278.09 573.26C278.129 573.318 278.148 573.382 278.148 573.45V586.634ZM278.427 568.997C278.427 569.563 278.319 569.949 278.104 570.154C277.89 570.359 277.494 570.462 276.918 570.462C276.352 570.462 275.961 570.364 275.746 570.169C275.541 569.964 275.438 569.583 275.438 569.026C275.438 568.46 275.546 568.074 275.761 567.869C275.976 567.664 276.371 567.562 276.947 567.562C277.514 567.562 277.899 567.664 278.104 567.869C278.319 568.064 278.427 568.44 278.427 568.997ZM293.441 586.619C293.441 586.697 293.422 586.766 293.383 586.824C293.344 586.883 293.275 586.932 293.178 586.971C293.09 587.01 292.963 587.039 292.797 587.059C292.631 587.078 292.421 587.088 292.167 587.088C291.903 587.088 291.684 587.078 291.508 587.059C291.342 587.049 291.2 587.029 291.083 587C290.966 586.961 290.868 586.912 290.79 586.854C290.722 586.785 290.658 586.707 290.6 586.619L285.033 579.324V586.634C285.033 586.712 285.014 586.78 284.975 586.839C284.936 586.888 284.872 586.932 284.784 586.971C284.696 587.01 284.574 587.039 284.418 587.059C284.262 587.078 284.062 587.088 283.817 587.088C283.583 587.088 283.388 587.078 283.231 587.059C283.075 587.039 282.948 587.01 282.851 586.971C282.763 586.932 282.699 586.888 282.66 586.839C282.631 586.78 282.616 586.712 282.616 586.634V567.063C282.616 566.985 282.631 566.917 282.66 566.858C282.699 566.8 282.763 566.751 282.851 566.712C282.948 566.673 283.075 566.644 283.231 566.624C283.388 566.604 283.583 566.595 283.817 566.595C284.062 566.595 284.262 566.604 284.418 566.624C284.574 566.644 284.696 566.673 284.784 566.712C284.872 566.751 284.936 566.8 284.975 566.858C285.014 566.917 285.033 566.985 285.033 567.063V578.987L290.014 573.509C290.092 573.411 290.175 573.333 290.263 573.274C290.351 573.206 290.453 573.152 290.57 573.113C290.697 573.064 290.844 573.035 291.01 573.025C291.176 573.006 291.376 572.996 291.61 572.996C291.854 572.996 292.06 573.006 292.226 573.025C292.392 573.035 292.523 573.06 292.621 573.099C292.729 573.128 292.802 573.172 292.841 573.23C292.89 573.279 292.914 573.348 292.914 573.436C292.914 573.553 292.88 573.67 292.812 573.787C292.753 573.904 292.65 574.041 292.504 574.197L287.729 578.973L293.09 585.931C293.217 586.097 293.305 586.233 293.354 586.341C293.412 586.438 293.441 586.531 293.441 586.619ZM305.673 586.648C305.673 586.766 305.634 586.854 305.556 586.912C305.478 586.971 305.37 587.015 305.233 587.044C305.097 587.073 304.896 587.088 304.633 587.088C304.379 587.088 304.174 587.073 304.018 587.044C303.871 587.015 303.764 586.971 303.695 586.912C303.627 586.854 303.593 586.766 303.593 586.648V585.33C303.017 585.945 302.372 586.424 301.659 586.766C300.956 587.107 300.209 587.278 299.418 587.278C298.725 587.278 298.095 587.186 297.528 587C296.972 586.824 296.493 586.565 296.093 586.224C295.702 585.882 295.395 585.462 295.17 584.964C294.955 584.466 294.848 583.899 294.848 583.265C294.848 582.522 294.999 581.878 295.302 581.331C295.604 580.784 296.039 580.33 296.605 579.969C297.172 579.607 297.865 579.339 298.686 579.163C299.506 578.978 300.429 578.885 301.454 578.885H303.271V577.859C303.271 577.352 303.217 576.902 303.109 576.512C303.002 576.121 302.826 575.799 302.582 575.545C302.348 575.281 302.04 575.086 301.659 574.959C301.278 574.822 300.81 574.754 300.253 574.754C299.657 574.754 299.12 574.827 298.642 574.974C298.173 575.11 297.758 575.267 297.396 575.442C297.045 575.608 296.747 575.765 296.503 575.911C296.269 576.048 296.093 576.116 295.976 576.116C295.897 576.116 295.829 576.097 295.771 576.058C295.712 576.019 295.658 575.96 295.609 575.882C295.57 575.804 295.541 575.706 295.521 575.589C295.502 575.462 295.492 575.325 295.492 575.179C295.492 574.935 295.507 574.744 295.536 574.607C295.575 574.461 295.658 574.324 295.785 574.197C295.922 574.07 296.151 573.924 296.474 573.758C296.796 573.582 297.167 573.426 297.587 573.289C298.007 573.143 298.466 573.025 298.964 572.938C299.462 572.84 299.965 572.791 300.473 572.791C301.42 572.791 302.226 572.898 302.89 573.113C303.554 573.328 304.091 573.646 304.501 574.065C304.911 574.476 305.209 574.988 305.395 575.604C305.58 576.219 305.673 576.937 305.673 577.757V586.648ZM303.271 580.628H301.205C300.541 580.628 299.965 580.687 299.477 580.804C298.988 580.911 298.583 581.077 298.261 581.302C297.938 581.517 297.699 581.78 297.543 582.093C297.396 582.396 297.323 582.747 297.323 583.147C297.323 583.831 297.538 584.378 297.968 584.788C298.407 585.188 299.018 585.389 299.799 585.389C300.434 585.389 301.02 585.228 301.557 584.905C302.104 584.583 302.675 584.09 303.271 583.426V580.628ZM321.479 586.634C321.479 586.712 321.459 586.78 321.42 586.839C321.381 586.888 321.317 586.932 321.229 586.971C321.142 587.01 321.02 587.039 320.863 587.059C320.707 587.078 320.512 587.088 320.277 587.088C320.033 587.088 319.833 587.078 319.677 587.059C319.521 587.039 319.398 587.01 319.311 586.971C319.223 586.932 319.159 586.888 319.12 586.839C319.081 586.78 319.062 586.712 319.062 586.634V578.914C319.062 578.162 319.003 577.557 318.886 577.098C318.769 576.639 318.598 576.243 318.373 575.911C318.148 575.579 317.855 575.325 317.494 575.149C317.143 574.974 316.732 574.886 316.264 574.886C315.658 574.886 315.053 575.101 314.447 575.53C313.842 575.96 313.207 576.59 312.543 577.42V586.634C312.543 586.712 312.523 586.78 312.484 586.839C312.445 586.888 312.382 586.932 312.294 586.971C312.206 587.01 312.084 587.039 311.928 587.059C311.771 587.078 311.571 587.088 311.327 587.088C311.093 587.088 310.897 587.078 310.741 587.059C310.585 587.039 310.458 587.01 310.36 586.971C310.272 586.932 310.209 586.888 310.17 586.839C310.141 586.78 310.126 586.712 310.126 586.634V573.45C310.126 573.372 310.141 573.309 310.17 573.26C310.199 573.201 310.258 573.152 310.346 573.113C310.434 573.064 310.546 573.035 310.683 573.025C310.819 573.006 311 572.996 311.225 572.996C311.439 572.996 311.615 573.006 311.752 573.025C311.898 573.035 312.011 573.064 312.089 573.113C312.167 573.152 312.221 573.201 312.25 573.26C312.289 573.309 312.309 573.372 312.309 573.45V575.193C313.051 574.363 313.788 573.758 314.521 573.377C315.263 572.986 316.01 572.791 316.762 572.791C317.641 572.791 318.378 572.942 318.974 573.245C319.579 573.538 320.067 573.934 320.438 574.432C320.81 574.93 321.073 575.516 321.229 576.189C321.396 576.854 321.479 577.654 321.479 578.592V586.634ZM343.51 586.619C343.51 586.697 343.49 586.766 343.451 586.824C343.412 586.883 343.344 586.932 343.246 586.971C343.158 587.01 343.031 587.039 342.865 587.059C342.699 587.078 342.489 587.088 342.235 587.088C341.972 587.088 341.752 587.078 341.576 587.059C341.41 587.049 341.269 587.029 341.151 587C341.034 586.961 340.937 586.912 340.858 586.854C340.79 586.785 340.727 586.707 340.668 586.619L335.102 579.324V586.634C335.102 586.712 335.082 586.78 335.043 586.839C335.004 586.888 334.94 586.932 334.853 586.971C334.765 587.01 334.643 587.039 334.486 587.059C334.33 587.078 334.13 587.088 333.886 587.088C333.651 587.088 333.456 587.078 333.3 587.059C333.144 587.039 333.017 587.01 332.919 586.971C332.831 586.932 332.768 586.888 332.729 586.839C332.699 586.78 332.685 586.712 332.685 586.634V567.063C332.685 566.985 332.699 566.917 332.729 566.858C332.768 566.8 332.831 566.751 332.919 566.712C333.017 566.673 333.144 566.644 333.3 566.624C333.456 566.604 333.651 566.595 333.886 566.595C334.13 566.595 334.33 566.604 334.486 566.624C334.643 566.644 334.765 566.673 334.853 566.712C334.94 566.751 335.004 566.8 335.043 566.858C335.082 566.917 335.102 566.985 335.102 567.063V578.987L340.082 573.509C340.16 573.411 340.243 573.333 340.331 573.274C340.419 573.206 340.521 573.152 340.639 573.113C340.766 573.064 340.912 573.035 341.078 573.025C341.244 573.006 341.444 572.996 341.679 572.996C341.923 572.996 342.128 573.006 342.294 573.025C342.46 573.035 342.592 573.06 342.689 573.099C342.797 573.128 342.87 573.172 342.909 573.23C342.958 573.279 342.982 573.348 342.982 573.436C342.982 573.553 342.948 573.67 342.88 573.787C342.821 573.904 342.719 574.041 342.572 574.197L337.797 578.973L343.158 585.931C343.285 586.097 343.373 586.233 343.422 586.341C343.48 586.438 343.51 586.531 343.51 586.619ZM357.25 586.634C357.25 586.712 357.23 586.78 357.191 586.839C357.162 586.888 357.104 586.932 357.016 586.971C356.928 587.01 356.811 587.039 356.664 587.059C356.527 587.078 356.356 587.088 356.151 587.088C355.927 587.088 355.741 587.078 355.595 587.059C355.458 587.039 355.346 587.01 355.258 586.971C355.18 586.932 355.126 586.888 355.097 586.839C355.067 586.78 355.053 586.712 355.053 586.634V584.891C354.301 585.721 353.559 586.326 352.826 586.707C352.094 587.088 351.352 587.278 350.6 587.278C349.721 587.278 348.979 587.132 348.373 586.839C347.777 586.546 347.294 586.15 346.923 585.652C346.552 585.145 346.283 584.559 346.117 583.895C345.961 583.221 345.883 582.405 345.883 581.448V573.45C345.883 573.372 345.897 573.309 345.927 573.26C345.966 573.201 346.034 573.152 346.132 573.113C346.229 573.064 346.356 573.035 346.513 573.025C346.669 573.006 346.864 572.996 347.099 572.996C347.333 572.996 347.528 573.006 347.685 573.025C347.841 573.035 347.963 573.064 348.051 573.113C348.148 573.152 348.217 573.201 348.256 573.26C348.295 573.309 348.314 573.372 348.314 573.45V581.126C348.314 581.897 348.368 582.518 348.476 582.986C348.593 583.445 348.764 583.841 348.988 584.173C349.223 584.495 349.516 584.749 349.867 584.935C350.219 585.11 350.629 585.198 351.098 585.198C351.703 585.198 352.304 584.983 352.899 584.554C353.505 584.124 354.145 583.494 354.818 582.664V573.45C354.818 573.372 354.833 573.309 354.862 573.26C354.901 573.201 354.97 573.152 355.067 573.113C355.165 573.064 355.287 573.035 355.434 573.025C355.59 573.006 355.79 572.996 356.034 572.996C356.269 572.996 356.464 573.006 356.62 573.025C356.776 573.035 356.898 573.064 356.986 573.113C357.074 573.152 357.138 573.201 357.177 573.26C357.226 573.309 357.25 573.372 357.25 573.45V586.634ZM364.135 586.634C364.135 586.712 364.115 586.78 364.076 586.839C364.037 586.888 363.974 586.932 363.886 586.971C363.798 587.01 363.676 587.039 363.52 587.059C363.363 587.078 363.163 587.088 362.919 587.088C362.685 587.088 362.489 587.078 362.333 587.059C362.177 587.039 362.05 587.01 361.952 586.971C361.864 586.932 361.801 586.888 361.762 586.839C361.732 586.78 361.718 586.712 361.718 586.634V573.45C361.718 573.382 361.732 573.318 361.762 573.26C361.801 573.201 361.864 573.152 361.952 573.113C362.05 573.074 362.177 573.045 362.333 573.025C362.489 573.006 362.685 572.996 362.919 572.996C363.163 572.996 363.363 573.006 363.52 573.025C363.676 573.045 363.798 573.074 363.886 573.113C363.974 573.152 364.037 573.201 364.076 573.26C364.115 573.318 364.135 573.382 364.135 573.45V586.634ZM364.413 568.997C364.413 569.563 364.306 569.949 364.091 570.154C363.876 570.359 363.48 570.462 362.904 570.462C362.338 570.462 361.947 570.364 361.732 570.169C361.527 569.964 361.425 569.583 361.425 569.026C361.425 568.46 361.532 568.074 361.747 567.869C361.962 567.664 362.357 567.562 362.934 567.562C363.5 567.562 363.886 567.664 364.091 567.869C364.306 568.064 364.413 568.44 364.413 568.997ZM376.879 583.045C376.879 583.719 376.752 584.319 376.498 584.847C376.254 585.374 375.902 585.818 375.443 586.18C374.984 586.541 374.438 586.814 373.803 587C373.168 587.186 372.47 587.278 371.708 587.278C371.239 587.278 370.79 587.239 370.36 587.161C369.94 587.093 369.56 587.005 369.218 586.897C368.886 586.78 368.603 586.663 368.368 586.546C368.134 586.419 367.963 586.307 367.855 586.209C367.748 586.111 367.67 585.975 367.621 585.799C367.572 585.623 367.548 585.384 367.548 585.081C367.548 584.896 367.558 584.739 367.577 584.612C367.597 584.485 367.621 584.383 367.65 584.305C367.68 584.227 367.719 584.173 367.768 584.144C367.826 584.104 367.89 584.085 367.958 584.085C368.065 584.085 368.222 584.153 368.427 584.29C368.642 584.417 368.9 584.559 369.203 584.715C369.516 584.871 369.882 585.018 370.302 585.154C370.722 585.281 371.205 585.345 371.752 585.345C372.162 585.345 372.533 585.301 372.865 585.213C373.197 585.125 373.485 584.998 373.729 584.832C373.974 584.656 374.159 584.437 374.286 584.173C374.423 583.909 374.491 583.597 374.491 583.235C374.491 582.864 374.394 582.552 374.198 582.298C374.013 582.044 373.764 581.819 373.451 581.624C373.139 581.429 372.787 581.258 372.396 581.111C372.006 580.955 371.601 580.794 371.181 580.628C370.771 580.462 370.365 580.276 369.965 580.071C369.574 579.856 369.223 579.598 368.91 579.295C368.598 578.992 368.344 578.631 368.148 578.211C367.963 577.791 367.87 577.288 367.87 576.702C367.87 576.185 367.968 575.691 368.163 575.223C368.368 574.744 368.671 574.329 369.071 573.978C369.472 573.616 369.97 573.328 370.565 573.113C371.171 572.898 371.874 572.791 372.675 572.791C373.026 572.791 373.378 572.82 373.729 572.879C374.081 572.938 374.398 573.011 374.682 573.099C374.965 573.187 375.204 573.284 375.399 573.392C375.604 573.489 375.756 573.577 375.854 573.655C375.961 573.733 376.029 573.802 376.059 573.86C376.098 573.919 376.122 573.987 376.132 574.065C376.151 574.134 376.166 574.222 376.176 574.329C376.195 574.437 376.205 574.568 376.205 574.725C376.205 574.891 376.195 575.037 376.176 575.164C376.166 575.281 376.142 575.379 376.103 575.457C376.073 575.535 376.034 575.594 375.985 575.633C375.937 575.662 375.883 575.677 375.824 575.677C375.736 575.677 375.609 575.623 375.443 575.516C375.277 575.408 375.062 575.296 374.799 575.179C374.535 575.052 374.223 574.935 373.861 574.827C373.51 574.72 373.104 574.666 372.646 574.666C372.235 574.666 371.874 574.715 371.562 574.812C371.249 574.9 370.99 575.032 370.785 575.208C370.59 575.374 370.438 575.574 370.331 575.809C370.233 576.043 370.185 576.297 370.185 576.57C370.185 576.951 370.282 577.273 370.478 577.537C370.673 577.791 370.927 578.016 371.239 578.211C371.552 578.406 371.908 578.582 372.309 578.738C372.709 578.895 373.114 579.056 373.524 579.222C373.944 579.388 374.354 579.573 374.755 579.778C375.165 579.983 375.526 580.232 375.839 580.525C376.151 580.818 376.4 581.17 376.586 581.58C376.781 581.99 376.879 582.479 376.879 583.045ZM389.564 586.634C389.564 586.712 389.545 586.78 389.506 586.839C389.467 586.888 389.403 586.932 389.315 586.971C389.228 587.01 389.105 587.039 388.949 587.059C388.793 587.078 388.593 587.088 388.349 587.088C388.114 587.088 387.919 587.078 387.763 587.059C387.606 587.039 387.479 587.01 387.382 586.971C387.294 586.932 387.23 586.888 387.191 586.839C387.162 586.78 387.147 586.712 387.147 586.634V573.45C387.147 573.382 387.162 573.318 387.191 573.26C387.23 573.201 387.294 573.152 387.382 573.113C387.479 573.074 387.606 573.045 387.763 573.025C387.919 573.006 388.114 572.996 388.349 572.996C388.593 572.996 388.793 573.006 388.949 573.025C389.105 573.045 389.228 573.074 389.315 573.113C389.403 573.152 389.467 573.201 389.506 573.26C389.545 573.318 389.564 573.382 389.564 573.45V586.634ZM389.843 568.997C389.843 569.563 389.735 569.949 389.521 570.154C389.306 570.359 388.91 570.462 388.334 570.462C387.768 570.462 387.377 570.364 387.162 570.169C386.957 569.964 386.854 569.583 386.854 569.026C386.854 568.46 386.962 568.074 387.177 567.869C387.392 567.664 387.787 567.562 388.363 567.562C388.93 567.562 389.315 567.664 389.521 567.869C389.735 568.064 389.843 568.44 389.843 568.997ZM405.385 586.634C405.385 586.712 405.365 586.78 405.326 586.839C405.287 586.888 405.224 586.932 405.136 586.971C405.048 587.01 404.926 587.039 404.77 587.059C404.613 587.078 404.418 587.088 404.184 587.088C403.939 587.088 403.739 587.078 403.583 587.059C403.427 587.039 403.305 587.01 403.217 586.971C403.129 586.932 403.065 586.888 403.026 586.839C402.987 586.78 402.968 586.712 402.968 586.634V578.914C402.968 578.162 402.909 577.557 402.792 577.098C402.675 576.639 402.504 576.243 402.279 575.911C402.055 575.579 401.762 575.325 401.4 575.149C401.049 574.974 400.639 574.886 400.17 574.886C399.564 574.886 398.959 575.101 398.354 575.53C397.748 575.96 397.113 576.59 396.449 577.42V586.634C396.449 586.712 396.43 586.78 396.391 586.839C396.352 586.888 396.288 586.932 396.2 586.971C396.112 587.01 395.99 587.039 395.834 587.059C395.678 587.078 395.478 587.088 395.233 587.088C394.999 587.088 394.804 587.078 394.647 587.059C394.491 587.039 394.364 587.01 394.267 586.971C394.179 586.932 394.115 586.888 394.076 586.839C394.047 586.78 394.032 586.712 394.032 586.634V573.45C394.032 573.372 394.047 573.309 394.076 573.26C394.105 573.201 394.164 573.152 394.252 573.113C394.34 573.064 394.452 573.035 394.589 573.025C394.726 573.006 394.906 572.996 395.131 572.996C395.346 572.996 395.521 573.006 395.658 573.025C395.805 573.035 395.917 573.064 395.995 573.113C396.073 573.152 396.127 573.201 396.156 573.26C396.195 573.309 396.215 573.372 396.215 573.45V575.193C396.957 574.363 397.694 573.758 398.427 573.377C399.169 572.986 399.916 572.791 400.668 572.791C401.547 572.791 402.284 572.942 402.88 573.245C403.485 573.538 403.974 573.934 404.345 574.432C404.716 574.93 404.979 575.516 405.136 576.189C405.302 576.854 405.385 577.654 405.385 578.592V586.634ZM412.211 586.634C412.211 586.712 412.191 586.78 412.152 586.839C412.113 586.888 412.05 586.932 411.962 586.971C411.874 587.01 411.752 587.039 411.596 587.059C411.439 587.078 411.239 587.088 410.995 587.088C410.761 587.088 410.565 587.078 410.409 587.059C410.253 587.039 410.126 587.01 410.028 586.971C409.94 586.932 409.877 586.888 409.838 586.839C409.809 586.78 409.794 586.712 409.794 586.634V573.45C409.794 573.382 409.809 573.318 409.838 573.26C409.877 573.201 409.94 573.152 410.028 573.113C410.126 573.074 410.253 573.045 410.409 573.025C410.565 573.006 410.761 572.996 410.995 572.996C411.239 572.996 411.439 573.006 411.596 573.025C411.752 573.045 411.874 573.074 411.962 573.113C412.05 573.152 412.113 573.201 412.152 573.26C412.191 573.318 412.211 573.382 412.211 573.45V586.634ZM412.489 568.997C412.489 569.563 412.382 569.949 412.167 570.154C411.952 570.359 411.557 570.462 410.98 570.462C410.414 570.462 410.023 570.364 409.809 570.169C409.604 569.964 409.501 569.583 409.501 569.026C409.501 568.46 409.608 568.074 409.823 567.869C410.038 567.664 410.434 567.562 411.01 567.562C411.576 567.562 411.962 567.664 412.167 567.869C412.382 568.064 412.489 568.44 412.489 568.997ZM434.77 586.634C434.77 586.712 434.75 586.78 434.711 586.839C434.682 586.897 434.623 586.946 434.535 586.985C434.457 587.015 434.35 587.039 434.213 587.059C434.076 587.078 433.91 587.088 433.715 587.088C433.51 587.088 433.339 587.078 433.202 587.059C433.065 587.039 432.953 587.015 432.865 586.985C432.777 586.946 432.714 586.897 432.675 586.839C432.636 586.78 432.616 586.712 432.616 586.634V584.891C431.923 585.643 431.2 586.229 430.448 586.648C429.706 587.068 428.891 587.278 428.002 587.278C427.035 587.278 426.21 587.093 425.526 586.722C424.843 586.341 424.286 585.833 423.856 585.198C423.437 584.554 423.129 583.802 422.934 582.942C422.738 582.073 422.641 581.16 422.641 580.203C422.641 579.07 422.763 578.05 423.007 577.142C423.251 576.224 423.612 575.442 424.091 574.798C424.569 574.153 425.16 573.66 425.863 573.318C426.576 572.967 427.396 572.791 428.324 572.791C429.096 572.791 429.799 572.962 430.434 573.304C431.078 573.636 431.713 574.129 432.338 574.783V567.122C432.338 567.054 432.353 566.99 432.382 566.932C432.421 566.863 432.489 566.814 432.587 566.785C432.685 566.746 432.807 566.717 432.953 566.697C433.109 566.668 433.305 566.653 433.539 566.653C433.783 566.653 433.983 566.668 434.14 566.697C434.296 566.717 434.418 566.746 434.506 566.785C434.594 566.814 434.657 566.863 434.696 566.932C434.745 566.99 434.77 567.054 434.77 567.122V586.634ZM432.338 577.361C431.684 576.551 431.049 575.936 430.434 575.516C429.828 575.086 429.193 574.871 428.529 574.871C427.914 574.871 427.392 575.018 426.962 575.311C426.532 575.604 426.181 575.989 425.907 576.468C425.644 576.946 425.448 577.488 425.321 578.094C425.204 578.699 425.146 579.314 425.146 579.939C425.146 580.604 425.194 581.253 425.292 581.888C425.399 582.522 425.58 583.089 425.834 583.587C426.088 584.075 426.425 584.471 426.845 584.773C427.265 585.066 427.792 585.213 428.427 585.213C428.749 585.213 429.057 585.169 429.35 585.081C429.652 584.993 429.96 584.847 430.272 584.642C430.585 584.437 430.912 584.173 431.254 583.851C431.596 583.519 431.957 583.113 432.338 582.635V577.361ZM450.487 579.471C450.487 579.852 450.39 580.125 450.194 580.291C450.009 580.447 449.794 580.525 449.55 580.525H440.907C440.907 581.258 440.98 581.917 441.127 582.503C441.273 583.089 441.518 583.592 441.859 584.012C442.201 584.432 442.646 584.754 443.192 584.979C443.739 585.203 444.408 585.315 445.199 585.315C445.824 585.315 446.381 585.267 446.869 585.169C447.357 585.062 447.777 584.944 448.129 584.817C448.49 584.69 448.783 584.578 449.008 584.48C449.242 584.373 449.418 584.319 449.535 584.319C449.604 584.319 449.662 584.339 449.711 584.378C449.77 584.407 449.813 584.456 449.843 584.524C449.872 584.593 449.892 584.69 449.901 584.817C449.921 584.935 449.931 585.081 449.931 585.257C449.931 585.384 449.926 585.496 449.916 585.594C449.906 585.682 449.892 585.765 449.872 585.843C449.862 585.911 449.838 585.975 449.799 586.033C449.77 586.092 449.726 586.15 449.667 586.209C449.618 586.258 449.462 586.346 449.198 586.473C448.935 586.59 448.593 586.707 448.173 586.824C447.753 586.941 447.265 587.044 446.708 587.132C446.161 587.229 445.575 587.278 444.95 587.278C443.866 587.278 442.914 587.127 442.094 586.824C441.283 586.521 440.6 586.072 440.043 585.477C439.486 584.881 439.066 584.134 438.783 583.235C438.5 582.337 438.358 581.292 438.358 580.101C438.358 578.968 438.505 577.952 438.798 577.054C439.091 576.146 439.511 575.379 440.058 574.754C440.614 574.119 441.283 573.636 442.064 573.304C442.846 572.962 443.72 572.791 444.687 572.791C445.722 572.791 446.601 572.957 447.323 573.289C448.056 573.621 448.656 574.07 449.125 574.637C449.594 575.193 449.936 575.853 450.15 576.614C450.375 577.366 450.487 578.172 450.487 579.031V579.471ZM448.056 578.753C448.085 577.483 447.802 576.487 447.206 575.765C446.62 575.042 445.746 574.681 444.584 574.681C443.988 574.681 443.466 574.793 443.017 575.018C442.567 575.242 442.191 575.54 441.889 575.911C441.586 576.282 441.352 576.717 441.186 577.215C441.02 577.703 440.927 578.216 440.907 578.753H448.056ZM465.531 586.634C465.531 586.712 465.512 586.78 465.473 586.839C465.434 586.888 465.37 586.932 465.282 586.971C465.194 587.01 465.072 587.039 464.916 587.059C464.76 587.078 464.564 587.088 464.33 587.088C464.086 587.088 463.886 587.078 463.729 587.059C463.573 587.039 463.451 587.01 463.363 586.971C463.275 586.932 463.212 586.888 463.173 586.839C463.134 586.78 463.114 586.712 463.114 586.634V578.914C463.114 578.162 463.056 577.557 462.938 577.098C462.821 576.639 462.65 576.243 462.426 575.911C462.201 575.579 461.908 575.325 461.547 575.149C461.195 574.974 460.785 574.886 460.316 574.886C459.711 574.886 459.105 575.101 458.5 575.53C457.895 575.96 457.26 576.59 456.596 577.42V586.634C456.596 586.712 456.576 586.78 456.537 586.839C456.498 586.888 456.435 586.932 456.347 586.971C456.259 587.01 456.137 587.039 455.98 587.059C455.824 587.078 455.624 587.088 455.38 587.088C455.146 587.088 454.95 587.078 454.794 587.059C454.638 587.039 454.511 587.01 454.413 586.971C454.325 586.932 454.262 586.888 454.223 586.839C454.193 586.78 454.179 586.712 454.179 586.634V573.45C454.179 573.372 454.193 573.309 454.223 573.26C454.252 573.201 454.311 573.152 454.398 573.113C454.486 573.064 454.599 573.035 454.735 573.025C454.872 573.006 455.053 572.996 455.277 572.996C455.492 572.996 455.668 573.006 455.805 573.025C455.951 573.035 456.063 573.064 456.142 573.113C456.22 573.152 456.273 573.201 456.303 573.26C456.342 573.309 456.361 573.372 456.361 573.45V575.193C457.104 574.363 457.841 573.758 458.573 573.377C459.315 572.986 460.062 572.791 460.814 572.791C461.693 572.791 462.431 572.942 463.026 573.245C463.632 573.538 464.12 573.934 464.491 574.432C464.862 574.93 465.126 575.516 465.282 576.189C465.448 576.854 465.531 577.654 465.531 578.592V586.634ZM480.956 574.051C480.956 574.393 480.907 574.642 480.81 574.798C480.722 574.944 480.604 575.018 480.458 575.018H478.568C478.91 575.369 479.149 575.76 479.286 576.189C479.423 576.609 479.491 577.049 479.491 577.508C479.491 578.27 479.369 578.943 479.125 579.529C478.881 580.115 478.529 580.613 478.07 581.023C477.621 581.424 477.084 581.731 476.459 581.946C475.834 582.161 475.141 582.269 474.379 582.269C473.842 582.269 473.329 582.2 472.841 582.063C472.362 581.917 471.991 581.736 471.728 581.521C471.552 581.697 471.405 581.897 471.288 582.122C471.181 582.347 471.127 582.605 471.127 582.898C471.127 583.24 471.283 583.523 471.596 583.748C471.918 583.973 472.343 584.095 472.87 584.114L476.312 584.261C476.967 584.28 477.567 584.373 478.114 584.539C478.661 584.695 479.135 584.925 479.535 585.228C479.936 585.521 480.248 585.887 480.473 586.326C480.697 586.756 480.81 587.259 480.81 587.835C480.81 588.44 480.683 589.017 480.429 589.563C480.175 590.11 479.784 590.589 479.257 590.999C478.739 591.419 478.075 591.746 477.265 591.98C476.454 592.225 475.497 592.347 474.394 592.347C473.329 592.347 472.421 592.254 471.669 592.068C470.927 591.893 470.316 591.648 469.838 591.336C469.359 591.023 469.013 590.647 468.798 590.208C468.583 589.778 468.476 589.31 468.476 588.802C468.476 588.479 468.515 588.167 468.593 587.864C468.671 587.562 468.788 587.273 468.944 587C469.11 586.727 469.311 586.468 469.545 586.224C469.789 585.97 470.067 585.721 470.38 585.477C469.901 585.232 469.545 584.925 469.311 584.554C469.086 584.183 468.974 583.782 468.974 583.353C468.974 582.757 469.096 582.225 469.34 581.756C469.584 581.287 469.887 580.867 470.248 580.496C469.945 580.135 469.706 579.729 469.53 579.28C469.354 578.821 469.267 578.27 469.267 577.625C469.267 576.873 469.394 576.199 469.647 575.604C469.901 575.008 470.253 574.505 470.702 574.095C471.151 573.685 471.688 573.372 472.313 573.157C472.948 572.933 473.637 572.82 474.379 572.82C474.779 572.82 475.15 572.845 475.492 572.894C475.844 572.933 476.171 572.991 476.474 573.069H480.458C480.624 573.069 480.746 573.152 480.824 573.318C480.912 573.475 480.956 573.719 480.956 574.051ZM477.177 577.522C477.177 576.624 476.928 575.926 476.43 575.428C475.941 574.92 475.243 574.666 474.335 574.666C473.866 574.666 473.456 574.744 473.104 574.9C472.763 575.057 472.475 575.271 472.24 575.545C472.016 575.818 471.845 576.136 471.728 576.497C471.62 576.849 471.566 577.22 471.566 577.61C471.566 578.479 471.811 579.163 472.299 579.661C472.797 580.159 473.49 580.408 474.379 580.408C474.857 580.408 475.272 580.335 475.624 580.188C475.976 580.032 476.264 579.822 476.488 579.559C476.723 579.285 476.894 578.973 477.001 578.621C477.118 578.27 477.177 577.903 477.177 577.522ZM478.393 587.967C478.393 587.4 478.158 586.966 477.689 586.663C477.23 586.351 476.605 586.185 475.814 586.165L472.401 586.048C472.089 586.292 471.83 586.526 471.625 586.751C471.43 586.966 471.273 587.171 471.156 587.366C471.039 587.571 470.956 587.771 470.907 587.967C470.868 588.162 470.849 588.362 470.849 588.567C470.849 589.202 471.171 589.681 471.815 590.003C472.46 590.335 473.358 590.501 474.511 590.501C475.243 590.501 475.854 590.428 476.342 590.281C476.84 590.145 477.24 589.959 477.543 589.725C477.846 589.49 478.061 589.222 478.188 588.919C478.324 588.616 478.393 588.299 478.393 587.967ZM493.437 586.648C493.437 586.766 493.397 586.854 493.319 586.912C493.241 586.971 493.134 587.015 492.997 587.044C492.86 587.073 492.66 587.088 492.396 587.088C492.143 587.088 491.938 587.073 491.781 587.044C491.635 587.015 491.527 586.971 491.459 586.912C491.391 586.854 491.356 586.766 491.356 586.648V585.33C490.78 585.945 490.136 586.424 489.423 586.766C488.72 587.107 487.973 587.278 487.182 587.278C486.488 587.278 485.858 587.186 485.292 587C484.735 586.824 484.257 586.565 483.856 586.224C483.466 585.882 483.158 585.462 482.934 584.964C482.719 584.466 482.611 583.899 482.611 583.265C482.611 582.522 482.763 581.878 483.065 581.331C483.368 580.784 483.803 580.33 484.369 579.969C484.936 579.607 485.629 579.339 486.449 579.163C487.27 578.978 488.192 578.885 489.218 578.885H491.034V577.859C491.034 577.352 490.98 576.902 490.873 576.512C490.766 576.121 490.59 575.799 490.346 575.545C490.111 575.281 489.804 575.086 489.423 574.959C489.042 574.822 488.573 574.754 488.017 574.754C487.421 574.754 486.884 574.827 486.405 574.974C485.937 575.11 485.521 575.267 485.16 575.442C484.809 575.608 484.511 575.765 484.267 575.911C484.032 576.048 483.856 576.116 483.739 576.116C483.661 576.116 483.593 576.097 483.534 576.058C483.476 576.019 483.422 575.96 483.373 575.882C483.334 575.804 483.305 575.706 483.285 575.589C483.266 575.462 483.256 575.325 483.256 575.179C483.256 574.935 483.271 574.744 483.3 574.607C483.339 574.461 483.422 574.324 483.549 574.197C483.686 574.07 483.915 573.924 484.237 573.758C484.56 573.582 484.931 573.426 485.351 573.289C485.771 573.143 486.229 573.025 486.728 572.938C487.226 572.84 487.729 572.791 488.236 572.791C489.184 572.791 489.989 572.898 490.653 573.113C491.317 573.328 491.854 573.646 492.265 574.065C492.675 574.476 492.973 574.988 493.158 575.604C493.344 576.219 493.437 576.937 493.437 577.757V586.648ZM491.034 580.628H488.969C488.305 580.628 487.729 580.687 487.24 580.804C486.752 580.911 486.347 581.077 486.024 581.302C485.702 581.517 485.463 581.78 485.307 582.093C485.16 582.396 485.087 582.747 485.087 583.147C485.087 583.831 485.302 584.378 485.731 584.788C486.171 585.188 486.781 585.389 487.562 585.389C488.197 585.389 488.783 585.228 489.32 584.905C489.867 584.583 490.438 584.09 491.034 583.426V580.628ZM509.242 586.634C509.242 586.712 509.223 586.78 509.184 586.839C509.145 586.888 509.081 586.932 508.993 586.971C508.905 587.01 508.783 587.039 508.627 587.059C508.471 587.078 508.275 587.088 508.041 587.088C507.797 587.088 507.597 587.078 507.44 587.059C507.284 587.039 507.162 587.01 507.074 586.971C506.986 586.932 506.923 586.888 506.884 586.839C506.845 586.78 506.825 586.712 506.825 586.634V578.914C506.825 578.162 506.767 577.557 506.649 577.098C506.532 576.639 506.361 576.243 506.137 575.911C505.912 575.579 505.619 575.325 505.258 575.149C504.906 574.974 504.496 574.886 504.027 574.886C503.422 574.886 502.816 575.101 502.211 575.53C501.605 575.96 500.971 576.59 500.307 577.42V586.634C500.307 586.712 500.287 586.78 500.248 586.839C500.209 586.888 500.146 586.932 500.058 586.971C499.97 587.01 499.848 587.039 499.691 587.059C499.535 587.078 499.335 587.088 499.091 587.088C498.856 587.088 498.661 587.078 498.505 587.059C498.349 587.039 498.222 587.01 498.124 586.971C498.036 586.932 497.973 586.888 497.934 586.839C497.904 586.78 497.89 586.712 497.89 586.634V573.45C497.89 573.372 497.904 573.309 497.934 573.26C497.963 573.201 498.021 573.152 498.109 573.113C498.197 573.064 498.31 573.035 498.446 573.025C498.583 573.006 498.764 572.996 498.988 572.996C499.203 572.996 499.379 573.006 499.516 573.025C499.662 573.035 499.774 573.064 499.853 573.113C499.931 573.152 499.984 573.201 500.014 573.26C500.053 573.309 500.072 573.372 500.072 573.45V575.193C500.814 574.363 501.552 573.758 502.284 573.377C503.026 572.986 503.773 572.791 504.525 572.791C505.404 572.791 506.142 572.942 506.737 573.245C507.343 573.538 507.831 573.934 508.202 574.432C508.573 574.93 508.837 575.516 508.993 576.189C509.159 576.854 509.242 577.654 509.242 578.592V586.634ZM532.577 579.866C532.577 581.009 532.45 582.039 532.196 582.957C531.952 583.865 531.586 584.642 531.098 585.286C530.619 585.931 530.028 586.424 529.325 586.766C528.622 587.107 527.816 587.278 526.908 587.278C526.488 587.278 526.098 587.234 525.736 587.146C525.385 587.068 525.038 586.937 524.696 586.751C524.354 586.565 524.013 586.331 523.671 586.048C523.329 585.765 522.968 585.423 522.587 585.022V586.634C522.587 586.712 522.567 586.78 522.528 586.839C522.489 586.897 522.426 586.946 522.338 586.985C522.25 587.015 522.138 587.039 522.001 587.059C521.874 587.078 521.708 587.088 521.503 587.088C521.308 587.088 521.142 587.078 521.005 587.059C520.868 587.039 520.756 587.015 520.668 586.985C520.58 586.946 520.521 586.897 520.492 586.839C520.463 586.78 520.448 586.712 520.448 586.634V567.063C520.448 566.985 520.463 566.917 520.492 566.858C520.531 566.8 520.595 566.751 520.683 566.712C520.78 566.673 520.907 566.644 521.063 566.624C521.22 566.604 521.415 566.595 521.649 566.595C521.894 566.595 522.094 566.604 522.25 566.624C522.406 566.644 522.528 566.673 522.616 566.712C522.704 566.751 522.768 566.8 522.807 566.858C522.846 566.917 522.865 566.985 522.865 567.063V574.959C523.256 574.559 523.632 574.222 523.993 573.948C524.364 573.675 524.726 573.455 525.077 573.289C525.429 573.113 525.78 572.986 526.132 572.908C526.483 572.83 526.854 572.791 527.245 572.791C528.202 572.791 529.018 572.981 529.691 573.362C530.375 573.743 530.927 574.256 531.347 574.9C531.776 575.535 532.089 576.282 532.284 577.142C532.479 578.001 532.577 578.909 532.577 579.866ZM530.028 580.145C530.028 579.471 529.975 578.816 529.867 578.182C529.77 577.547 529.594 576.985 529.34 576.497C529.086 576.009 528.749 575.618 528.329 575.325C527.909 575.022 527.387 574.871 526.762 574.871C526.449 574.871 526.142 574.915 525.839 575.003C525.536 575.091 525.229 575.237 524.916 575.442C524.604 575.647 524.276 575.911 523.935 576.233C523.603 576.556 523.246 576.961 522.865 577.449V582.708C523.529 583.519 524.164 584.139 524.77 584.568C525.375 584.988 526.005 585.198 526.659 585.198C527.265 585.198 527.782 585.052 528.212 584.759C528.642 584.466 528.988 584.08 529.252 583.602C529.525 583.113 529.721 582.571 529.838 581.976C529.965 581.37 530.028 580.76 530.028 580.145ZM546.142 586.648C546.142 586.766 546.103 586.854 546.024 586.912C545.946 586.971 545.839 587.015 545.702 587.044C545.565 587.073 545.365 587.088 545.102 587.088C544.848 587.088 544.643 587.073 544.486 587.044C544.34 587.015 544.232 586.971 544.164 586.912C544.096 586.854 544.062 586.766 544.062 586.648V585.33C543.485 585.945 542.841 586.424 542.128 586.766C541.425 587.107 540.678 587.278 539.887 587.278C539.193 587.278 538.563 587.186 537.997 587C537.44 586.824 536.962 586.565 536.562 586.224C536.171 585.882 535.863 585.462 535.639 584.964C535.424 584.466 535.316 583.899 535.316 583.265C535.316 582.522 535.468 581.878 535.771 581.331C536.073 580.784 536.508 580.33 537.074 579.969C537.641 579.607 538.334 579.339 539.154 579.163C539.975 578.978 540.897 578.885 541.923 578.885H543.739V577.859C543.739 577.352 543.686 576.902 543.578 576.512C543.471 576.121 543.295 575.799 543.051 575.545C542.816 575.281 542.509 575.086 542.128 574.959C541.747 574.822 541.278 574.754 540.722 574.754C540.126 574.754 539.589 574.827 539.11 574.974C538.642 575.11 538.227 575.267 537.865 575.442C537.514 575.608 537.216 575.765 536.972 575.911C536.737 576.048 536.562 576.116 536.444 576.116C536.366 576.116 536.298 576.097 536.239 576.058C536.181 576.019 536.127 575.96 536.078 575.882C536.039 575.804 536.01 575.706 535.99 575.589C535.971 575.462 535.961 575.325 535.961 575.179C535.961 574.935 535.976 574.744 536.005 574.607C536.044 574.461 536.127 574.324 536.254 574.197C536.391 574.07 536.62 573.924 536.942 573.758C537.265 573.582 537.636 573.426 538.056 573.289C538.476 573.143 538.935 573.025 539.433 572.938C539.931 572.84 540.434 572.791 540.941 572.791C541.889 572.791 542.694 572.898 543.358 573.113C544.022 573.328 544.56 573.646 544.97 574.065C545.38 574.476 545.678 574.988 545.863 575.604C546.049 576.219 546.142 576.937 546.142 577.757V586.648ZM543.739 580.628H541.674C541.01 580.628 540.434 580.687 539.945 580.804C539.457 580.911 539.052 581.077 538.729 581.302C538.407 581.517 538.168 581.78 538.012 582.093C537.865 582.396 537.792 582.747 537.792 583.147C537.792 583.831 538.007 584.378 538.437 584.788C538.876 585.188 539.486 585.389 540.268 585.389C540.902 585.389 541.488 585.228 542.025 584.905C542.572 584.583 543.144 584.09 543.739 583.426V580.628ZM553.012 586.634C553.012 586.712 552.992 586.78 552.953 586.839C552.914 586.888 552.851 586.932 552.763 586.971C552.675 587.01 552.553 587.039 552.396 587.059C552.24 587.078 552.04 587.088 551.796 587.088C551.562 587.088 551.366 587.078 551.21 587.059C551.054 587.039 550.927 587.01 550.829 586.971C550.741 586.932 550.678 586.888 550.639 586.839C550.609 586.78 550.595 586.712 550.595 586.634V573.45C550.595 573.382 550.609 573.318 550.639 573.26C550.678 573.201 550.741 573.152 550.829 573.113C550.927 573.074 551.054 573.045 551.21 573.025C551.366 573.006 551.562 572.996 551.796 572.996C552.04 572.996 552.24 573.006 552.396 573.025C552.553 573.045 552.675 573.074 552.763 573.113C552.851 573.152 552.914 573.201 552.953 573.26C552.992 573.318 553.012 573.382 553.012 573.45V586.634ZM553.29 568.997C553.29 569.563 553.183 569.949 552.968 570.154C552.753 570.359 552.357 570.462 551.781 570.462C551.215 570.462 550.824 570.364 550.609 570.169C550.404 569.964 550.302 569.583 550.302 569.026C550.302 568.46 550.409 568.074 550.624 567.869C550.839 567.664 551.234 567.562 551.811 567.562C552.377 567.562 552.763 567.664 552.968 567.869C553.183 568.064 553.29 568.44 553.29 568.997ZM568.305 586.619C568.305 586.697 568.285 586.766 568.246 586.824C568.207 586.883 568.139 586.932 568.041 586.971C567.953 587.01 567.826 587.039 567.66 587.059C567.494 587.078 567.284 587.088 567.03 587.088C566.767 587.088 566.547 587.078 566.371 587.059C566.205 587.049 566.063 587.029 565.946 587C565.829 586.961 565.731 586.912 565.653 586.854C565.585 586.785 565.521 586.707 565.463 586.619L559.896 579.324V586.634C559.896 586.712 559.877 586.78 559.838 586.839C559.799 586.888 559.735 586.932 559.647 586.971C559.56 587.01 559.438 587.039 559.281 587.059C559.125 587.078 558.925 587.088 558.681 587.088C558.446 587.088 558.251 587.078 558.095 587.059C557.938 587.039 557.812 587.01 557.714 586.971C557.626 586.932 557.562 586.888 557.523 586.839C557.494 586.78 557.479 586.712 557.479 586.634V567.063C557.479 566.985 557.494 566.917 557.523 566.858C557.562 566.8 557.626 566.751 557.714 566.712C557.812 566.673 557.938 566.644 558.095 566.624C558.251 566.604 558.446 566.595 558.681 566.595C558.925 566.595 559.125 566.604 559.281 566.624C559.438 566.644 559.56 566.673 559.647 566.712C559.735 566.751 559.799 566.8 559.838 566.858C559.877 566.917 559.896 566.985 559.896 567.063V578.987L564.877 573.509C564.955 573.411 565.038 573.333 565.126 573.274C565.214 573.206 565.316 573.152 565.434 573.113C565.561 573.064 565.707 573.035 565.873 573.025C566.039 573.006 566.239 572.996 566.474 572.996C566.718 572.996 566.923 573.006 567.089 573.025C567.255 573.035 567.387 573.06 567.484 573.099C567.592 573.128 567.665 573.172 567.704 573.23C567.753 573.279 567.777 573.348 567.777 573.436C567.777 573.553 567.743 573.67 567.675 573.787C567.616 573.904 567.514 574.041 567.367 574.197L562.592 578.973L567.953 585.931C568.08 586.097 568.168 586.233 568.217 586.341C568.275 586.438 568.305 586.531 568.305 586.619ZM574.252 585.403C574.252 586.097 574.135 586.561 573.9 586.795C573.676 587.02 573.261 587.132 572.655 587.132C572.069 587.132 571.664 587.02 571.439 586.795C571.215 586.57 571.103 586.121 571.103 585.447C571.103 584.754 571.215 584.295 571.439 584.07C571.674 583.836 572.094 583.719 572.699 583.719C573.285 583.719 573.69 583.831 573.915 584.056C574.14 584.28 574.252 584.729 574.252 585.403Z" fill="#0E4542"/>
<g filter="url(#filter0_f)">
<rect x="60" y="60" width="519" height="102" rx="30" fill="#DEFFDD"/>
</g>
<path d="M223.795 101.69C222.835 99.92 221.35 99.02 219.34 98.99C218.17 98.99 217.195 99.35 216.415 100.07C215.635 100.79 215.26 101.645 215.29 102.635C215.29 103.355 215.635 104 216.325 104.57C217.045 105.14 218.17 105.545 219.7 105.785C223.33 106.415 225.955 107.645 227.575 109.475C229.225 111.275 230.05 113.345 230.05 115.685C230.05 118.265 229.075 120.56 227.125 122.57C225.175 124.55 222.745 125.54 219.835 125.54C215.215 125.48 211.78 123.14 209.53 118.52L214.075 116.225C215.485 119.135 217.435 120.59 219.925 120.59C221.365 120.62 222.61 120.125 223.66 119.105C224.71 118.055 225.235 116.84 225.235 115.46C225.265 114.53 224.86 113.615 224.02 112.715C223.18 111.785 221.695 111.125 219.565 110.735C216.685 110.315 214.48 109.445 212.95 108.125C211.42 106.775 210.655 105.17 210.655 103.31C210.595 101.09 211.375 99.05 212.995 97.19C214.615 95.3 216.76 94.355 219.43 94.355C223.18 94.445 225.97 96.215 227.8 99.665L223.795 101.69ZM251.308 116H238.348C238.348 117.41 238.723 118.58 239.473 119.51C240.223 120.41 241.198 120.845 242.398 120.815C244.078 120.875 245.368 120.14 246.268 118.61L250.543 120.365C249.043 123.725 246.358 125.45 242.488 125.54C239.758 125.54 237.553 124.535 235.873 122.525C234.223 120.515 233.398 117.635 233.398 113.885C233.398 110.795 234.193 108.125 235.783 105.875C237.403 103.595 239.638 102.455 242.488 102.455C245.158 102.455 247.288 103.505 248.878 105.605C250.498 107.705 251.308 111.17 251.308 116ZM246.493 111.59C246.523 110.33 246.163 109.235 245.413 108.305C244.693 107.375 243.718 106.91 242.488 106.91C241.168 106.88 240.118 107.375 239.338 108.395C238.558 109.385 238.198 110.45 238.258 111.59H246.493ZM260.92 125H256.06V96.785L260.92 94.355V125ZM283.155 125H278.52V124.28C277.35 125.12 276.045 125.555 274.605 125.585C272.205 125.555 270.21 124.88 268.62 123.56C267.06 122.21 266.28 120.26 266.28 117.71C266.28 115.52 267 113.69 268.44 112.22C269.91 110.72 271.89 109.985 274.38 110.015C275.76 110.015 277.05 110.18 278.25 110.51C278.31 108.32 277.2 107.12 274.92 106.91C272.97 106.85 271.215 107.39 269.655 108.53L267.27 104.885C269.43 103.355 271.935 102.545 274.785 102.455C277.125 102.455 279.09 103.13 280.68 104.48C282.3 105.8 283.125 107.735 283.155 110.285V125ZM278.115 119.915V114.965C276.795 114.605 275.475 114.425 274.155 114.425C273.105 114.425 272.235 114.77 271.545 115.46C270.855 116.15 270.525 116.93 270.555 117.8C270.555 118.7 270.9 119.555 271.59 120.365C272.31 121.175 273.27 121.58 274.47 121.58C275.76 121.58 276.975 121.025 278.115 119.915ZM317.743 125H313.018V110.735C313.048 109.865 312.673 109.01 311.893 108.17C311.143 107.3 310.213 106.88 309.103 106.91C308.023 106.91 307.138 107.3 306.448 108.08C305.788 108.86 305.473 109.745 305.503 110.735V125H300.418V110.735C300.448 109.805 300.088 108.935 299.338 108.125C298.588 107.285 297.658 106.88 296.548 106.91C295.558 106.94 294.703 107.345 293.983 108.125C293.293 108.875 292.933 109.745 292.903 110.735V125H287.953V102.635H292.813V103.985C294.163 102.905 295.753 102.365 297.583 102.365C300.073 102.365 302.023 103.4 303.433 105.47C304.873 103.43 306.868 102.41 309.418 102.41C311.608 102.41 313.528 103.25 315.178 104.93C316.858 106.61 317.713 108.575 317.743 110.825V125ZM339.405 125H334.77V124.28C333.6 125.12 332.295 125.555 330.855 125.585C328.455 125.555 326.46 124.88 324.87 123.56C323.31 122.21 322.53 120.26 322.53 117.71C322.53 115.52 323.25 113.69 324.69 112.22C326.16 110.72 328.14 109.985 330.63 110.015C332.01 110.015 333.3 110.18 334.5 110.51C334.56 108.32 333.45 107.12 331.17 106.91C329.22 106.85 327.465 107.39 325.905 108.53L323.52 104.885C325.68 103.355 328.185 102.545 331.035 102.455C333.375 102.455 335.34 103.13 336.93 104.48C338.55 105.8 339.375 107.735 339.405 110.285V125ZM334.365 119.915V114.965C333.045 114.605 331.725 114.425 330.405 114.425C329.355 114.425 328.485 114.77 327.795 115.46C327.105 116.15 326.775 116.93 326.805 117.8C326.805 118.7 327.15 119.555 327.84 120.365C328.56 121.175 329.52 121.58 330.72 121.58C332.01 121.58 333.225 121.025 334.365 119.915ZM360.763 125H356.128V124.28C354.958 125.12 353.653 125.555 352.213 125.585C349.813 125.555 347.818 124.88 346.228 123.56C344.668 122.21 343.888 120.26 343.888 117.71C343.888 115.52 344.608 113.69 346.048 112.22C347.518 110.72 349.498 109.985 351.988 110.015C353.368 110.015 354.658 110.18 355.858 110.51C355.918 108.32 354.808 107.12 352.528 106.91C350.578 106.85 348.823 107.39 347.263 108.53L344.878 104.885C347.038 103.355 349.543 102.545 352.393 102.455C354.733 102.455 356.698 103.13 358.288 104.48C359.908 105.8 360.733 107.735 360.763 110.285V125ZM355.723 119.915V114.965C354.403 114.605 353.083 114.425 351.763 114.425C350.713 114.425 349.843 114.77 349.153 115.46C348.463 116.15 348.133 116.93 348.163 117.8C348.163 118.7 348.508 119.555 349.198 120.365C349.918 121.175 350.878 121.58 352.078 121.58C353.368 121.58 354.583 121.025 355.723 119.915ZM382.12 125H377.485V124.28C376.315 125.12 375.01 125.555 373.57 125.585C371.17 125.555 369.175 124.88 367.585 123.56C366.025 122.21 365.245 120.26 365.245 117.71C365.245 115.52 365.965 113.69 367.405 112.22C368.875 110.72 370.855 109.985 373.345 110.015C374.725 110.015 376.015 110.18 377.215 110.51C377.275 108.32 376.165 107.12 373.885 106.91C371.935 106.85 370.18 107.39 368.62 108.53L366.235 104.885C368.395 103.355 370.9 102.545 373.75 102.455C376.09 102.455 378.055 103.13 379.645 104.48C381.265 105.8 382.09 107.735 382.12 110.285V125ZM377.08 119.915V114.965C375.76 114.605 374.44 114.425 373.12 114.425C372.07 114.425 371.2 114.77 370.51 115.46C369.82 116.15 369.49 116.93 369.52 117.8C369.52 118.7 369.865 119.555 370.555 120.365C371.275 121.175 372.235 121.58 373.435 121.58C374.725 121.58 375.94 121.025 377.08 119.915ZM403.478 125H398.843V124.28C397.673 125.12 396.368 125.555 394.928 125.585C392.528 125.555 390.533 124.88 388.943 123.56C387.383 122.21 386.603 120.26 386.603 117.71C386.603 115.52 387.323 113.69 388.763 112.22C390.233 110.72 392.213 109.985 394.703 110.015C396.083 110.015 397.373 110.18 398.573 110.51C398.633 108.32 397.523 107.12 395.243 106.91C393.293 106.85 391.538 107.39 389.978 108.53L387.593 104.885C389.753 103.355 392.258 102.545 395.108 102.455C397.448 102.455 399.413 103.13 401.003 104.48C402.623 105.8 403.448 107.735 403.478 110.285V125ZM398.438 119.915V114.965C397.118 114.605 395.798 114.425 394.478 114.425C393.428 114.425 392.558 114.77 391.868 115.46C391.178 116.15 390.848 116.93 390.878 117.8C390.878 118.7 391.223 119.555 391.913 120.365C392.633 121.175 393.593 121.58 394.793 121.58C396.083 121.58 397.298 121.025 398.438 119.915ZM418.355 120.185L417.05 124.955C416.3 125.345 415.43 125.54 414.44 125.54C413.3 125.54 412.265 125.015 411.335 123.965C410.405 122.915 409.94 121.505 409.94 119.735V107.45H406.745V102.995H409.94V96.65L414.575 94.355V102.995H418.4V107.36H414.575V119.195C414.575 120.395 415.025 121.025 415.925 121.085C416.675 121.115 417.485 120.815 418.355 120.185ZM437.911 94.85V105.38L437.011 117.215H433.906L433.051 105.38V94.85H437.911ZM437.911 122.84C437.911 123.47 437.656 124.04 437.146 124.55C436.666 125.03 436.111 125.27 435.481 125.27C434.851 125.27 434.281 125.03 433.771 124.55C433.291 124.04 433.051 123.47 433.051 122.84C433.051 122.21 433.291 121.655 433.771 121.175C434.281 120.665 434.851 120.41 435.481 120.41C436.111 120.41 436.666 120.665 437.146 121.175C437.656 121.655 437.911 122.21 437.911 122.84Z" fill="#0E4542"/>
<path d="M226.04 512.28C225.187 510.707 223.867 509.907 222.08 509.88C221.04 509.88 220.173 510.2 219.48 510.84C218.787 511.48 218.453 512.24 218.48 513.12C218.48 513.76 218.787 514.333 219.4 514.84C220.04 515.347 221.04 515.707 222.4 515.92C225.627 516.48 227.96 517.573 229.4 519.2C230.867 520.8 231.6 522.64 231.6 524.72C231.6 527.013 230.733 529.053 229 530.84C227.267 532.6 225.107 533.48 222.52 533.48C218.413 533.427 215.36 531.347 213.36 527.24L217.4 525.2C218.653 527.787 220.387 529.08 222.6 529.08C223.88 529.107 224.987 528.667 225.92 527.76C226.853 526.827 227.32 525.747 227.32 524.52C227.347 523.693 226.987 522.88 226.24 522.08C225.493 521.253 224.173 520.667 222.28 520.32C219.72 519.947 217.76 519.173 216.4 518C215.04 516.8 214.36 515.373 214.36 513.72C214.307 511.747 215 509.933 216.44 508.28C217.88 506.6 219.787 505.76 222.16 505.76C225.493 505.84 227.973 507.413 229.6 510.48L226.04 512.28ZM250.496 525H238.976C238.976 526.253 239.309 527.293 239.976 528.12C240.642 528.92 241.509 529.307 242.576 529.28C244.069 529.333 245.216 528.68 246.016 527.32L249.816 528.88C248.482 531.867 246.096 533.4 242.656 533.48C240.229 533.48 238.269 532.587 236.776 530.8C235.309 529.013 234.576 526.453 234.576 523.12C234.576 520.373 235.282 518 236.696 516C238.136 513.973 240.122 512.96 242.656 512.96C245.029 512.96 246.922 513.893 248.336 515.76C249.776 517.627 250.496 520.707 250.496 525ZM246.216 521.08C246.242 519.96 245.922 518.987 245.256 518.16C244.616 517.333 243.749 516.92 242.656 516.92C241.482 516.893 240.549 517.333 239.856 518.24C239.162 519.12 238.842 520.067 238.896 521.08H246.216ZM280.76 533H276.56V520.32C276.587 519.547 276.253 518.787 275.56 518.04C274.893 517.267 274.067 516.893 273.08 516.92C272.12 516.92 271.333 517.267 270.72 517.96C270.133 518.653 269.853 519.44 269.88 520.32V533H265.36V520.32C265.387 519.493 265.067 518.72 264.4 518C263.733 517.253 262.907 516.893 261.92 516.92C261.04 516.947 260.28 517.307 259.64 518C259.027 518.667 258.707 519.44 258.68 520.32V533H254.28V513.12H258.6V514.32C259.8 513.36 261.213 512.88 262.84 512.88C265.053 512.88 266.787 513.8 268.04 515.64C269.32 513.827 271.093 512.92 273.36 512.92C275.307 512.92 277.013 513.667 278.48 515.16C279.973 516.653 280.733 518.4 280.76 520.4V533ZM300.016 533H295.896V532.36C294.856 533.107 293.696 533.493 292.416 533.52C290.282 533.493 288.509 532.893 287.096 531.72C285.709 530.52 285.016 528.787 285.016 526.52C285.016 524.573 285.656 522.947 286.936 521.64C288.242 520.307 290.002 519.653 292.216 519.68C293.442 519.68 294.589 519.827 295.656 520.12C295.709 518.173 294.722 517.107 292.696 516.92C290.962 516.867 289.402 517.347 288.016 518.36L285.896 515.12C287.816 513.76 290.042 513.04 292.576 512.96C294.656 512.96 296.402 513.56 297.816 514.76C299.256 515.933 299.989 517.653 300.016 519.92V533ZM295.536 528.48V524.08C294.362 523.76 293.189 523.6 292.016 523.6C291.082 523.6 290.309 523.907 289.696 524.52C289.082 525.133 288.789 525.827 288.816 526.6C288.816 527.4 289.122 528.16 289.736 528.88C290.376 529.6 291.229 529.96 292.296 529.96C293.442 529.96 294.522 529.467 295.536 528.48ZM303.68 513.2H307.84V514.44C309.013 513.453 310.573 512.96 312.52 512.96C314.787 512.96 316.48 513.733 317.6 515.28C318.72 516.827 319.28 518.627 319.28 520.68V533H315.16V520.76C315.213 519.747 314.88 518.84 314.16 518.04C313.44 517.213 312.533 516.827 311.44 516.88C310.293 516.88 309.413 517.213 308.8 517.88C308.213 518.547 307.92 519.507 307.92 520.76V533H303.68V513.2ZM331.064 533.48C325.731 533.48 323.064 530.16 323.064 523.52C323.064 516.587 325.758 513.067 331.144 512.96C332.744 512.987 333.971 513.453 334.824 514.36V513.12H339.064V532.32C338.878 537.547 336.491 541 331.904 542.68L330.144 539.16C333.344 537.88 334.904 535.6 334.824 532.32C333.704 533.093 332.451 533.48 331.064 533.48ZM327.224 523.48C327.251 527.613 328.518 529.693 331.024 529.72C332.518 529.747 333.758 529.12 334.744 527.84V519.04C333.971 517.733 332.771 517.08 331.144 517.08C328.531 517.24 327.224 519.373 327.224 523.48ZM358.18 533H354.06V532.36C353.02 533.107 351.86 533.493 350.58 533.52C348.446 533.493 346.673 532.893 345.26 531.72C343.873 530.52 343.18 528.787 343.18 526.52C343.18 524.573 343.82 522.947 345.1 521.64C346.406 520.307 348.166 519.653 350.38 519.68C351.606 519.68 352.753 519.827 353.82 520.12C353.873 518.173 352.886 517.107 350.86 516.92C349.126 516.867 347.566 517.347 346.18 518.36L344.06 515.12C345.98 513.76 348.206 513.04 350.74 512.96C352.82 512.96 354.566 513.56 355.98 514.76C357.42 515.933 358.153 517.653 358.18 519.92V533ZM353.7 528.48V524.08C352.526 523.76 351.353 523.6 350.18 523.6C349.246 523.6 348.473 523.907 347.86 524.52C347.246 525.133 346.953 525.827 346.98 526.6C346.98 527.4 347.286 528.16 347.9 528.88C348.54 529.6 349.393 529.96 350.46 529.96C351.606 529.96 352.686 529.467 353.7 528.48ZM377.164 533H373.044V532.36C372.004 533.107 370.844 533.493 369.564 533.52C367.431 533.493 365.657 532.893 364.244 531.72C362.857 530.52 362.164 528.787 362.164 526.52C362.164 524.573 362.804 522.947 364.084 521.64C365.391 520.307 367.151 519.653 369.364 519.68C370.591 519.68 371.737 519.827 372.804 520.12C372.857 518.173 371.871 517.107 369.844 516.92C368.111 516.867 366.551 517.347 365.164 518.36L363.044 515.12C364.964 513.76 367.191 513.04 369.724 512.96C371.804 512.96 373.551 513.56 374.964 514.76C376.404 515.933 377.137 517.653 377.164 519.92V533ZM372.684 528.48V524.08C371.511 523.76 370.337 523.6 369.164 523.6C368.231 523.6 367.457 523.907 366.844 524.52C366.231 525.133 365.937 525.827 365.964 526.6C365.964 527.4 366.271 528.16 366.884 528.88C367.524 529.6 368.377 529.96 369.444 529.96C370.591 529.96 371.671 529.467 372.684 528.48ZM396.148 533H392.028V532.36C390.988 533.107 389.828 533.493 388.548 533.52C386.415 533.493 384.642 532.893 383.228 531.72C381.842 530.52 381.148 528.787 381.148 526.52C381.148 524.573 381.788 522.947 383.068 521.64C384.375 520.307 386.135 519.653 388.348 519.68C389.575 519.68 390.722 519.827 391.788 520.12C391.842 518.173 390.855 517.107 388.828 516.92C387.095 516.867 385.535 517.347 384.148 518.36L382.028 515.12C383.948 513.76 386.175 513.04 388.708 512.96C390.788 512.96 392.535 513.56 393.948 514.76C395.388 515.933 396.122 517.653 396.148 519.92V533ZM391.668 528.48V524.08C390.495 523.76 389.322 523.6 388.148 523.6C387.215 523.6 386.442 523.907 385.828 524.52C385.215 525.133 384.922 525.827 384.948 526.6C384.948 527.4 385.255 528.16 385.868 528.88C386.508 529.6 387.362 529.96 388.428 529.96C389.575 529.96 390.655 529.467 391.668 528.48ZM409.373 528.72L408.213 532.96C407.546 533.307 406.773 533.48 405.893 533.48C404.879 533.48 403.959 533.013 403.133 532.08C402.306 531.147 401.893 529.893 401.893 528.32V517.4H399.053V513.44H401.893V507.8L406.013 505.76V513.44H409.413V517.32H406.013V527.84C406.013 528.907 406.413 529.467 407.213 529.52C407.879 529.547 408.599 529.28 409.373 528.72ZM416.56 506.2V515.56L415.76 526.08H413L412.24 515.56V506.2H416.56ZM416.56 531.08C416.56 531.64 416.334 532.147 415.88 532.6C415.454 533.027 414.96 533.24 414.4 533.24C413.84 533.24 413.334 533.027 412.88 532.6C412.454 532.147 412.24 531.64 412.24 531.08C412.24 530.52 412.454 530.027 412.88 529.6C413.334 529.147 413.84 528.92 414.4 528.92C414.96 528.92 415.454 529.147 415.88 529.6C416.334 530.027 416.56 530.52 416.56 531.08ZM424.763 506.2V515.56L423.963 526.08H421.203L420.443 515.56V506.2H424.763ZM424.763 531.08C424.763 531.64 424.537 532.147 424.083 532.6C423.657 533.027 423.163 533.24 422.603 533.24C422.043 533.24 421.537 533.027 421.083 532.6C420.657 532.147 420.443 531.64 420.443 531.08C420.443 530.52 420.657 530.027 421.083 529.6C421.537 529.147 422.043 528.92 422.603 528.92C423.163 528.92 423.657 529.147 424.083 529.6C424.537 530.027 424.763 530.52 424.763 531.08Z" fill="#0E4542"/>
<path d="M304.92 364.72C300.2 364.72 296.56 362.94 294 359.38C291.48 355.78 290.22 350.62 290.22 343.9C290.22 337.34 291.48 332.24 294 328.6C296.56 324.96 300.2 323.14 304.92 323.14C309.72 323.14 313.36 324.96 315.84 328.6C318.36 332.24 319.62 337.34 319.62 343.9C319.62 350.62 318.36 355.78 315.84 359.38C313.36 362.94 309.72 364.72 304.92 364.72ZM304.92 329.5C302.12 329.5 300.08 330.84 298.8 333.52C297.52 336.16 296.86 339.58 296.82 343.78C296.82 348.5 297.44 352.08 298.68 354.52C299.96 356.96 302.04 358.16 304.92 358.12C307.96 358.04 310.06 356.78 311.22 354.34C312.38 351.9 313 348.38 313.08 343.78C313 339.3 312.32 335.84 311.04 333.4C309.8 330.96 307.76 329.66 304.92 329.5ZM347.966 358.12H345.806C345.846 357.12 345.486 356.26 344.726 355.54C344.006 354.82 343.126 354.46 342.086 354.46C341.046 354.46 340.146 354.82 339.386 355.54C338.666 356.22 338.306 357.08 338.306 358.12C338.306 359.12 338.666 360 339.386 360.76C340.146 361.48 341.046 361.84 342.086 361.84C343.126 361.84 344.006 361.48 344.726 360.76C345.486 360 345.846 359.12 345.806 358.12H347.966C347.966 359.72 347.386 361.1 346.226 362.26C345.066 363.42 343.686 364 342.086 364C340.486 364 339.106 363.42 337.946 362.26C336.826 361.1 336.266 359.72 336.266 358.12C336.266 356.48 336.826 355.1 337.946 353.98C339.066 352.86 340.446 352.3 342.086 352.3C343.646 352.3 345.006 352.88 346.166 354.04C347.366 355.16 347.966 356.52 347.966 358.12ZM335.906 329.62H333.746C333.786 328.62 333.426 327.76 332.666 327.04C331.946 326.32 331.066 325.96 330.026 325.96C328.986 325.96 328.086 326.32 327.326 327.04C326.606 327.72 326.246 328.58 326.246 329.62C326.246 330.62 326.606 331.5 327.326 332.26C328.086 332.98 328.986 333.34 330.026 333.34C331.066 333.34 331.946 332.98 332.666 332.26C333.426 331.5 333.786 330.62 333.746 329.62H335.906C335.906 331.22 335.326 332.6 334.166 333.76C333.006 334.92 331.626 335.5 330.026 335.5C328.426 335.5 327.046 334.92 325.886 333.76C324.766 332.6 324.206 331.22 324.206 329.62C324.206 327.98 324.766 326.6 325.886 325.48C327.006 324.36 328.386 323.8 330.026 323.8C331.586 323.8 332.946 324.38 334.106 325.54C335.306 326.66 335.906 328.02 335.906 329.62ZM348.986 323.8L326.006 364H323.366L346.406 323.8H348.986Z" fill="#274B49"/>
<defs>
<filter id="filter0_f" x="0" y="0" width="639" height="222" filterUnits="userSpaceOnUse" color-interpolation-filters="sRGB">
<feFlood flood-opacity="0" result="BackgroundImageFix"/>
<feBlend mode="normal" in="SourceGraphic" in2="BackgroundImageFix" result="shape"/>
<feGaussianBlur stdDeviation="30" result="effect1_foregroundBlur"/>
</filter>
</defs>
</svg>
