<svg width="54" height="54" viewBox="0 0 54 54" fill="none" xmlns="http://www.w3.org/2000/svg">
<path d="M31.7461 0V8.01562H28.582C26.8345 8.01562 25.418 9.43218 25.418 11.1797C25.418 12.9272 26.8345 14.3438 28.582 14.3438H31.7461V22.2539H41.2383V17.5078C41.2383 16.635 41.9475 15.9258 42.8203 15.9258C43.6932 15.9258 44.4023 16.635 44.4023 17.5078V22.2539H54V0H31.7461Z" fill="#0E4542"/>
<path d="M7.17188 33.3281C7.17188 35.0756 8.58843 36.4922 10.3359 36.4922C12.0834 36.4922 13.5 35.0756 13.5 33.3281V30.1641H20.6719V22.2539H17.5078C16.6341 22.2539 15.9258 21.5456 15.9258 20.6719C15.9258 19.7982 16.6341 19.0898 17.5078 19.0898H20.6719V9.59766H0V30.1641H7.17188V33.3281Z" fill="#0E4542"/>
<path d="M37.3359 33.3281V30.1641C37.3359 28.4166 35.9194 27 34.1719 27C32.4244 27 31.0078 28.4166 31.0078 30.1641V33.3281H23.8359V37.3359C27.326 37.3359 30.1641 40.174 30.1641 43.6641C30.1641 47.1541 27.326 49.9922 23.8359 49.9922V54H44.4023V33.3281H37.3359Z" fill="#0E4542"/>
<path d="M23.8359 46.8281C25.5834 46.8281 27 45.4116 27 43.6641C27 41.9166 25.5834 40.5 23.8359 40.5H20.6719V33.3281H16.6641C16.6641 36.8182 13.826 39.6562 10.3359 39.6562C6.84587 39.6562 4.00781 36.8182 4.00781 33.3281H0V54H20.6719V46.8281H23.8359Z" fill="#0E4542"/>
</svg>
